<?xml version="1.0" standalone="no"?> <!DOCTYPE svg PUBLIC "-//W3C//DTD SVG 1.0//EN" "http://www.w3.org/TR/2001/REC-SVG-20010904/DTD/svg10.dtd" > <svg xmlns="http://www.w3.org/2000/svg" width="100%" height="100%">
<defs >
<font horiz-adv-x="861" ><font-face
    font-family="ScriptME New"
    units-per-em="2048"
    panose-1="2 0 5 0 0 0 0 0 0 0"
    ascent="1866"
    descent="-459"
    alphabetic="0" />
<missing-glyph horiz-adv-x="1024" d="M100 0V1434H924V0H100ZM150 50H874V1384H150V50ZM325 1148Q356 1176 383 1191Q436 1221 495 1221Q587 1221 643 1174T699 1046Q699 997 676 948T589 818Q526 738 490 686T454 587Q454 549 478 454H446Q411 551 411 602Q411
678 492 820T574 1037Q574 1094 541 1127T450 1160Q412 1160 381 1143Q355 1128 325 1103V1148ZM389 334L446 392Q457 402 466 402Q476 402 488 391L544 331Q553 320 553 311Q553 300 543 289L487 227Q473 213 466 213Q455 213 446 223L385 294Q378 303 378 312Q378
322 389 334Z" />
<glyph unicode=" " glyph-name="space" horiz-adv-x="508" />
<glyph unicode="!" glyph-name="exclam" horiz-adv-x="364" d="M221 738Q216 674 222 626L223 616Q261 440 204 417T83 497Q64 541 61 569L54 619Q45 696 114 1021Q162 1263 155 1382Q154 1491 230 1494Q276 1496 322 1440Q340 1412 344 1378Q356 1279 279 1047Q247
928 232 832Q229 791 221 738ZM176 237T208 204T240 125Q240 79 208 46T130 13Q85 13 53 46T20 125Q20 171 52 204T130 237Q176 237 208 204Z" />
<glyph unicode="&quot;" glyph-name="quotedbl" horiz-adv-x="672" d="M128 1409T89 1378T45 1320T45 1270T71 1235T94 1178T93 1101T101 1051T135 1043T187 1079T248 1160T282 1249T270 1326T221 1384T158 1404ZM449 1415T410 1384T366 1326T366 1276T392 1241T415
1184T414 1107T422 1057T456 1049T508 1085T569 1166T603 1255T591 1332T542 1390T479 1410Z" />
<glyph unicode="#" glyph-name="numbersign" horiz-adv-x="1336" d="M305 593Q316 677 322 767Q183 772 92 788Q35 808 31 843L30 857Q26 897 85 930L122 940Q193 952 331 949Q339 1046 353 1203Q350 1243 389 1267Q406 1271 418 1271Q491 1271 496 1196Q495 1062
491 942Q650 929 832 935Q841 936 848 936Q857 1035 871 1198Q868 1238 907 1262Q924 1266 936 1266Q1009 1266 1014 1191Q1013 1060 1009 942Q1096 943 1221 944Q1261 951 1289 914Q1294 898 1295 885Q1301 812 1227 800Q1110 791 1003 784Q998 679 992 586Q1080
587 1205 587Q1244 594 1272 558Q1277 541 1278 529Q1284 456 1210 444Q1089 434 979 427Q957 190 920 59Q896 4 861 4H845Q806 4 778 65L772 103Q765 201 797 417Q608 408 459 407Q437 188 402 64Q378 9 343 9H328Q288 9 260 70L254 108Q247 203 277 411Q157 417
75 432Q18 451 15 486L13 502Q10 541 68 574L105 584Q174 595 305 593ZM484 764Q480 669 474 585Q633 572 815 579H822Q834 673 841 775Q641 764 484 764Z" />
<glyph unicode="$" glyph-name="dollar" horiz-adv-x="896" d="M499 631Q476 397 452 216Q476 232 499 252Q590 337 629 456Q625 456 626 458Q631 464 631 471Q639 583 499 631ZM431 1259Q297 1214 266 998Q242 830 383 786Q389 838 394 892Q402 988 403 1005H405Q405
1007 403 1007Q414 1102 431 1259ZM369 659Q344 662 318 664Q-8 686 48 1002T299 1399Q377 1430 452 1445Q456 1493 485 1523Q499 1528 509 1528Q558 1528 564 1457Q615 1458 663 1450Q765 1418 792 1321T714 1261Q644 1286 554 1280Q534 1001 512 769Q517 769
522 770Q812 775 839 541Q859 352 707 184Q572 42 422 10Q406 -84 390 -155Q365 -232 337 -232H325Q293 -232 277 -147L275 -93Q276 -52 281 4Q192 14 104 56Q7 118 -16 245L-10 252Q130 154 255 154Q276 154 297 157Q311 267 333 410Q353 530 369 659Z" />
<glyph unicode="%" glyph-name="percent" horiz-adv-x="1180" d="M266 1449Q299 1466 332 1468Q406 1474 465 1388Q515 1309 522 1200Q535 1012 428 862Q367 797 329 786Q297 774 282 773L257 770Q250 770 243 770Q232 769 222 769Q146 769 93 858Q49 940 49 1050Q49
1239 167 1380Q228 1437 266 1449ZM325 1339Q299 1340 270 1322Q222 1291 198 1193T174 1092L168 1053Q168 1052 170 1052L168 1046V1025Q168 1022 170 1020Q170 1019 168 1019Q173 972 196 939Q220 908 249 902Q282 897 316 923Q362 957 379 1056T397 1159L400
1198Q400 1199 399 1199V1205L398 1226Q398 1228 397 1231Q397 1232 398 1232Q389 1278 364 1311Q346 1332 325 1339ZM881 1422L128 -5H289L1021 1422H881ZM866 681Q899 698 932 700Q1006 706 1065 620Q1115 541 1122 432Q1135 244 1028 94Q967 29 929 18Q897 6
882 5L857 2Q850 2 843 2Q832 1 822 1Q746 1 693 90Q649 172 649 282Q649 471 767 612Q828 669 866 681ZM925 571Q899 572 870 554Q822 523 798 425T774 324L768 285Q768 284 770 284L768 278V257Q768 254 770 252Q770 251 768 251Q773 204 796 171Q820 140 849
134Q882 129 916 155Q962 189 979 288T997 391L1000 430Q1000 431 999 431V437L998 458Q998 460 997 463Q997 464 998 464Q989 510 964 543Q946 564 925 571Z" />
<glyph unicode="&amp;" glyph-name="ampersand" horiz-adv-x="1087" d="M503 688H500Q299 671 266 497Q264 490 267 484Q267 482 263 482Q245 375 308 290Q342 250 384 226Q409 334 445 469Q475 575 503 688ZM345 41Q176 60 76 222Q-20 390 64 579Q128 721 260
775Q179 860 235 1039Q335 1355 548 1435Q606 1457 662 1470Q674 1526 687 1587Q693 1647 743 1685Q764 1690 779 1690Q865 1690 854 1576Q847 1534 841 1493Q887 1493 931 1486Q1033 1454 1047 1357T958 1297Q896 1320 812 1317Q697 617 595 204Q740 241 1046
397L1049 390Q984 263 639 94Q598 77 559 65Q525 -58 492 -148Q451 -232 410 -232H392Q345 -232 327 -139V-81Q332 -30 345 41ZM621 1275Q511 1214 459 1034Q413 871 537 840Q553 916 568 995Q586 1100 589 1118H591Q591 1121 588 1121Q602 1186 621 1275Z" />
<glyph unicode="&apos;" glyph-name="quotesingle" horiz-adv-x="346" d="M128 1409T89 1378T45 1320T45 1270T71 1235T94 1178T93 1101T101 1051T135 1043T187 1079T248 1160T282 1249T270 1326T221 1384T158 1404Z" />
<glyph unicode="(" glyph-name="parenleft" horiz-adv-x="426" d="M384 1617Q-193 803 140 -216L270 -119Q-30 709 452 1537L384 1617Z" />
<glyph unicode=")" glyph-name="parenright" horiz-adv-x="495" d="M83 -238Q649 583 304 1598L176 1500Q485 675 13 -158L83 -238Z" />
<glyph unicode="*" glyph-name="asterisk" horiz-adv-x="402" d="M241 1361T261 1381T315 1367T324 1309T331 1285T363 1237T333 1189T320 1171T304 1119T256 1100T241 1097T194 1078T146 1107T126 1116T72 1130T51 1176T44 1189T23 1236T49 1284T54 1306T66 1361T123
1372T146 1383T193 1419T241 1390Z" />
<glyph unicode="+" glyph-name="plus" horiz-adv-x="1014" d="M628 901H1003V701H628V380H414V701H3V901H414V1240H628V901Z" />
<glyph unicode="," glyph-name="comma" horiz-adv-x="328" d="M104 230T65 199T21 141T21 91T47 56T70 -1T69 -78T77 -128T111 -136T163 -100T224 -19T258 70T246 147T197 205T134 225Z" />
<glyph unicode="-" glyph-name="hyphen" horiz-adv-x="491" d="M450 686V540H30V686H450Z" />
<glyph unicode="." glyph-name="period" horiz-adv-x="345" d="M198 216T231 185T265 109Q265 64 232 33T151 1Q103 1 70 32T36 109Q36 153 69 184T151 216Q198 216 231 185Z" />
<glyph unicode="/" glyph-name="slash" horiz-adv-x="896" d="M753 1434L0 7H161L893 1434H753Z" />
<glyph unicode="0" glyph-name="zero" horiz-adv-x="917" d="M411 1414Q473 1450 534 1454Q672 1465 780 1288Q874 1123 887 896Q911 506 711 195Q598 58 528 36Q469 11 441 8L395 4Q381 3 369 4Q349 1 329 1Q189 1 91 187Q9 357 9 584Q9 977 227 1271Q341 1390
411 1414ZM539 1283Q479 1283 415 1237Q305 1158 251 906T196 647L182 548Q182 545 186 545L182 530V477Q182 470 186 464Q186 462 182 462Q194 342 246 255Q299 176 367 160Q442 148 521 214Q626 301 665 556T704 820L711 919Q711 924 709 922L711 939L708 991Q707
998 704 1003Q704 1006 707 1006Q688 1125 630 1208Q588 1262 539 1283Z" />
<glyph unicode="1" glyph-name="one" horiz-adv-x="339" d="M204 1511Q290 1511 296 1423Q282 438 185 90Q156 25 115 25H97Q50 25 18 97L10 142Q1 269 48 567Q82 756 94 974Q97 1055 97 1069H99Q99 1071 96 1071Q106 1193 127 1431Q124 1478 169 1507Q189 1511
204 1511Z" />
<glyph unicode="2" glyph-name="two" horiz-adv-x="927" d="M-2 114Q-5 152 44 261Q121 430 404 565T699 934T537 1200T209 1174T102 1212T403 1387Q571 1415 744 1336T911 940T599 488T181 233Q126 176 98 145Q641 176 842 123Q883 105 884 74L885 60Q887 25
845 -3L818 -11Q742 -24 562 -3Q447 13 316 12Q267 10 259 9V11Q257 11 257 8Q184 10 40 14Q12 10 -7 42Q-10 57 -11 68Q-12 97 -2 114Z" />
<glyph unicode="3" glyph-name="three" horiz-adv-x="890" d="M269 666T278 722T452 797T633 996Q655 1229 504 1263T236 1259T169 1318T334 1448Q515 1476 696 1397T858 1001Q847 822 734 737Q845 683 856 541Q868 352 708 184Q528 1 328 1Q212 1 100 56Q6 118
-12 245L-6 252Q130 154 255 154Q385 154 503 252Q598 337 621 444Q617 444 618 446Q623 452 623 459Q656 633 463 649Z" />
<glyph unicode="4" glyph-name="four" horiz-adv-x="1014" d="M480 602Q253 589 128 588H116Q69 588 37 660L29 705Q20 832 53 1052H55Q55 1054 52 1054Q62 1176 83 1414Q80 1461 125 1490Q145 1494 160 1494Q246 1494 252 1406L233 779Q300 773 480 795Q493 796
506 798Q513 879 518 965Q521 1046 521 1060H523Q523 1062 520 1062Q530 1184 551 1422Q548 1469 593 1498Q613 1502 628 1502Q714 1502 720 1414Q715 1078 701 816Q777 810 906 799Q965 778 964 709T904 630Q788 622 687 615Q659 262 609 81Q580 16 539 16H521Q474
16 442 88L434 133Q425 260 472 558Q476 580 480 602Z" />
<glyph unicode="5" glyph-name="five" horiz-adv-x="899" d="M-8 686T-10 776T20 1164T273 1470T663 1450Q765 1418 787 1346T528 1292T237 1164T214 913T506 792T839 541Q859 352 707 184Q534 1 334 1Q218 1 104 56Q7 118 -16 245L-10 252Q130 154 255 154Q385
154 499 252Q590 337 629 456Q625 456 626 458Q631 464 631 471Q643 641 318 663Z" />
<glyph unicode="6" glyph-name="six" horiz-adv-x="1014" d="M579 801Q512 801 440 773Q317 725 256 573T194 417L179 357Q179 355 183 355L179 346V314Q179 310 183 306Q183 305 179 305Q192 233 250 180Q310 132 386 123Q470 115 559 155Q676 208 720 362T764
521L772 581Q772 584 769 583L771 593L768 624Q767 629 764 632Q764 634 767 634Q746 705 681 756Q634 788 579 801ZM386 895Q409 903 429 907Q499 930 567 932Q722 939 843 826Q948 720 963 574Q990 323 766 123Q639 35 561 21Q494 4 463 3L412 0Q396 -1 382 0Q360
-2 338 -2Q181 -2 71 118Q-21 227 -21 373Q-21 405 -17 436Q-25 461 -12 495Q-4 510 3 524Q26 595 72 660Q389 1281 570 1489Q617 1528 649 1513L663 1506Q699 1489 697 1421L687 1383Q647 1281 499 1067Q442 986 386 895Z" />
<glyph unicode="7" glyph-name="seven" horiz-adv-x="1087" d="M966 1499H978Q1025 1497 1055 1424L1062 1379Q1067 1252 762 795T386 190T269 13Q249 10 234 10Q148 13 176 161T856 1311Q789 1319 558 1304T318 1288L317 1290Q316 1290 316 1287Q237 1295 81
1313Q23 1335 26 1404T88 1482Q640 1506 966 1499Z" />
<glyph unicode="8" glyph-name="eight" horiz-adv-x="994" d="M507 633Q277 606 250 450Q248 443 251 436Q252 434 248 434Q243 274 310 209T444 147Q517 143 591 185Q676 277 715 434Q711 434 712 436Q717 443 717 450Q727 606 507 633ZM595 1297Q571 1293 546
1287Q391 1251 358 1004Q330 795 530 779Q737 795 760 1004Q788 1251 643 1287Q619 1293 595 1297ZM215 711Q102 794 137 991Q182 1186 264 1302T479 1438Q548 1449 616 1443Q686 1449 752 1438Q871 1401 933 1309T976 991Q959 794 824 711Q914 654 928 529Q946
362 850 208Q773 100 670 44Q541 -11 425 -11H423Q307 -11 193 44Q103 101 56 227Q3 364 63 529Q111 654 215 711Z" />
<glyph unicode="9" glyph-name="nine" horiz-adv-x="1014" d="M397 679Q464 679 536 707Q659 755 720 907T782 1063L797 1123Q797 1125 793 1125L797 1134V1166Q797 1170 793 1174Q793 1175 797 1175Q784 1247 726 1300Q666 1348 590 1357Q506 1365 417 1325Q300
1272 256 1118T212 959L204 899Q204 896 207 897L205 887L208 856Q209 851 212 848Q212 846 209 846Q230 775 295 724Q342 692 397 679ZM590 585Q567 577 547 573Q477 550 409 548Q254 541 133 654Q28 760 13 906Q-14 1157 210 1357Q337 1445 415 1459Q482 1476
513 1477L564 1480Q580 1481 594 1480Q616 1482 638 1482Q795 1482 905 1362Q997 1253 997 1107Q997 1075 993 1044Q1001 1019 988 985Q980 970 973 956Q950 885 904 820Q587 199 406 -9Q359 -48 327 -33L313 -26Q277 -9 279 59L289 97Q329 199 477 413Q534 494
590 585Z" />
<glyph unicode=":" glyph-name="colon" horiz-adv-x="387" d="M198 216T231 185T265 109Q265 64 232 33T151 1Q103 1 70 32T36 109Q36 153 69 184T151 216Q198 216 231 185ZM240 915T273 884T307 808Q307 763 274 732T193 700Q145 700 112 731T78 808Q78 852 111
883T193 915Q240 915 273 884Z" />
<glyph unicode=";" glyph-name="semicolon" horiz-adv-x="479" d="M186 224T147 193T103 135T103 85T129 50T152 -7T151 -84T159 -134T193 -142T245 -106T306 -25T340 64T328 141T279 199T216 219ZM303 964T336 933T370 857Q370 812 337 781T256 749Q208 749 175
780T141 857Q141 901 174 932T256 964Q303 964 336 933Z" />
<glyph unicode="&lt;" glyph-name="less" horiz-adv-x="1014" />
<glyph unicode="=" glyph-name="equal" horiz-adv-x="1014" />
<glyph unicode="&gt;" glyph-name="greater" horiz-adv-x="1014" />
<glyph unicode="?" glyph-name="question" horiz-adv-x="748" d="M229 557T217 492T205 423T207 416T210 412T209 411T159 407T132 529T372 687T558 952T376 1220T126 1216T50 1275T174 1405Q337 1433 525 1354T768 958T526 599ZM231 183T258 156T286 89Q286 50
259 23T192 -4Q153 -4 126 23T98 89Q98 128 125 155T192 183Q231 183 258 156Z" />
<glyph unicode="@" glyph-name="at" horiz-adv-x="2019" />
<glyph unicode="A" glyph-name="A" horiz-adv-x="824" d="M257 647Q181 385 113 90Q91 25 64 25H53Q21 25 4 97L0 142Q0 269 60 567Q92 756 161 888L196 1028H200Q224 1107 287 1235Q466 1435 609 1422T791 1340T827 1143T749 751Q673 432 673 268V256Q673 65
788 65Q801 67 813 67H821V65Q756 3 704 3Q600 3 564 126Q554 176 554 209V268Q554 347 614 647H257ZM635 759Q668 970 683 1088Q698 1214 605 1233T447 1175Q425 1149 399 1094Q385 1072 290 759H635Z" />
<glyph unicode="B" glyph-name="B" horiz-adv-x="938" d="M346 142Q454 133 550 194Q628 249 660 330Q656 330 656 332Q662 335 663 340L671 376L669 388Q674 387 674 389V458Q675 463 656 575T486 735Q400 782 311 756Q299 621 228 207Q285 148 346 142ZM348
1361Q357 1221 322 887Q336 887 351 886L407 881Q421 880 442 876Q552 910 621 1020Q693 1136 693 1140L713 1185Q713 1187 709 1187L714 1193L718 1219Q718 1223 714 1225Q715 1226 718 1226Q714 1284 666 1327Q603 1378 511 1382Q438 1386 348 1361ZM613 840Q759
803 837 714Q939 594 888 396Q852 240 725 131Q577 14 409 29Q314 37 215 84Q211 88 206 91Q180 14 94 18Q77 19 56 24Q14 56 26 102Q49 341 62 464Q65 463 65 465L63 466Q66 480 79 561Q107 779 107 970Q113 1270 147 1396L165 1441Q213 1511 263 1508L283 1507Q324
1505 343 1446Q376 1472 420 1488Q514 1512 596 1507Q739 1499 829 1397Q903 1304 889 1186Q865 983 623 844Q618 842 613 840Z" />
<glyph unicode="C" glyph-name="C" horiz-adv-x="942" d="M702 1434H768Q900 1434 945 1317T859 1256T574 1234T345 904T269 646L250 547Q250 544 255 544L250 529V476Q250 469 255 463Q255 461 250 461Q265 341 338 254Q432 156 556 156Q679 156 834 254L837
247Q790 119 688 57Q565 1 454 1Q260 1 123 186Q9 356 9 583Q9 974 312 1268Q482 1395 581 1413Q666 1434 702 1434Z" />
<glyph unicode="D" glyph-name="D" horiz-adv-x="1027" d="M138 31Q127 25 115 25H97Q50 25 18 97L10 142Q1 269 48 567Q82 756 94 974Q97 1055 97 1069H99Q99 1071 96 1071Q106 1193 130 1398Q127 1445 172 1474Q192 1478 207 1478Q435 1444 546 1444Q740 1444
877 1259Q991 1089 991 862Q991 471 688 177Q518 50 419 32Q334 11 298 11H232Q178 11 138 31ZM296 1284Q276 505 204 170Q310 150 427 211Q579 290 655 541T731 799L750 898Q750 901 745 901L750 916V969Q750 976 745 982Q745 984 750 984Q735 1104 662 1191Q568
1289 444 1289Q374 1289 296 1284Z" />
<glyph unicode="E" glyph-name="E" horiz-adv-x="1088" d="M259 1486Q342 1502 502 1495Q625 1485 764 1501Q815 1508 824 1510V1508Q826 1508 825 1511Q904 1516 1056 1525Q1086 1534 1108 1493Q1112 1474 1113 1459Q1120 1374 1065 1357Q565 1269 318 1284Q314
1075 305 896Q372 902 472 905Q694 911 809 920Q831 929 847 888Q850 869 851 854Q857 769 815 752L295 705Q274 390 238 195Q305 189 535 210T775 233L776 231Q777 231 777 234Q856 228 1012 215Q1071 194 1070 125T1010 46Q459 6 133 4H121Q74 4 42 76L34 121Q25
248 72 546Q106 735 118 953Q121 1034 121 1048H123Q123 1050 120 1050Q130 1172 151 1410Q148 1457 193 1486Q213 1490 228 1490Q245 1490 259 1486Z" />
<glyph unicode="F" glyph-name="F" horiz-adv-x="917" d="M258 1486Q341 1502 501 1495Q624 1485 763 1501Q814 1508 823 1510V1508Q825 1508 824 1511Q903 1516 1055 1525Q1085 1534 1107 1493Q1111 1474 1112 1459Q1119 1374 1064 1357Q564 1269 317 1284Q313
1075 304 896Q371 902 471 905Q693 911 808 920Q830 929 846 888Q849 869 850 854Q856 769 814 752L294 705Q273 390 270 252Q262 156 244 90T132 4H120Q73 4 41 76L33 121Q24 248 71 546Q105 735 117 953Q120 1034 120 1048H122Q122 1050 119 1050Q129 1172 150
1410Q147 1457 192 1486Q212 1490 227 1490Q244 1490 258 1486Z" />
<glyph unicode="G" glyph-name="G" horiz-adv-x="974" d="M690 58Q689 57 688 57Q565 1 454 1Q260 1 123 186Q9 356 9 583Q9 974 312 1268Q482 1395 581 1413Q666 1434 702 1434H768Q900 1434 945 1317T859 1256T574 1234T345 904T269 646L250 547Q250 544 255
544L250 529V476Q250 469 255 463Q255 461 250 461Q265 341 338 254Q432 156 556 156Q628 156 710 189Q738 379 755 737Q752 784 797 813Q817 817 832 817Q918 817 924 729Q936 12 839 -336Q810 -401 769 -401H751Q704 -401 672 -329L664 -284Q656 -175 690 58Z"
/>
<glyph unicode="H" glyph-name="H" horiz-adv-x="1013" d="M170 944V948Q173 1029 173 1043H175Q175 1045 172 1045Q182 1167 203 1405Q200 1452 245 1481Q265 1485 280 1485Q366 1485 372 1397Q368 1135 359 918Q458 907 568 906Q626 907 636 908L637 906Q638
906 638 909Q677 907 732 905Q734 930 735 956Q738 1037 738 1051H740Q740 1053 737 1053Q747 1175 768 1413Q765 1460 810 1489Q830 1493 845 1493Q931 1493 937 1405Q933 1123 922 894Q940 885 954 859Q957 839 958 824Q961 749 913 732Q885 284 826 72Q797 7
756 7H738Q691 7 659 79L651 124Q642 251 689 549Q704 632 715 720Q508 713 348 718Q320 274 261 64Q232 -1 191 -1H173Q126 -1 94 71L86 116Q77 243 124 541Q140 632 152 730Q19 743 -64 769Q-111 794 -113 835L-114 853Q-115 900 -65 936L-33 946Q34 958 170
944Z" />
<glyph unicode="I" glyph-name="I" horiz-adv-x="327" d="M204 1511Q290 1511 296 1423Q282 438 185 90Q156 25 115 25H97Q50 25 18 97L10 142Q1 269 48 567Q82 756 94 974Q97 1055 97 1069H99Q99 1071 96 1071Q106 1193 127 1431Q124 1478 169 1507Q189 1511 204 1511Z" />
<glyph unicode="J" glyph-name="J" horiz-adv-x="797" d="M54 39T41 131T126 172T347 238T490 891T646 1433T768 951T645 289T434 56T193 16Z" />
<glyph unicode="K" glyph-name="K" horiz-adv-x="876" d="M248 652Q238 530 242 438L243 418Q278 84 205 40T59 193Q39 276 36 330L31 425Q25 572 55 816T85 1237Q90 1444 187 1449Q244 1453 298 1346Q318 1293 321 1228Q314 1099 304 1056T268 830L450 1027Q581
1186 675 1308T849 1410T875 1247Q846 1181 725 1047T422 735Q556 427 712 218T881 -15T846 -101T660 -34Q611 24 510 202T248 652Z" />
<glyph unicode="L" glyph-name="L" horiz-adv-x="1012" d="M109 25H97Q50 25 18 97L10 142Q1 269 48 567Q82 756 94 974Q97 1055 97 1069H99Q99 1071 96 1071Q106 1193 127 1431Q124 1478 169 1507Q189 1511 204 1511Q290 1511 296 1423Q284 594 214 216Q281 210
511 231T751 254L752 252Q753 252 753 255Q832 249 988 236Q1047 215 1046 146T986 67Q435 27 109 25Z" />
<glyph unicode="M" glyph-name="M" horiz-adv-x="1095" d="M189 1511Q245 1511 245 1423Q257 1121 259 1022H263Q287 1101 350 1229Q466 1435 572 1435Q670 1435 670 865V818Q794 1022 902 1159Q989 1264 1044 1264Q1076 1264 1104 1198Q1114 1164 1114 1125Q1114
1011 1040 748Q964 429 964 265V253Q964 62 1079 62Q1092 64 1104 64H1112V62Q1047 0 995 0Q891 0 855 123Q845 173 845 206V265Q845 354 921 724Q976 1001 976 1044Q972 1069 966 1069H958Q924 1069 874 972Q769 804 678 572Q639 465 600 300Q584 206 576 132Q559
68 522 68H518Q479 68 479 146Q508 571 508 598Q508 600 510 604L508 608Q518 735 522 900V1096Q522 1201 473 1201Q443 1192 417 1137Q403 1114 284 740Q193 438 113 90Q91 25 64 25H53Q21 25 4 97L0 142Q0 269 60 567Q92 756 109 974Q115 1055 115 1069H117Q117
1071 115 1071Q127 1193 134 1431Q134 1478 166 1507Q179 1511 189 1511Z" />
<glyph unicode="N" glyph-name="N" horiz-adv-x="824" d="M189 1511Q245 1511 245 1423Q257 1121 259 1022H263Q287 1101 350 1229Q466 1435 609 1422T791 1340T827 1143T749 751Q673 432 673 268V256Q673 65 788 65Q801 67 813 67H821V65Q756 3 704 3Q600 3 564
126Q554 176 554 209V268Q554 357 630 727Q667 961 682 1087T605 1233T447 1175Q425 1149 399 1094Q385 1071 284 740Q193 438 113 90Q91 25 64 25H53Q21 25 4 97L0 142Q0 269 60 567Q92 756 109 974Q115 1055 115 1069H117Q117 1071 115 1071Q127 1193 134 1431Q134
1478 166 1507Q179 1511 189 1511Z" />
<glyph unicode="O" glyph-name="O" horiz-adv-x="1014" d="M459 1414Q529 1450 597 1454Q752 1465 873 1288Q978 1123 993 896Q1020 506 796 195Q669 58 591 36Q524 11 493 8L442 4Q426 3 412 4Q390 1 368 1Q211 1 101 187Q9 357 9 584Q9 977 253 1271Q381 1390
459 1414ZM603 1283Q536 1283 464 1237Q341 1158 280 906T218 647L203 548Q203 545 207 545L203 530V477Q203 470 207 464Q207 462 203 462Q216 342 274 255Q334 176 410 160Q494 148 583 214Q700 301 744 556T788 820L796 919Q796 924 793 922L795 939L792 991Q791
998 788 1003Q788 1006 791 1006Q770 1125 705 1208Q658 1262 603 1283Z" />
<glyph unicode="P" glyph-name="P" horiz-adv-x="941" d="M276 486Q247 234 203 90Q171 25 126 25H106Q54 25 19 97L10 142Q0 269 52 567Q89 756 103 974Q106 1055 106 1069H108Q108 1071 105 1071Q116 1193 139 1431Q136 1478 185 1507Q207 1511 224 1511Q313
1511 324 1433Q329 1436 335 1439Q444 1481 543 1484Q716 1490 844 1366Q952 1252 958 1095Q970 825 707 614Q559 521 471 506Q396 489 363 488L305 486Q290 485 276 486ZM324 1317Q315 903 290 618Q376 587 472 630Q606 688 667 864T728 1045L742 1113Q742 1115
737 1115L741 1126L740 1162Q740 1167 735 1171Q735 1173 739 1173Q722 1255 654 1313Q568 1378 456 1375Q394 1373 324 1317Z" />
<glyph unicode="Q" glyph-name="Q" horiz-adv-x="1036" d="M607 234Q705 328 744 557Q788 812 788 820L796 919Q796 924 793 922L795 939L792 991Q791 998 788 1003Q788 1006 791 1006Q770 1125 705 1208Q658 1262 603 1283Q536 1283 464 1237Q341 1158 280 906T218
647L203 548Q203 545 207 545L203 530V477Q203 470 207 464Q207 462 203 462Q216 342 274 255Q334 176 410 160Q457 153 505 171Q502 175 499 179L607 234ZM606 41Q599 38 591 36Q524 11 493 8L442 4Q426 3 412 4Q390 1 368 1Q211 1 101 187Q9 357 9 584Q9 977
253 1271Q381 1390 459 1414Q529 1450 597 1454Q752 1465 873 1288Q978 1123 993 896Q1020 506 796 195Q779 177 764 161L905 -42Q924 -96 892 -116L878 -124Q841 -147 771 -120L737 -96Q684 -52 606 41Z" />
<glyph unicode="R" glyph-name="R" horiz-adv-x="938" d="M324 1317Q315 903 290 618Q376 587 472 630Q606 688 667 864T728 1045L742 1113Q742 1115 737 1115L741 1126L740 1162Q740 1167 735 1171Q735 1173 739 1173Q722 1255 654 1313Q568 1378 456 1375Q394
1373 324 1317ZM290 486Q283 485 276 486Q247 234 203 90Q171 25 126 25H106Q54 25 19 97L10 142Q0 269 52 567Q89 756 103 974Q106 1055 106 1069H108Q108 1071 105 1071Q116 1193 139 1431Q136 1478 185 1507Q207 1511 224 1511Q313 1511 324 1433Q329 1436 335
1439Q444 1481 543 1484Q716 1490 844 1366Q952 1252 958 1095Q970 825 707 614Q570 528 484 509Q655 310 761 0Q774 -70 740 -93L725 -103Q687 -130 620 -89L588 -56Q508 44 304 460Q295 472 290 486Z" />
<glyph unicode="S" glyph-name="S" horiz-adv-x="847" d="M-8 686T48 1002T299 1398T663 1450Q765 1418 792 1321T714 1261T454 1265T266 998T522 769T839 541Q859 352 707 184Q534 1 334 1Q218 1 104 56Q7 118 -16 245L-10 252Q130 154 255 154Q385 154 499 252Q590
337 629 456Q625 456 626 458Q631 464 631 471Q643 641 318 663Z" />
<glyph unicode="T" glyph-name="T" horiz-adv-x="1052" d="M501 1460Q512 1474 529 1485Q549 1489 564 1489Q616 1489 639 1457Q670 1457 702 1458Q765 1462 776 1464V1461Q777 1462 777 1464Q872 1465 1057 1465Q1093 1472 1118 1429Q1123 1409 1124 1394Q1129
1309 1062 1296Q836 1275 654 1266Q635 392 545 68Q516 3 475 3H457Q410 3 378 75L370 120Q361 247 408 545Q442 734 454 952Q457 1033 457 1047H459Q459 1049 456 1049Q463 1129 474 1260Q177 1256 26 1293Q-26 1316 -29 1357L-30 1374Q-33 1422 21 1459L55 1472Q152
1491 385 1470Q442 1463 501 1460Z" />
<glyph unicode="U" glyph-name="U" horiz-adv-x="991" d="M795 9Q726 7 724 95Q701 397 696 496L691 495Q664 416 590 287Q457 78 284 88T60 165T10 361T94 755Q176 1075 172 1240V1251Q166 1442 191 1481Q252 1506 299 1384Q312 1334 314 1301L316 1243Q318 1154
237 781Q199 547 184 420T282 276T472 338Q498 364 528 420Q544 444 657 777Q759 1081 845 1432Q869 1496 902 1497H916Q954 1498 977 1426L983 1382Q988 1255 923 956Q891 766 876 548Q872 466 872 452H869Q869 450 872 450Q861 329 858 90Q861 43 823 13Q807
9 795 9Z" />
<glyph unicode="V" glyph-name="V" horiz-adv-x="928" d="M470 -4T345 7T155 137T61 430T24 1052V1069Q43 1283 13 1360T79 1436T206 1268Q219 1195 219 1147L220 1061Q220 932 230 799T266 524T317 319T426 370Q455 407 753 1314Q781 1408 816 1408H832Q872 1408
895 1303L901 1238Q901 1053 686 525Z" />
<glyph unicode="W" glyph-name="W" horiz-adv-x="1493" d="M729 836Q690 706 634 545Q445 0 336 11T169 145T87 447T54 1088V1106Q72 1327 45 1406T102 1484T213 1312Q225 1236 225 1186L226 1099Q226 965 235 827T266 544T310 334T406 386Q431 425 692 1359Q700
1390 709 1411Q696 1473 771 1471Q857 1468 882 1299Q894 1222 894 1173L895 1085Q895 952 904 814T935 530T979 320T1075 372Q1100 411 1361 1345Q1386 1443 1416 1443H1430Q1466 1443 1486 1335L1490 1267Q1491 1076 1303 531T1005 -3T838 132T755 434Q738 562
729 836Z" />
<glyph unicode="X" glyph-name="X" horiz-adv-x="963" d="M342 539L275 437Q221 352 192 283L186 268Q95 7 16 5T-54 180Q-42 248 -24 290L6 362Q47 454 275 755Q172 1082 90 1220Q18 1351 99 1421Q146 1463 232 1433Q269 1414 294 1375Q366 1271 430 960Q614
1211 686 1356Q765 1506 850 1470Q900 1449 908 1347Q906 1300 885 1251Q823 1109 568 832Q526 781 488 734Q508 668 528 610L576 484Q613 402 650 347L659 336Q812 152 766 74T584 71Q537 108 515 140L476 196Q430 262 342 539Z" />
<glyph unicode="Y" glyph-name="Y" horiz-adv-x="904" d="M374 530L313 431Q265 346 239 279L235 264Q159 7 80 5T0 177Q8 245 24 285L49 356Q84 447 295 744Q171 1065 81 1201Q1 1330 78 1399Q122 1440 210 1410Q248 1392 276 1353Q354 1252 437 945Q606 1192
669 1335Q739 1482 826 1447Q878 1427 891 1326Q892 1280 874 1232Q821 1092 583 819Q544 769 508 723L374 530Z" />
<glyph unicode="Z" glyph-name="Z" horiz-adv-x="1115" d="M847 1188Q668 1189 509 1196Q82 1214 49 1271T82 1387Q122 1414 150 1421L198 1434Q860 1363 978 1381Q1086 1394 1101 1299Q1108 1246 1105 1154Q995 984 257 165Q553 152 921 213Q1008 217 1045 172T1034
63Q1009 39 975 30Q878 5 517 -34T37 -3Q9 57 21 210L847 1188Z" />
<glyph unicode="[" glyph-name="bracketleft" horiz-adv-x="426" d="M384 1617Q-193 803 140 -216L270 -119Q-30 709 452 1537L384 1617Z" />
<glyph unicode="\" glyph-name="backslash" horiz-adv-x="634" d="M0 1434L444 7H605L140 1434H0Z" />
<glyph unicode="]" glyph-name="bracketright" horiz-adv-x="495" d="M83 -238Q649 583 304 1598L176 1500Q485 675 13 -158L83 -238Z" />
<glyph unicode="^" glyph-name="asciicircum" horiz-adv-x="1014" />
<glyph unicode="_" glyph-name="underscore" horiz-adv-x="1024" />
<glyph unicode="`" glyph-name="grave" horiz-adv-x="328" d="M156 1481T72 1411T121 1164T300 1055T251 1302Z" />
<glyph unicode="a" glyph-name="a" horiz-adv-x="697" d="M576 885Q553 882 525 880Q300 859 242 740T170 538T142 328T211 182T353 241Q373 267 396 322Q408 345 576 885ZM664 919Q670 904 675 882L678 837Q679 710 655 444Q650 362 650 348H648Q648 346 650
346Q640 225 634 -14Q634 -61 606 -90Q594 -94 585 -94Q535 -94 534 -7Q523 296 521 394H517Q496 316 439 188Q337 -19 209 -6T45 75T-13 265T-13 526T64 780T298 967T615 971Q674 940 664 919Z" />
<glyph unicode="b" glyph-name="b" horiz-adv-x="778" d="M138 146Q152 111 180 114Q405 135 463 254T534 457T560 667T490 812T349 753Q329 727 306 672Q294 649 138 146ZM41 74Q35 89 30 110L27 155Q25 282 48 548Q52 630 52 644H54Q54 646 52 646Q62 768 139
1339Q138 1386 166 1415Q178 1419 187 1419Q237 1419 282 1332Q248 844 223 771L234 760Q240 783 262 805Q364 1013 492 1001T656 921T715 731T716 470T641 216T407 27T90 22Q31 52 41 74Z" />
<glyph unicode="c" glyph-name="c" horiz-adv-x="545" d="M409 1030H447Q523 1030 549 946T500 902T335 887T203 650T159 464L148 393Q148 391 151 391L148 380V342Q148 337 151 333Q151 331 148 331Q157 245 199 183Q253 112 325 112Q396 112 485 183L487 178Q460
86 401 41Q330 1 266 1Q154 1 75 134Q9 256 9 419Q9 700 184 911Q282 1002 339 1015Q388 1030 409 1030Z" />
<glyph unicode="d" glyph-name="d" horiz-adv-x="758" d="M538 634T528 723T472 863T338 892T229 723T199 479T215 243T432 163Q459 160 482 200Q538 634 528 723ZM687 -167T535 45Q382 -25 220 49T35 238T25 492T92 754T200 943T385 1023T563 906Q580 884 580
861L594 872Q588 867 679 1355Q746 1442 796 1442Q805 1442 815 1438Q836 1409 824 1362Q754 791 733 669Q731 669 730 667H732Q729 653 712 571Q667 250 664 120Q687 -167 535 45Z" />
<glyph unicode="e" glyph-name="e" horiz-adv-x="545" d="M383 1030H418Q489 1030 538 954Q559 911 559 869V832Q559 714 387 598Q309 546 197 515Q150 506 150 501L139 435Q139 433 141 433L139 422V387Q139 383 141 379Q141 377 139 377Q148 297 187 238Q237
172 305 172Q371 172 453 238L455 234Q431 148 375 106Q309 69 249 69Q144 69 71 193Q9 307 9 460Q9 721 172 918Q264 1004 317 1016Q363 1030 383 1030ZM168 625H170Q262 641 338 697Q443 778 443 852Q443 900 379 914H362Q304 914 224 788Q172 682 172 641Q169
641 168 625Z" />
<glyph unicode="f" glyph-name="f" horiz-adv-x="418" d="M320 952V950Q321 950 320 952ZM320 952Q367 954 458 956Q475 962 492 932Q496 918 498 907Q510 847 478 836Q383 820 303 812Q293 698 290 558Q263 -65 220 -193Q205 -237 179 -269Q114 -330 67 -315Q-13
-289 23 -144Q66 11 127 640Q133 728 138 802Q31 801 -32 821Q-59 836 -65 865L-67 878Q-74 911 -51 939L-36 948Q10 963 127 951Q139 949 151 948Q169 1131 189 1190L211 1255Q223 1292 256 1344Q354 1465 505 1415Q580 1391 651 1291L650 1288L639 1292Q621 1298
603 1306Q437 1360 365 1147L361 1134Q336 1060 320 952Z" />
<glyph unicode="g" glyph-name="g" horiz-adv-x="712" d="M648 347Q649 346 650 346L648 347ZM464 246Q453 218 439 188Q337 -19 209 -6T45 75T-13 265T-13 526T64 780T298 967T615 971Q674 940 664 919Q670 904 675 882L676 869Q678 869 680 868L652 397Q650
357 650 348H648V347L645 348Q636 281 627 206Q584 -77 546 -177L522 -242Q508 -279 472 -332Q369 -452 220 -403Q146 -379 80 -279L81 -277L92 -281Q110 -286 127 -295Q291 -348 372 -134L377 -121Q443 53 464 246ZM488 605Q521 841 535 885Q512 882 484 880Q300
859 242 740T170 538T142 328T211 182T353 241Q373 267 396 322Q404 338 488 605Z" />
<glyph unicode="h" glyph-name="h" horiz-adv-x="752" d="M123 1399Q173 1399 173 1311Q204 934 159 584H163Q185 663 241 791Q345 997 472 984T636 902T668 705T602 268V256Q602 65 705 65Q717 67 728 67H735V65Q677 3 630 3Q537 3 505 126Q496 176 496 209V268Q496
357 510 440T538 649T469 795T328 737Q308 711 284 656Q272 633 101 90Q82 25 58 25H47Q19 25 3 97L0 142Q0 269 25 536Q30 617 30 631H32Q32 633 30 633Q41 755 74 1319Q74 1366 102 1395Q114 1399 123 1399Z" />
<glyph unicode="i" glyph-name="i" horiz-adv-x="435" d="M147 1032T224 1036Q270 1039 310 962Q323 924 323 878Q322 743 282 627T194 312V298Q192 73 355 81Q373 84 391 85L402 86V84Q310 6 236 2Q89 -5 38 137Q25 196 25 235L26 303Q56 481 78 606T135 884Q147
1032 224 1036ZM294 1350T325 1320T356 1246Q356 1203 325 1173T251 1143Q207 1143 177 1173T146 1246Q146 1289 176 1319T251 1350Q294 1350 325 1320Z" />
<glyph unicode="j" glyph-name="j" horiz-adv-x="435" d="M399 877Q356 721 333 385Q306 -65 273 -165L251 -230Q239 -267 206 -320Q108 -440 -43 -391Q-118 -367 -189 -267L-188 -265L-177 -269Q-159 -274 -141 -283Q25 -336 96 -122L100 -109Q161 75 169 467Q159
796 202 925Q216 968 242 1001Q307 1062 354 1047Q434 1021 399 877ZM388 1381T423 1344T458 1253Q458 1200 423 1163T339 1125Q289 1125 254 1162T219 1253Q219 1306 254 1343T339 1381Q388 1381 423 1344Z" />
<glyph unicode="k" glyph-name="k" horiz-adv-x="870" d="M198 465Q190 378 193 312L194 298Q222 59 164 27T47 137Q31 196 29 235L25 303Q20 408 106 850Q166 1180 166 1342Q170 1490 247 1494Q293 1497 336 1420Q352 1382 354 1336Q361 1201 272 886Q234 723
214 593L375 736Q471 826 544 908Q615 1022 678 1008T699 891Q676 844 644 799Q575 664 433 570Q409 547 377 510Q437 426 568 288L574 277Q675 88 817 183Q832 196 848 206L857 212L858 211Q811 95 746 52Q617 -35 508 57Q469 99 451 132L421 190Q319 392 198
465Z" />
<glyph unicode="l" glyph-name="l" horiz-adv-x="435" d="M170 1490T247 1494Q293 1497 336 1420Q352 1382 354 1336Q361 1201 272 886Q183 506 193 312L194 298Q205 73 367 81Q385 84 403 85L414 86V84Q326 6 252 2Q105 -5 47 137Q31 196 29 235L25 303Q20 408
106 850Q166 1180 166 1342Q170 1490 247 1494Z" />
<glyph unicode="m" glyph-name="m" horiz-adv-x="1095" d="M115 1050Q172 1050 177 989Q207 779 214 710H218Q238 765 294 854Q397 997 504 997Q601 997 635 601L637 568Q750 711 849 805Q930 878 985 878Q1017 878 1049 832Q1061 809 1063 782Q1070 702 1011
520Q954 298 964 184L965 176Q976 43 1091 43Q1104 45 1116 45H1124V43Q1063 0 1011 0Q907 0 863 85Q851 120 849 143L845 184Q840 246 894 503Q932 696 930 725Q925 743 919 743H911Q877 743 833 675Q738 558 660 398Q627 323 598 208Q588 143 584 92Q571 47 534
47H530Q491 47 486 101Q490 397 489 415Q489 417 490 419L488 422Q490 511 485 625L473 762Q467 835 418 835Q388 829 365 790Q353 774 256 514Q183 305 124 62Q106 18 79 18H67Q36 18 14 68L8 99Q0 187 43 394Q63 526 67 677Q68 733 68 743H70Q69 744 67 744Q72
829 66 995Q63 1027 92 1047Q106 1050 115 1050Z" />
<glyph unicode="n" glyph-name="n" horiz-adv-x="697" d="M97 1073Q147 1073 147 985Q158 683 159 584H163Q185 663 241 791Q345 997 472 984T636 902T668 705T602 268V256Q602 65 705 65Q717 67 728 67H735V65Q677 3 630 3Q537 3 505 126Q496 176 496 209V268Q496
357 510 440T538 649T469 795T328 737Q308 711 284 656Q272 633 101 90Q82 25 58 25H47Q19 25 3 97L0 142Q0 269 25 536Q30 617 30 631H32Q32 633 30 633Q41 755 48 993Q48 1040 76 1069Q88 1073 97 1073Z" />
<glyph unicode="o" glyph-name="o" horiz-adv-x="726" d="M332 1013Q381 1039 430 1042Q541 1050 628 923Q703 805 714 642Q733 363 573 140Q482 42 426 26Q378 8 356 6L319 3Q308 2 298 3Q282 1 266 1Q154 1 75 134Q9 256 9 419Q9 700 184 911Q276 996 332 1013ZM435
919Q387 920 335 887Q247 830 203 650T159 464L148 393Q148 391 151 391L148 380V342Q148 337 151 333Q151 331 148 331Q157 245 199 183Q242 127 296 115Q356 106 420 154Q504 216 535 399T567 588L573 659Q573 662 571 661L572 673L570 710Q569 715 567 719Q567
721 569 721Q554 806 508 866Q474 905 435 919Z" />
<glyph unicode="p" glyph-name="p" horiz-adv-x="807" d="M255 363T265 274T321 134T454 105T564 274T594 518T578 754T361 834Q334 837 311 797Q255 363 265 274ZM105 1164T258 952Q411 1022 573 948T758 759T768 505T701 243T593 54T408 -26T229 91Q213 113
213 136L199 125Q205 130 114 -358Q47 -445 -3 -445Q-12 -445 -23 -441Q-43 -412 -31 -365Q39 206 60 328Q62 328 63 330H61Q64 344 81 426Q126 747 129 877Q105 1164 258 952Z" />
<glyph unicode="q" glyph-name="q" horiz-adv-x="781" d="M619 880Q606 915 578 912Q353 891 295 772T224 569T198 359T267 214T409 273Q429 299 451 354Q463 377 619 880ZM717 952Q723 937 728 916L731 871Q732 744 710 478Q705 396 705 382H703Q703 380 705
380Q696 258 619 -313Q619 -360 591 -389Q579 -393 570 -393Q520 -393 476 -306Q509 182 534 255L523 266Q517 243 495 221Q394 13 266 25T102 105T42 295T42 556T117 810T351 999T667 1004Q726 974 717 952Z" />
<glyph unicode="r" glyph-name="r" horiz-adv-x="692" d="M97 1073Q147 1073 147 985Q158 683 159 584H163Q185 663 241 791Q345 997 472 984T636 902T612 805T469 795T328 737Q308 711 284 656Q272 633 101 90Q82 25 58 25H47Q19 25 3 97L0 142Q0 269 25 536Q30
617 30 631H32Q32 633 30 633Q41 755 48 993Q48 1040 76 1069Q88 1073 97 1073Z" />
<glyph unicode="s" glyph-name="s" horiz-adv-x="651" d="M-10 498T30 728T212 1015T477 1053Q551 1030 570 959T514 915T325 919T189 725T374 559T605 393Q619 256 509 134Q383 1 238 1Q154 1 71 41Q1 86 -16 178L-12 183Q90 112 181 112Q275 112 358 183Q424
245 452 331Q449 331 450 333Q454 337 454 342Q463 465 227 481Z" />
<glyph unicode="t" glyph-name="t" horiz-adv-x="513" d="M184 1022Q201 1141 201 1218Q204 1353 282 1356Q328 1358 371 1289Q387 1254 389 1213Q393 1143 366 1019Q394 1020 423 1023Q468 1028 475 1030V1028Q476 1028 476 1031Q543 1035 674 1041Q699 1048
718 1017Q721 1002 722 991Q728 927 681 915Q480 885 327 871Q318 839 307 804Q218 459 228 283V271Q239 67 402 74Q420 77 437 78H448V76Q361 5 287 2Q140 -5 82 124Q65 178 63 213L60 276Q55 371 140 772Q150 819 158 862Q27 859 -51 875Q-88 890 -91 921L-92
934Q-95 969 -58 999L-34 1010Q31 1027 184 1022Z" />
<glyph unicode="u" glyph-name="u" horiz-adv-x="697" d="M585 -94Q534 -94 534 -7Q522 296 520 394H517Q495 316 439 188Q337 -19 209 -6T45 75T12 272T76 709V721Q90 868 69 921T94 974T173 852Q182 801 182 768L183 710Q183 621 169 538T142 328T211 182T352
241Q372 267 396 322Q408 345 577 889Q596 954 620 954H631Q659 954 675 882L678 837Q679 710 654 444Q649 362 650 348H648Q648 346 650 346Q640 225 633 -14Q634 -61 606 -90Q594 -94 585 -94Z" />
<glyph unicode="v" glyph-name="v" horiz-adv-x="622" d="M324 -1T238 6T108 96T43 297T18 724V736Q31 883 10 936T55 988T143 873Q152 822 152 789V731Q152 642 159 550T184 361T219 221T294 256Q314 282 518 904Q538 969 562 969H572Q600 969 616 897L620 852Q620
725 472 362Z" />
<glyph unicode="w" glyph-name="w" horiz-adv-x="1230" d="M579 556Q549 469 505 362Q357 -1 271 6T140 96T76 297T50 724V736Q64 883 43 936T88 988T175 873Q184 822 184 789L185 731Q185 642 192 550T216 361T251 221T326 256Q346 282 551 904Q557 925 564 939Q554
980 613 979Q680 977 700 864Q709 813 709 780L710 722Q710 633 717 541T741 352T776 212T851 247Q871 273 1076 895Q1095 960 1119 960H1130Q1158 960 1174 888L1177 843Q1178 716 1030 353T796 -3T665 87T601 288Q587 373 579 556Z" />
<glyph unicode="x" glyph-name="x" horiz-adv-x="705" d="M179 470Q163 514 152 548Q115 664 77 811Q20 942 88 988Q128 1015 198 972Q227 947 248 909Q308 795 325 676Q326 668 328 659Q344 680 358 696Q449 803 504 897Q575 1011 638 997T659 880Q636 833 604
788Q535 653 430 525Q406 502 374 465Q397 415 447 285L453 274Q554 85 696 180Q711 193 727 203L736 209L737 208Q690 92 625 49Q496 -38 387 54Q348 96 330 129L300 187Q263 269 251 288Q166 161 100 84T-45 -7T-40 154Q-3 221 24 259L71 327Q130 406 179 470Z"
/>
<glyph unicode="y" glyph-name="y" horiz-adv-x="766" d="M635 53Q634 21 633 -14Q634 -43 623 -66Q613 -113 598 -157L577 -222Q564 -259 531 -312Q434 -432 283 -383Q207 -359 137 -259V-257L149 -261Q167 -266 185 -275Q351 -328 443 -111L447 -98Q476 -6 489
310Q469 256 439 188Q337 -19 209 -6T45 75T12 272T76 709V721Q90 868 69 921T94 974T173 852Q182 801 182 768L183 710Q183 621 169 538T142 328T211 182T352 241Q372 267 396 322Q404 338 491 615Q497 784 524 868Q539 911 565 944Q630 1005 677 990Q757 964
721 820Q679 664 655 328Q645 168 635 53Z" />
<glyph unicode="z" glyph-name="z" horiz-adv-x="727" d="M44 299L545 820L335 822Q36 835 13 875T56 978Q84 997 104 1002L138 1011Q602 961 685 974Q761 983 771 916Q776 813 737 754T192 192Q569 219 648 238Q709 241 735 191T727 97Q710 80 686 74Q618 56
317 45T8 104Q-20 205 44 299Z" />
<glyph unicode="{" glyph-name="braceleft" horiz-adv-x="426" d="M384 1617Q-193 803 140 -216L270 -119Q-30 709 452 1537L384 1617Z" />
<glyph unicode="|" glyph-name="bar" horiz-adv-x="409" d="M242 1496L27 -89H188L382 1496H242Z" />
<glyph unicode="}" glyph-name="braceright" horiz-adv-x="495" d="M83 -238Q649 583 304 1598L176 1500Q485 675 13 -158L83 -238Z" />
<glyph unicode="~" glyph-name="asciitilde" horiz-adv-x="1014" />
</font>
</defs>
</svg>
