<?xml version="1.0" standalone="no"?>
<!DOCTYPE svg PUBLIC "-//W3C//DTD SVG 1.1//EN" "http://www.w3.org/Graphics/SVG/1.1/DTD/svg11.dtd" >
<svg xmlns="http://www.w3.org/2000/svg" xmlns:xlink="http://www.w3.org/1999/xlink" version="1.1">
<metadata></metadata>
<defs>
<font id="worstveld_slingregular" horiz-adv-x="755" >
<font-face units-per-em="2048" ascent="1638" descent="-410" />
<missing-glyph horiz-adv-x="509" />
<glyph horiz-adv-x="0" />
<glyph horiz-adv-x="682" />
<glyph horiz-adv-x="782" d="M72 -14q6 -12 24 -13h8q4 2 7.5 3t5.5 4q12 4 23.5 12t15.5 18q2 4 3 7t3 8q0 4 -4 4q-8 4 -8 12q10 23 32.5 58.5t55.5 84.5q45 66 96 141.5t110 161.5l68 99q43 61 88 122.5t88 120.5q4 4 9 10.5t10 14.5l2 2q4 8 8 15.5t8 11.5q-8 2 -16 2h-17l-2 -1t-4 -3 q-29 -2 -41 -19q-29 -39 -75 -106.5t-105 -157.5l-25 -37q-14 -23 -30.5 -46t-32.5 -46q-41 -59 -76 -110.5t-59 -88.5q-12 -18 -32 -46.5t-38 -59.5q-10 -14 -17.5 -27.5t-15.5 -25.5q-20 -35 -36.5 -65t-22.5 -50q-2 -4 -8 -10z" />
<glyph horiz-adv-x="1003" d="M72 537l164 8q4 -16 9 -30.5t11 -31.5q20 -47 34.5 -115.5t18.5 -134.5q2 -29 1 -84t-8 -120.5t-22.5 -131t-46.5 -112.5q10 -12 35 -11t37 5q14 39 30.5 100.5t28 131t15.5 140t-2 128.5q-4 35 -12.5 76.5t-26.5 103.5q-8 23 -14.5 44t-14.5 44l62 4q51 4 116.5 3 t126.5 1q-8 -35 -12 -109.5t-4 -158.5q0 -82 4 -158t12 -113q20 -25 46 -27.5t53 -2.5l6 13t2 44q-2 8 -16.5 10t-18.5 8q-8 10 -10 47t-2 80v80v51q-2 41 -3 104.5t13 133.5q4 10 6 19.5t6 19.5l-331 -2h-72q-23 66 -36 135.5t-3 165.5q0 68 32.5 108.5t85 58t118 14.5 t130 -24.5t121 -58.5t93.5 -84q16 -23 20 -27.5t10 -15.5q23 -43 21 -63.5t-58 -9.5q-4 -6 -2 -9.5t0 -11.5q20 -18 53.5 -11t47.5 15q23 12 20.5 39t-15.5 54.5t-31.5 53t-29.5 35.5l-32 33q-51 51 -123 85t-150 44t-153.5 -5t-137.5 -60q-53 -41 -78.5 -85t-23.5 -110 q2 -86 14.5 -148.5t30.5 -117.5h-135q-4 -16 -5 -28.5t-5 -28.5zM630 804q1 -50 1 -83q12 -8 33.5 -10t31.5 10q4 31 12.5 80t8.5 80q-10 10 -35 7t-37 -5q-16 -29 -15 -79z" />
<glyph horiz-adv-x="1034" d="M72 537l161 6q29 -80 46.5 -141.5t24.5 -120t5 -123t-10 -150.5q14 -10 33 -10q20 0 37 4q2 18 5 37.5t5 38.5q14 127 -8.5 237.5t-61.5 231.5l156 4l156 4q2 -59 4 -120.5t0 -121.5q-2 -100 21.5 -171.5t60 -115.5t82 -61.5t85 -11.5t68.5 35t35 78l-23 22 q-4 -4 -9 -18.5t-15 -29.5t-27.5 -27.5t-42.5 -12.5q-66 0 -98.5 45t-46 109.5t-15.5 133t-4 118.5q0 12 -1 40.5t-2 59.5t-1 57q0 27 4 33h-4v76q0 39 2 78q0 20 -16 86.5t-53 148.5t-93.5 164t-134.5 135q-20 -2 -36.5 -18.5t-26.5 -32.5q123 -111 183.5 -210t83 -180 t20 -144.5t0.5 -102.5l-326 -2q-23 72 -37 148.5t-4 152.5q6 63 39 104t78 61.5t100 23.5t108.5 -10t98.5 -38.5t74 -62.5q33 -43 43 -84t-1.5 -69.5t-39 -43t-68.5 -6.5l-205 64q49 -41 98.5 -60.5t91.5 -26t71.5 -2t39.5 10.5q51 29 59.5 75t-5 92t-40 82.5t-40.5 49.5 q-133 94 -244 93t-238 -93q-53 -39 -77.5 -84t-24.5 -111q0 -68 12.5 -134.5t32.5 -131.5h-135q-4 -14 -5 -28.5t-5 -28.5z" />
<glyph unicode=" "  horiz-adv-x="509" />
<glyph unicode="&#x09;" horiz-adv-x="509" />
<glyph unicode="&#xa0;" horiz-adv-x="509" />
<glyph unicode="!" horiz-adv-x="249" d="M72 -6q10 -10 35.5 -7t37.5 5q16 29 14.5 58.5t-1.5 62.5q-12 8 -34 10t-32 -10q-4 -31 -12 -59.5t-8 -59.5zM91 356.5q-3 -32.5 3 -39.5q4 -4 15.5 -6t23.5 -2q14 0 25.5 2t17.5 4q6 20 9 74.5t5.5 124.5t1 148.5t-3.5 150.5t-6 128t-8 81h2q-10 12 -19.5 13t-17.5 -4 t-18 -10t-23 -5q8 -10 11.5 -53t4.5 -93.5t1 -95.5v-55q2 -80 -3.5 -150.5t-11.5 -125t-9 -87z" />
<glyph unicode="&#x22;" horiz-adv-x="425" d="M72 1137q8 -37 17 -63.5t13 -51.5t1 -51.5t-15 -63.5q-2 -6 -5 -11l-9 -15q18 -23 24 -22t23 26q14 25 24.5 60.5t14.5 73.5t2 73.5t-10 64.5q-8 8 -19.5 14.5t-30.5 6.5q-10 -12 -16 -18.5t-14 -22.5zM276 1137q8 -37 17.5 -63.5t13.5 -51.5t1 -51.5t-15 -63.5 q-2 -6 -5 -11l-9 -15q18 -23 24 -22t23 26q14 25 24 60.5t14.5 73.5t2 73.5t-10.5 64.5q-8 8 -19 14.5t-30 6.5q-10 -12 -16 -18.5t-15 -22.5z" />
<glyph unicode="#" d="M72 274h157v-225q16 4 39 14q2 45 3 99.5t1 111.5h131h76v-225q16 4 39 14q2 45 3 100.5t1 110.5l164 2q4 16 6 29t6 29l-174 -8l2 116l2 78l158 2q4 16 6 28.5t6 29.5l-168 -9l11 234q-16 -4 -29.5 -7t-30.5 -7v-222l-84 -4q-25 -2 -55 -2h-61l10 242q-16 -4 -29.5 -7 t-30.5 -7v-230q-41 0 -77.5 -1t-69.5 -1q-4 -10 -6 -19.5t-6 -19.5h159v-71l-2 -134q-39 0 -75.5 -1t-69.5 -1q-4 -10 -6 -19t-6 -20zM274 317q0 35 1 66t1 59l3 78h124h78v-71v-125l-84 -5q-27 -2 -57 -2h-66z" />
<glyph unicode="$" horiz-adv-x="966" d="M73.5 294.5q12.5 -40.5 56.5 -84.5t113.5 -85t149.5 -68l4 -46t4 -40h58l-4 70q31 -6 62.5 -10t62.5 -4q2 -16 3 -30.5t3 -25.5h57l-4 60q53 8 103.5 28.5t91.5 57.5q51 45 67 93t2 114q0 8 -4 24q-10 33 -37.5 65.5t-67.5 63.5t-89.5 59.5t-102.5 55.5q-2 16 -2 29v28 q0 72 -1 144.5t-1 144.5v20t2 23q49 -4 92 -16.5t76 -36.5l37 24q-33 31 -85 48.5t-116 23.5q2 18 3 35.5t3 30.5q-2 6 -9 7t-15 -1t-15.5 -6.5t-11.5 -4.5q-2 -8 -5 -16t-3 -18q-2 -6 -2 -25q-68 4 -129 -6q2 20 3 38.5t3 31.5q-2 6 -9 7t-15.5 -1t-15.5 -6.5t-11 -4.5 l-4 -16t-4 -18q-2 -8 -2 -19v-22q-98 -23 -163 -69t-52 -114q8 -41 28.5 -69.5t48 -52t61.5 -42t68 -38.5l6 -2q2 -59 4.5 -111.5t5.5 -105t6 -108.5t7 -124q0 -8 1 -23.5t3 -35.5q-61 16 -114.5 41.5t-88.5 58.5q-18 16 -37.5 41t-27.5 46.5t5 33.5t62 2q6 8 14.5 10 t12.5 12q-29 12 -63.5 14.5t-57.5 -14.5q-33 -25 -20.5 -65.5zM221 823q-4 39 36 72t105 55q-2 -61 -1 -128.5t1 -102.5v-8q-59 33 -98 60.5t-43 51.5zM414 938v27q70 16 133 16v-70v-73v-70v-49v-98q-35 16 -68 31.5t-63 31.5q0 66 -1 128t-1 126zM418 592l45 -27 q18 -10 40.5 -21.5t47.5 -21.5q4 -84 9 -162.5t9 -185.5q2 -10 2 -33q0 -22 4 -51q-59 -2 -124 10l-15 181q-4 70 -10 151.5t-8 159.5zM606 496q37 -18 75 -39t67.5 -44.5t50 -50t24.5 -57.5q12 -100 -44 -149.5t-144 -61.5l-14 187q-4 47 -7.5 102t-7.5 113z" />
<glyph unicode="%" horiz-adv-x="1064" d="M74 627q8 -55 44 -90t82 -48.5t98 -5t96 36t73 76.5t29 119q0 63 -34 100t-85 49.5t-108.5 1t-104.5 -42t-74 -81t-16 -115.5zM145.5 610.5q-16.5 59.5 0 104.5t49 71.5t74.5 37t80 1t63.5 -38t25.5 -75.5q0 -74 -40 -121t-90 -62.5t-98 4t-64.5 79zM219 -20l2 -3 q10 0 29 7q29 8 43 30q6 6 9 11.5t9 13.5q57 102 127 221t150 260q45 78 91 159t95 167q4 6 11.5 19.5t15.5 27.5q10 16 17 29.5t11 21.5q-4 2 -9 3t-19 1q-23 0 -34 -2t-15 -6t-3 -7t-4 -5q-18 -43 -48.5 -104.5t-78.5 -143.5q-6 -14 -13 -28.5t-17 -28.5q-18 -35 -38 -70 l-40 -70q-29 -49 -53.5 -94t-46.5 -86q-31 -55 -52.5 -94t-35.5 -62q-10 -16 -21.5 -36.5t-26.5 -42.5q-18 -35 -34.5 -58.5t-20.5 -29.5zM586 217q8 -55 44 -90t82 -48t98 -5t96 35.5t73 76.5t29 119q0 63 -34 100t-85 49.5t-108.5 1t-104.5 -42t-74 -80.5t-16 -116z M657.5 200.5q-16.5 59.5 0 104.5t49 71.5t74.5 37t80 1.5t63.5 -38t25.5 -76q0 -74 -40 -121t-90 -62.5t-98 4t-64.5 79z" />
<glyph unicode="&#x26;" horiz-adv-x="1026" d="M72 244q0 -74 28.5 -129.5t75.5 -95t108.5 -65.5t127.5 -40q72 -16 157.5 -10t167.5 35q10 -53 12.5 -111.5t0.5 -130.5q-2 -76 -31 -122t-75 -66.5t-102.5 -16.5t-112.5 27.5t-106.5 64.5t-82.5 97q-16 25 -19.5 30.5t-7.5 16.5q-20 49 -18 71.5t51 12.5q4 8 2 11t0 13 q-18 18 -48 10t-40 -16q-18 -14 -17.5 -44t12 -61.5t27 -60.5t25.5 -41l31 -37q47 -55 109.5 -93t130 -49t134 5t119.5 68q47 47 69.5 96t20.5 123q0 68 -6 123t-16 104q94 45 143 115q16 23 31.5 58.5t18.5 71.5t-10 64.5t-56 38.5q-18 -16 -20.5 -31.5t3.5 -31t14.5 -30.5 t8.5 -34q-4 -59 -49 -101t-97 -67q-10 37 -19 73t-19 71q-18 55 -30.5 132t-17.5 150q-4 66 1.5 130.5t9.5 123.5q-10 14 -31 13.5t-31 -4.5q0 -16 -4 -50t-8 -86q-59 14 -123.5 37t-119 54.5t-86.5 75.5t-23 100q0 31 18.5 55t50 39.5t73.5 21.5t85 2q20 -31 51 -40 t57.5 -4t44 18.5t13.5 30t-37 29.5t-106 18q-43 2 -97.5 -2.5t-103.5 -22.5t-83 -53t-36 -92q-4 -57 15.5 -94t50.5 -70q43 -43 101 -61.5t116 -43.5q-49 6 -122 -7t-140.5 -51t-115.5 -102.5t-48 -162.5zM143 223q0 139 86 211t220 86q70 8 116.5 14.5t71.5 2.5 q-2 -31 -1 -67t5 -77t11 -87t24 -118q12 -53 25.5 -100t25.5 -96q-59 -20 -121.5 -29.5t-125 -4.5t-122 25.5t-110.5 59.5q-43 33 -74 78t-31 102z" />
<glyph unicode="'" horiz-adv-x="221" d="M72 1137q8 -37 17 -63.5t13 -51.5t1 -51.5t-15 -63.5q-2 -6 -5 -11l-9 -15q18 -23 24 -22t23 26q14 25 24.5 60.5t14.5 73.5t2 73.5t-10 64.5q-8 8 -19.5 14.5t-30.5 6.5q-10 -12 -16 -18.5t-14 -22.5z" />
<glyph unicode="(" horiz-adv-x="649" d="M72 414q0 -158 27.5 -269.5t74.5 -181t108.5 -98.5t129.5 -19q27 -4 38 6.5t8 23.5t-15.5 26.5t-30.5 13.5q-55 2 -104.5 42t-86.5 109.5t-58.5 167t-21.5 216.5q0 68 6.5 145.5t20.5 153t37.5 147.5t58.5 125t82 86t111 33q20 0 51 -2t53.5 2t29.5 17t-18 46 q-123 31 -217 -24.5t-157.5 -168t-95 -269t-31.5 -328.5z" />
<glyph unicode=")" horiz-adv-x="649" d="M73 -99.5q-7 -13.5 17 -45.5q123 -31 217 24t157.5 168t95.5 268.5t32 327.5q0 156 -27.5 268.5t-75 182t-109 98.5t-128.5 18q-29 4 -39 -6t-7 -23.5t15 -26.5t31 -13q55 -4 104.5 -43t86 -107.5t58 -167t21.5 -217.5q0 -100 -14 -221t-50 -225.5t-96.5 -174 t-154.5 -69.5q-23 0 -52.5 2t-52 -1t-29.5 -16.5z" />
<glyph unicode="*" horiz-adv-x="665" d="M72 965l5 -21q5 -22 15 -37q35 -10 60.5 -20t48 -21.5t45 -25t53.5 -27.5q-53 -27 -110.5 -52.5t-106.5 -41.5q-4 -10 -7 -31.5t1 -30.5l22 -7q21 -7 37 -5q27 25 48.5 42.5t42 30.5t43 26.5t50.5 31.5q-4 -59 -10 -120.5t-16 -112.5q8 -8 23.5 -22.5t25.5 -14.5l16 14 q17 15 25 31q-8 35 -12 62.5t-6.5 53t-2.5 50.5q0 27 -2 61q51 -35 101.5 -70.5t89.5 -70.5q10 4 31.5 10.5t25.5 14.5l-5 22q-5 21 -15 37q-35 10 -60.5 20.5t-48 20.5t-45 22.5t-53.5 28.5q53 29 110.5 54.5t106.5 41.5q4 10 7 31t-1 29l-22 7q-21 7 -37 7 q-27 -25 -48.5 -42t-42 -31.5t-43 -28t-51.5 -31.5q4 59 10.5 121.5t16.5 111.5q-8 8 -23.5 22.5t-25.5 14.5l-16 -14q-17 -14 -25 -31q8 -35 12 -62.5t6 -52t2 -51.5t2 -59q-51 33 -101 68.5t-89 70.5q-10 -4 -31.5 -10t-25.5 -14z" />
<glyph unicode="+" d="M72 397q74 4 147.5 7.5t147.5 7.5q-4 -78 -5 -158q0 -78 -2 -156q25 -4 41 -8q4 82 6.5 162t6.5 160q68 2 136 3t136 3q4 10 6 19.5t6 19.5h-282l10 264h-59q0 -66 -1 -132.5t1 -131.5l-283 -2q-4 -16 -6 -28.5t-6 -29.5z" />
<glyph unicode="," horiz-adv-x="284" d="M72 -176h2q33 -4 67.5 22.5t57 67.5t29 91t-18.5 91q-12 4 -29 10l-18 5l-14 -11q-15 -10 -25 -16q4 -6 9 -12t9 -17q16 -37 17.5 -70.5t-9 -62t-31 -53.5t-46.5 -45z" />
<glyph unicode="-" d="M72 397q74 4 150.5 7.5t150.5 7.5q68 2 156.5 3t156.5 3q4 10 6 19.5t6 19.5h-331l-283 -2q-4 -16 -6 -28.5t-6 -29.5z" />
<glyph unicode="." horiz-adv-x="229" d="M66 28.5q6 -28.5 16 -51.5q14 -8 42 -7t44 10q10 29 10 53t-6 53q-18 8 -50 6t-50 -12q-12 -23 -6 -51.5z" />
<glyph unicode="/" horiz-adv-x="739" d="M72 -20l2 -3q6 0 28 7q29 8 43 30q6 6 9.5 11.5t9.5 13.5q57 102 126.5 221t149.5 260q45 78 91.5 159t95.5 167q4 6 10 19.5t16 27.5q10 16 17.5 29.5t11.5 21.5q-4 2 -9 3t-20 1q-23 0 -34 -2t-15 -6t-3 -7t-3 -5q-18 -43 -50 -104.5t-77 -143.5q-8 -14 -15 -28.5 t-16 -28.5q-20 -35 -38.5 -70t-39.5 -70q-29 -49 -53 -94t-47 -86q-31 -55 -52.5 -94t-35.5 -62q-10 -16 -22.5 -36.5t-24.5 -42.5q-20 -35 -35.5 -58.5t-19.5 -29.5z" />
<glyph unicode="0" horiz-adv-x="872" d="M72 403q0 -143 40 -234t104.5 -135t144 -41t157.5 48t146.5 132t111.5 212q16 49 27.5 99.5t11.5 103.5t-7 109.5t-30 103.5q-35 78 -101.5 117.5t-137.5 54.5q-115 20 -203 -19t-146.5 -120.5t-88 -194.5t-29.5 -236zM137 430q0 74 13.5 160t46 161.5t89 126t144.5 50.5 q41 0 71.5 -1t69.5 -12q53 -14 85 -42.5t61 -88.5q23 -47 31 -99t8 -105q0 -100 -29 -190.5t-82 -170.5q-80 -123 -169 -156.5t-163.5 1t-125 131t-50.5 235.5z" />
<glyph unicode="1" horiz-adv-x="407" d="M72 748q57 12 97 23t62.5 3t30.5 -46t4 -122q-2 -51 -3 -82.5t-1 -56.5q0 -23 1 -40t2 -41t2 -55.5t3 -82.5v-58q0 -41 1 -90t3 -95t7 -66q10 0 34.5 -1t34.5 -1l-16 315q0 16 -1 55t-1 86v96v89v286q0 27 5 66t7 65l-11 5q-11 6 -22 4q-31 -68 -70.5 -109t-75.5 -63.5 t-61.5 -30.5t-25.5 -10l-4 -21q-4 -22 -2 -22z" />
<glyph unicode="2" horiz-adv-x="913" d="M73 725q-3 -33 8 -60.5t46 -35.5q16 16 17 30.5t-4 28.5t-12 28.5t-5 31.5q6 63 49 102t90 61q51 25 108.5 37.5t114 9t109.5 -23t98 -57.5q37 -31 62.5 -72t25.5 -94q0 -129 -68.5 -191.5t-222.5 -89.5q-14 -2 -45.5 -6t-73.5 -17.5t-87 -41t-86 -75.5t-74 -123 t-45 -183q-2 -6 -2 -23q2 0 44 9.5t94 21.5t97 23.5t54 13.5q100 20 186 2.5t156 -43.5q39 -14 58 -22.5t40 -8.5l16 25q18 6 21.5 12t13.5 22q-55 39 -145 57.5t-190.5 17.5t-201 -18.5t-178.5 -49.5q29 100 59.5 165.5t69.5 105.5t91.5 61.5t123.5 37.5q68 8 131.5 20.5 t113.5 43t81 84t31 145.5q0 68 -21.5 117t-58.5 84t-85 57.5t-104 36.5q-51 12 -116 12q-66 0 -131.5 -16t-123 -48t-87.5 -83q-14 -23 -26.5 -55.5t-15.5 -65.5z" />
<glyph unicode="3" horiz-adv-x="1050" d="M73 208q3 -36 18 -72t32 -58q39 -55 103.5 -93t138 -58.5t150.5 -23.5t138 11q66 14 127.5 40t108.5 65.5t75.5 95t28.5 129.5q0 98 -48 162.5t-115.5 102.5t-140.5 51t-122 7q57 25 115.5 43.5t101.5 61.5q31 33 50.5 69.5t15.5 94.5q-2 57 -36 92t-83 53t-103.5 22.5 t-97.5 2.5q-100 -6 -158.5 -38t-89 -69t-38.5 -65l-8 -29q4 -37 32.5 -55.5t50.5 -1.5l-14 63q12 66 82 99.5t166 43.5q43 4 85 -2t73.5 -21.5t50 -40t18.5 -54.5q8 -57 -25.5 -101.5t-90 -77t-124 -55t-126.5 -37.5l4 -33q23 10 72 4t126 -16q66 -6 122.5 -27.5t97.5 -58.5 t63.5 -89t22.5 -122q0 -57 -31 -102t-74 -78q-55 -43 -119.5 -63.5t-132 -23.5t-135.5 10.5t-129 39.5q-29 12 -57.5 28.5t-52 39t-40 50.5t-18.5 60q0 18 7 33.5t13.5 31t5.5 31t-20 31.5q-43 -10 -56 -38.5t-10 -64.5z" />
<glyph unicode="4" horiz-adv-x="1042" d="M72 104q12 2 24.5 6.5t24.5 8.5q4 4 36.5 14t73.5 22.5t77 22.5t46 15q55 16 91 25t94 15q-6 -45 -14.5 -117.5t-10.5 -150.5t5 -148.5t30 -111.5q20 2 46 14.5t36 30.5q-4 16 -10.5 31.5t-10.5 32.5q-20 111 -15 212t21 212q43 10 95.5 14t97.5 4q16 -6 34.5 -16.5 t36 -21.5t32 -18t22.5 -7q27 -2 38 4t13 15t-5 21.5t-19 22.5q-16 16 -62.5 23.5t-100 8.5t-102.5 -2t-73 -5q16 104 29.5 214.5t13.5 217.5q-4 0 -17.5 -9.5t-28 -21.5t-26.5 -22.5t-14 -14.5q-2 -16 -2 -27v-22v-25q0 -14 -3 -39q-6 -63 -12 -130.5t-22 -129.5 q-49 -4 -93.5 -11t-86.5 -18.5t-83.5 -23.5t-91.5 -26q4 23 21.5 71.5t38 115t42 146.5t35 162t15.5 163t-14 150q-53 0 -76 -12t-29 -26q49 -86 48 -197t-28.5 -222.5t-68.5 -214t-70 -169.5q0 -4 -4 -12.5t-10 -17.5l-11 -16.5t-3 -9.5z" />
<glyph unicode="5" horiz-adv-x="1050" d="M73 146.5q3 -35.5 18 -71.5t32 -59q39 -55 103.5 -93t138 -58.5t150.5 -23.5t138 12q66 14 127.5 39.5t108.5 65.5t75.5 95t28.5 129q0 98 -40 170t-102.5 117t-138 64.5t-145.5 13.5q-12 2 -42.5 0t-70.5 -7t-81 -13.5t-74 -16.5q29 61 39 111.5t10 99.5t-4 102.5 t-4 120.5q63 -10 149 -24.5t176.5 -18.5t175.5 7.5t146 52.5q-10 16 -15 19t-22 15l-18 25q-20 0 -32.5 -12.5t-53.5 -26.5q-72 -27 -151 -30t-183 18q-10 2 -57 13t-101.5 23.5t-99.5 21.5t-47 9q18 -29 35.5 -53.5t17.5 -52.5q20 -121 13 -211t-25.5 -152.5t-36.5 -97.5 t-18 -43q25 4 37 10t36 8q10 4 51 14.5t94.5 19.5t110 16.5t94.5 5.5q141 -10 223.5 -103.5t82.5 -234.5q0 -57 -31 -102.5t-74 -77.5q-55 -43 -119.5 -63.5t-132 -24t-135.5 10t-129 40.5q-29 12 -57.5 28.5t-52 39t-40 50t-18.5 60.5q0 18 7 33.5t13.5 31t5.5 30.5t-20 32 q-43 -10 -56 -39t-10 -64.5z" />
<glyph unicode="6" horiz-adv-x="960" d="M71 419q1 -54 1 -75q-2 -129 57 -212t150.5 -124t195.5 -41q106 0 197.5 38t153 115t61.5 189q0 109 -47 180.5t-118 109.5t-154 42t-155.5 -20.5t-123.5 -76.5t-56 -130l23 -8q16 72 64.5 116.5t111 61t132 6.5t127 -47t94 -101.5t36.5 -152.5q0 -53 -25.5 -100.5 t-66.5 -82.5q-47 -41 -103.5 -62t-115.5 -24.5t-119.5 9t-114.5 41.5q-57 29 -93 79t-52 113q-8 33 -9 74t2 84t8 84t11 74q14 80 64.5 186t144.5 207.5t238.5 183.5t351.5 115l27 28q-162 -14 -290 -63t-225.5 -120t-166 -152.5t-113.5 -159.5t-67.5 -143.5t-26.5 -102.5 q-10 -84 -9 -138z" />
<glyph unicode="7" horiz-adv-x="933" d="M72 899q49 -43 130 -56.5t173 -11t182 13.5t156 21q-16 -51 -56.5 -137t-86.5 -190.5t-88 -218t-62.5 -220t-10 -195.5t71.5 -143q27 -25 59.5 -20.5t37.5 20.5q-27 -2 -45.5 12.5t-31 34t-17.5 39t-7 25.5q-4 27 -2 63.5t8 75.5t14.5 78t18.5 68q53 174 124 347t148 345 q16 37 34 59t55 45q-4 0 -51.5 -8t-105.5 -19.5t-109.5 -20.5t-61.5 -11q-111 -16 -195 -7t-149 38q-18 8 -25.5 13t-11.5 9t-8 6t-15 2l-26 -22q-10 -10 -16.5 -13t-10.5 -5.5t-8 -5.5t-12 -11z" />
<glyph unicode="8" horiz-adv-x="952" d="M73 215q3 -80 48 -146.5t135 -109.5t227 -43q139 0 229.5 43t135.5 110.5t47 147.5t-35 152.5t-108.5 130t-173.5 75.5q41 16 77.5 33t63 40.5t43 58.5t18.5 88q0 53 -29.5 93t-74.5 65.5t-97.5 39t-97.5 13.5q-43 0 -97 -12.5t-100 -39t-76 -65.5t-26 -94 q4 -53 19.5 -88t41 -57.5t60.5 -39t78 -35.5q-102 -20 -172 -76.5t-104.5 -130t-31.5 -153.5zM133 223q0 133 80 201t207 84q76 8 149.5 -2t132 -45t94 -93.5t35.5 -144.5q0 -53 -28.5 -96t-69.5 -76q-53 -43 -118.5 -63.5t-133.5 -20.5q-66 0 -131 20.5t-119 63.5 q-41 33 -69.5 76t-28.5 96zM253 802.5q9 61.5 70.5 107.5t155.5 44q100 -4 163 -47t71 -100t-46.5 -114.5t-185.5 -86.5q-133 20 -185 77.5t-43 119z" />
<glyph unicode="9" horiz-adv-x="931" d="M20 -463q150 12 270 71.5t212 145.5t159.5 185.5t111.5 193.5t66.5 170t26.5 113q10 86 9 140.5t-1 74.5q2 127 -57 211t-149 125t-197 41q-106 0 -197.5 -38t-152 -115t-60.5 -189q0 -109 47.5 -180.5t118 -109.5t153.5 -42t154.5 20.5t123 76.5t55.5 130l-23 8 q-16 -74 -64 -117.5t-110.5 -61t-132.5 -6.5t-127 48t-94 101.5t-37 152.5q0 53 25.5 100.5t66.5 81.5q47 41 103.5 62.5t116 24.5t119.5 -10t114 -40q57 -29 93 -79t52 -113q8 -33 9 -74t-2 -84t-8 -84t-11 -74q-10 -53 -36 -132t-69 -167t-104.5 -177t-142 -163.5 t-181 -127t-223.5 -64.5z" />
<glyph unicode=":" horiz-adv-x="266" d="M72 10q0 -18 6 -33q23 -8 51 -8q18 18 31.5 40t17.5 46q2 2 2 4t2 4q-25 29 -76 29q-16 -10 -25 -33.5t-9 -48.5zM100 387q0 -27 6 -47q18 -8 52 -8q41 41 47 86l2 4q0 2 2 6q-29 29 -74 29q-31 -25 -35 -70z" />
<glyph unicode=";" horiz-adv-x="309" d="M72 -141q8 -4 16 -4t14 2q20 8 37 30l8.5 8.5l8.5 8.5q23 23 36 50t17 54v35q-6 33 -21 53q-27 10 -47 10q-2 0 -9 -3t-13 -7q-12 -6 -17 -10q4 -8 9.5 -16.5t9.5 -12.5t7 -10l5 -10q4 -8 7 -19.5t3 -23.5q0 -8 -4 -29q-2 -4 -2 -8q0 -6 -2 -10q-10 -27 -31 -51 q-6 -6 -8 -11q-4 -4 -6 -8l-9 -9zM143 387q0 -27 7 -47q18 -8 51 -8q39 39 49 86q0 4 1 5t1 5q-10 10 -30.5 19.5t-43.5 9.5q-31 -25 -35 -70z" />
<glyph unicode="&#x3c;" horiz-adv-x="864" d="M72 440q35 -16 62.5 -25t70.5 -26l26 -12q53 -25 109.5 -40t110 -33.5t103.5 -39t89 -49.5q10 -6 17.5 -12t17.5 -12.5t18.5 -12.5t18.5 -10q20 4 33 4q14 0 24 4q18 2 35 14q-94 78 -242.5 137.5t-316.5 112.5q82 29 145.5 56.5t120.5 58.5t108.5 62.5t102.5 64.5 q-2 8 -14 10q-6 2 -17 2q-8 0 -20 2q-35 -12 -62.5 -27.5t-54.5 -31.5q-35 -20 -81 -45t-98 -49.5t-107.5 -45t-106.5 -32.5q-10 -2 -22.5 -4t-22.5 -6q-12 -2 -23.5 -6.5t-23.5 -8.5z" />
<glyph unicode="=" d="M72 274q74 4 150.5 7.5t150.5 7.5q68 2 156.5 3t156.5 3q4 10 6 19.5t6 19.5h-331l-283 -2q-4 -16 -6 -28.5t-6 -29.5zM72 520q74 4 150.5 7t150.5 8q68 2 156.5 3t156.5 3q4 10 6 19.5t6 19.5h-331l-283 -2q-4 -16 -6 -28.5t-6 -29.5z" />
<glyph unicode="&#x3e;" horiz-adv-x="864" d="M72 674q94 -78 242.5 -136.5t318.5 -111.5q-84 -29 -147.5 -57.5t-121 -59t-108.5 -62.5t-102 -63q4 -6 14 -10q12 -4 37 -6q35 14 62.5 29.5t54.5 31.5q33 20 80 45t100 48.5t108.5 44t104.5 32.5q10 4 22.5 5.5t22.5 5.5q14 2 24.5 7t22.5 9q-35 16 -62.5 25.5 t-70.5 25.5l-27 10q-53 20 -109.5 38t-109.5 36.5t-102.5 39t-89.5 48.5q-10 6 -17.5 12.5t-17.5 12.5q-18 14 -37 22q-40 -2 -58 -8q-18 -2 -34 -14z" />
<glyph unicode="?" horiz-adv-x="866" d="M73 806q-3 -30 9 -55.5t49 -33.5q18 16 19.5 30.5t-5.5 26.5q-4 12 -10 24.5t-6 26.5q4 51 45 86t84 54q98 41 207.5 37.5t196.5 -68.5q35 -27 58 -61.5t23 -77.5q0 -111 -66.5 -166.5t-170.5 -67.5q-31 -4 -41 -8t-31 -8q-68 -18 -99.5 -53t-34.5 -76t16.5 -79 t54.5 -61.5t80 -23.5t90 35l-23 14q-33 -23 -64.5 -18.5t-56 24t-38 49t-6.5 59t39 54.5t95 35q51 6 107.5 22.5t103.5 48t79 80.5t32 123q0 59 -22.5 104.5t-61.5 78t-88 53t-100 33.5q-49 12 -110.5 9t-120 -19.5t-111 -47.5t-82.5 -76q-12 -18 -24.5 -47.5t-15.5 -59.5z M377 54.5q6 -29.5 10 -62.5q14 -8 34.5 -10t31.5 10q-2 31 2 59.5t0 59.5q-10 10 -35 7t-37 -5q-12 -29 -6 -58.5z" />
<glyph unicode="@" horiz-adv-x="1333" d="M69 295q1 -33 5 -70q12 -96 68.5 -169.5t136 -123t174 -75t182.5 -25.5q109 0 211 26.5t194 86.5q31 20 60.5 39.5t48.5 54.5q-88 -72 -209 -116t-248 -51t-245.5 29t-202.5 126q-61 68 -91 153.5t-22 177.5q14 164 99 277t203 176t253 78.5t252 -16t195.5 -109.5 t87.5 -199q4 -55 -14.5 -126.5t-55.5 -135t-89 -106.5t-118 -43q-16 0 -37.5 18t-27.5 61q-16 117 -13 242q0 39 1 78t7 80q4 8 -8 10q-88 2 -165.5 -33t-138 -87t-101.5 -113.5t-56.5 -112.5t-3 -84t59.5 -27q25 2 56.5 14.5t62 30t58.5 36t46 34.5q35 29 60.5 58.5 t58.5 70.5v-111q0 -55 10 -108q6 -27 23.5 -45.5t40 -30.5t45 -16t36.5 -2q59 10 113.5 50t97.5 95t71 119t36 121q4 35 5 64.5t-5 64.5q-16 92 -71.5 152.5t-131.5 95t-163 46t-169 9.5q-115 -4 -229.5 -48t-209.5 -120t-158.5 -178.5t-71.5 -222.5q-4 -37 -3 -70z M446.5 252q-2.5 27 12 65.5t45.5 85t76 87t104 71.5t131 37q-6 -41 -24.5 -98.5t-83.5 -134.5q-18 -20 -52 -44t-71 -45.5t-70 -37t-47 -15.5q-18 2 -20.5 29z" />
<glyph unicode="A" horiz-adv-x="1105" d="M37 -37q12 -16 43 -9t41 19q16 18 49 69.5t66.5 113t64.5 122t45 99.5q10 27 21.5 51.5t23.5 50.5q72 10 144.5 19.5t144.5 21.5q18 -59 48 -138t66.5 -158t82 -145.5t94.5 -101.5q27 0 61.5 14.5t57.5 24.5l-39 50q-10 -4 -19.5 -8.5t-19.5 -4.5q-47 45 -87 102.5 t-72 120t-56.5 128t-42.5 126.5v2l139 19q-14 4 -24.5 13t-22.5 14l-101 -13q-16 55 -36.5 122t-41 134.5t-36 132t-23.5 117.5q-2 8 -3 14.5t-7 12.5q-18 0 -42 -6.5t-38 -20.5q4 -6 12.5 -26.5t6.5 -26.5l-43 -144q-8 -29 -22.5 -69.5t-31 -86.5t-36 -96.5t-39.5 -95.5 l-76 -8q-2 -14 -3 -28.5t-1 -28.5l55 8q-16 -37 -32.5 -67.5t-29 -53t-38 -67.5t-54 -94.5t-56.5 -93.5t-42 -64q-4 -4 -19.5 -21.5t-15.5 -21.5zM412 530q41 98 78.5 195.5t74.5 196.5q23 -92 48.5 -182.5t54.5 -182.5q-66 -6 -128.5 -12t-127.5 -15z" />
<glyph unicode="B" horiz-adv-x="935" d="M72 922l16 -62q29 18 40 26.5t42 22.5q-6 -106 -10 -223q-4 -118 -5 -236q0 -59 -0.5 -117.5t0.5 -117.5q1 -117 7 -223q58 -2 116 -2t116 2q114 4 222 49q68 27 132.5 79t100.5 116q28 51 28 105q1 15 -1 29q-10 68 -90 130q-59 47 -111 59q-28 7 -63 6q-29 0 -63 -4 q39 20 87 55t89 78t68.5 92.5t29.5 98.5v7q1 68 -35 108q-38 42 -100 58q-50 13 -110 13h-29q-76 -4 -149.5 -18.5t-136 -35t-97.5 -36.5q-29 -14 -58.5 -28.5t-35.5 -30.5zM225 250q1 49 1 98.5t-1 100.5q84 23 174 47t176 28h12q47 0 97 -26q56 -30 84 -76q30 -46 30 -89 q0 -46 -22 -88q-20 -40 -56 -74t-75 -58q-61 -41 -135 -60.5t-148 -19.5q-33 0 -64.5 5t-64.5 13q-8 83 -8 166v33zM227 500q0 47 1 103t2 115.5t3.5 116t6.5 103.5q45 25 76.5 36t57 17t49 9.5t56.5 9.5q26 5 58 5q17 0 33 -1q52 -4 87 -15q43 -11 67 -45q22 -31 21 -70v-7 q-2 -53 -30.5 -101.5t-69.5 -88.5t-90 -70.5t-92 -51.5q-55 -27 -115.5 -41t-120.5 -24z" />
<glyph unicode="C" horiz-adv-x="1062" d="M72 344q0 -127 58 -205q58 -77 150 -113q89 -35 195 -35h7q110 1 212.5 32.5t183 88t115.5 130.5q-6 4 -17 0t-18 -9q-2 0 -11 -9t-21.5 -20t-23.5 -22.5t-17 -15.5q-78 -59 -170 -92t-191 -37h-14q-58 1 -111 15q-59 16 -108 49.5t-84 85t-47 116.5q-8 41 -8 81 q0 88 38 175q54 127 155 228.5t229 167t251 71.5q27 2 60 2q35 0 51 -29q0 -16 -12.5 -32.5t-22.5 -28.5q0 -6 -8 -13t-16.5 -15.5l-15.5 -15.5t-7 -13q-4 -6 -7 -15.5t-1 -17.5t9 -13.5t24 -5.5q14 4 28.5 6.5t26.5 8.5q30 14 50 48q21 36 21 73q-1 33 -17 64 q-18 32 -56 44q-23 8 -53 8q-29 0 -60 -3t-60.5 -10t-51.5 -15q-115 -37 -227.5 -103.5t-204 -158t-147.5 -205t-56 -242.5z" />
<glyph unicode="D" horiz-adv-x="1048" d="M72 922l16 -62q29 18 41 26.5t43 22.5q-6 -106 -10 -223q-4 -118 -5 -236q0 -59 -0.5 -117.5t0.5 -117.5q1 -117 7 -223q39 -2 71.5 -4t67.5 -3q18 0 37.5 -0.5t41.5 0.5q44 1 105 5q94 8 174 53t143.5 115.5t106.5 161t63 187.5q16 75 17 152q0 23 -2 45q-6 100 -41 185 q-41 98 -127 137t-178 43q-47 2 -86 2q-37 0 -70 -4q-98 -10 -186 -36.5t-133 -49.5q-29 -14 -58.5 -28.5t-37.5 -30.5zM228 274v117v109q0 47 1.5 103t2.5 115.5t3.5 116t6.5 103.5q45 25 75.5 36t56 17t50.5 9.5t57 9.5h6q51 6 115 6q131 0 208 -56q76 -55 108 -143 q25 -70 26 -152q0 -21 -2 -43q-8 -106 -45 -207.5t-98 -186.5t-137 -126q-47 -27 -90.5 -39t-84.5 -16q-26 -9 -60 -9h-7q-38 1 -68 1q-35 0 -60.5 2t-55.5 10q-4 49 -6 107.5t-2 115.5z" />
<glyph unicode="E" horiz-adv-x="993" d="M72 985q12 2 24 2t27 2q4 -18 9 -36.5t5 -37.5q3 -56 3 -110v-27v-27q0 -54 3 -110q1 -28 1 -59q0 -54 -4 -115q-7 -96 -13 -174l-16 -240h-2l-3 -51v-2h80l2 8q78 8 163 14q37 2 80 2q54 0 116 -4l327 -20q4 0 12.5 8t16.5 19.5t17.5 23t15.5 15.5q-174 0 -358 6 q-48 2 -96 2q-139 0 -289 -13q4 41 7 80t3 52q6 98 9 170.5t5 148.5q66 10 126 16.5t120.5 12.5t122 13t131.5 17q-6 2 -3 7.5t9 11.5t9 11t-3 7q-127 -14 -255 -21t-257 -20q1 32 1 67.5t-1 74.5q0 20 -2 58t-3 81t-4 83t-5 68q75 9 155 19q58 8 122 7q25 0 50 -1 q27 2 64 3h25q25 0 50 -1q38 -2 74.5 -6t63.5 -10q2 2 11 17t30.5 34.5t50.5 28.5q-190 0 -395 -13.5t-430 -40.5z" />
<glyph unicode="F" horiz-adv-x="907" d="M72 985q12 2 24 2t27 2q4 -18 9 -36.5t5 -37.5q2 -70 2 -137q0 -68 2 -137q2 -31 2 -65q0 -51 -4 -109q-6 -96 -14 -174l-37 -424h80q2 20 7 70.5t10 103.5t9.5 96t4.5 54q4 98 9 170.5t7 148.5q66 10 126 16.5t120.5 12.5t122 13t131.5 17q-6 2 -3 7.5t9 11.5t9 11t-3 7 q-127 -14 -255 -21t-257 -20q1 32 1 67.5t-1 74.5q0 20 -1 58t-3 81t-4 83t-4 68q75 7 155 19q53 8 110 8q30 0 62 -2q36 2 69 2q49 0 90 -5q69 -9 97 -15q6 2 16.5 13t24 25.5t31.5 27t41 18.5q-190 0 -395 -13.5t-430 -40.5z" />
<glyph unicode="G" horiz-adv-x="1062" d="M72 344q0 -113 47 -186.5t122.5 -114.5t170.5 -50q35 -3 69 -3q61 0 122 10q95 16 182 56t147 100q2 -29 5 -88.5t4 -129.5v-46q0 -46 -1 -92q-2 -70 -10 -119q-29 -109 -84 -169.5t-125 -85.5q-54 -19 -113 -19q-16 0 -34 2q-76 7 -147 34t-128 67.5t-88 83.5 q-4 6 -14.5 20.5t-18.5 31.5q-20 36 -20 58q0 15 10 22q13 12 34 12q16 0 36 -6q4 8 15 10t15 12q-41 24 -68 24q-5 0 -10 -1q-30 -6 -45 -15q-25 -14 -27.5 -41.5t6.5 -60.5t27.5 -63.5t38.5 -51.5l37 -37q57 -57 136 -96t164 -51q35 -5 69 -5q50 0 99 10q83 18 151 71 q57 45 98 92t57 131q12 124 12 243q0 41 -1 81q-6 159 -17 272q-4 43 -5 88t-7 86q-4 35 -21.5 41t-48.5 2q-12 -2 -43.5 -4t-73.5 -5t-92 -5q-32 -1 -63 -1h-30q-44 1 -79.5 4t-54.5 11q-4 -14 -2 -39.5t12 -25.5q78 -6 164 -10h29q70 0 135 14q6 0 17.5 2t23.5 4t23 2 q10 0 10 -2q20 -47 25.5 -103.5t11.5 -109.5q-78 -78 -184.5 -121t-217.5 -47h-14q-56 0 -110 15q-60 16 -109 49.5t-84 85t-47 116.5q-8 41 -8 82q0 90 38 177q56 126 155 226.5t228 164t252 73.5q27 2 61 1t50 -28q-2 -18 -13.5 -32.5t-21.5 -28.5q-10 -16 -24.5 -27.5 t-22.5 -29.5q-16 -25 -10 -35t22.5 -12.5t36 1t31.5 9.5q33 16 52 49q19 35 19 72q0 34 -17 63q-17 31 -56 45q-23 8 -53 8q-29 0 -60 -4t-60.5 -11t-51.5 -13q-115 -37 -227.5 -103.5t-204 -158t-147.5 -205t-56 -242.5z" />
<glyph unicode="H" horiz-adv-x="962" d="M72 494h28t31 2q-6 -127 -19.5 -249t-25.5 -247h80q4 29 9 80t10 117.5t9.5 144.5t8.5 158q129 8 256 24.5t256 40.5q2 -88 6 -176t10 -163.5t12.5 -135t12.5 -90.5h80q-16 145 -32 288.5t-18 291.5l78 16t78 18l-70 17q-23 -4 -44 -9.5t-44 -9.5q0 68 -1 117t-1 117 q0 18 3 47t8.5 59.5t9.5 59t6 47.5q-8 12 -33.5 6t-36.5 -10q-10 -20 -15 -65.5t-8 -106t-3 -133.5q0 -72 2 -150q-127 -23 -255 -33t-255 -14q2 84 2 164q0 82 -2 149.5t-8.5 116.5t-14.5 72q-12 4 -37.5 10t-31.5 -6q2 -35 9 -72t7 -72q0 -70 2 -154.5t2 -154.5v-55h-57z " />
<glyph unicode="I" horiz-adv-x="264" d="M72 709q0 -78 3 -139.5t8 -120t10 -120t11 -136.5q0 -10 2.5 -33t5.5 -51.5t7 -58.5t8 -50h80l-31 293q-8 78 -18.5 174t-10.5 174q0 70 -2 137.5t-2 136.5q0 27 7.5 72t9.5 72q-2 6 -13 6q-8 0 -19 -2t-21.5 -5t-16.5 -3q-4 -8 -7 -16.5t-5 -16.5q-4 -20 -5 -62t-1 -92 v-92v-67z" />
<glyph unicode="J" horiz-adv-x="974" d="M72 -180q4 -78 41 -153t93 -135t128 -97t146 -38h4q73 0 140 39q70 40 126 136q63 111 101 266.5t55 328.5q12 136 12 273v74q-5 175 -23 320q-10 66 -20.5 122t-28.5 119h-17q-12 0 -25 -2t-23.5 -7t-10.5 -13q14 -78 26.5 -132.5t21.5 -98.5t15.5 -85t9.5 -89t5 -112 q1 -33 1 -72t-1 -85q-2 -190 -22.5 -346t-54.5 -271.5t-79 -188.5t-94 -97q-65 -32 -124 -32q-24 0 -47 6q-79 18 -139.5 72t-97 129t-43.5 142l3 8q2 4 18 4h20q4 10 16.5 17.5t2.5 11.5q-51 18 -79 18q-11 0 -18 -2q-28 -10 -38 -30z" />
<glyph unicode="K" horiz-adv-x="956" d="M72 2l67 -2q11 59 15 129q3 54 3 106v29q-1 64 -4 116t-3 77l-7 49q39 -51 100.5 -86t135.5 -66.5t152.5 -68.5t152.5 -90.5t136.5 -130t101.5 -189.5l20 39q-23 98 -74 170t-119.5 126t-146.5 96t-153.5 79t-144 75t-118.5 83q39 18 99.5 54t128 84t136 103.5t124 111.5 t92.5 110.5t39 97.5q-14 0 -45 -6t-43 -11q-2 -41 -22.5 -76.5t-49.5 -67.5t-61.5 -59.5t-59.5 -52.5q-90 -76 -178 -145.5t-199 -116.5q0 119 8.5 236t8.5 235q-4 4 -15.5 5.5t-23.5 1.5h-25q-10 0 -16 2q0 -18 1 -37t-3 -54q-6 -60 -8 -122q-1 -31 -1 -61.5t1 -59.5 q0 -41 2 -101.5t5 -130t4 -142.5t1 -138q0 -66 -3 -119t-11 -82z" />
<glyph unicode="L" horiz-adv-x="909" d="M72 -35q2 0 47 9.5t99 21.5t101.5 23.5t57.5 13.5q77 15 136 15q21 0 39 -2q71 -7 142 -34q41 -14 61.5 -22t41.5 -8l18 24q18 6 22.5 12.5t14.5 22.5q-61 41 -146 52q-62 8 -128 8q-24 0 -48 -1q-90 -4 -176 -18t-149 -25q0 49 9 140.5t19.5 201t17.5 225.5q4 74 4 144 q0 38 -1 76q-4 104 -24.5 182t-65.5 111q-25 2 -40 -2.5t-38 -14.5q0 -16 20.5 -36.5t26.5 -34.5q12 -27 21.5 -63t15.5 -76t9 -77.5t3 -66.5q0 -174 -17.5 -347t-39.5 -347q0 -14 -8 -22.5t-17.5 -17.5t-18.5 -23.5t-9 -43.5z" />
<glyph unicode="M" horiz-adv-x="1107" d="M72 -2h80q6 29 12 88t12 136t12.5 163t10.5 166q4 75 5 147v47q0 46 -1 89q35 -74 71.5 -148t77.5 -139q20 -35 47 -79t54.5 -89t54.5 -87t49 -73q23 31 53.5 73t62.5 87t61.5 89t51.5 79q41 66 81 138.5t75 145.5q-2 -63 -3 -135v-48q0 -49 1 -99q2 -80 5 -166t8 -163 t9.5 -136t8.5 -88h80q-6 61 -12.5 132t-12.5 142.5t-10 142t-4 134.5v55q0 70 4 155t6 154q0 29 5 59.5t9 61.5l13 23q-4 0 -5.5 1t-5.5 1q-6 4 -18 4q-10 0 -23 -2q-8 -2 -16 -3t-12 -5l-6 -13l-13 -32q-18 -49 -49 -109.5t-65.5 -121t-68.5 -117t-56 -99.5 q-20 -35 -58.5 -90t-85.5 -121q-47 66 -85 121t-54 90q-23 43 -52.5 100.5t-60 119t-60.5 122t-52 109.5l-15 30q-2 4 -2 7q0 2 -4 6t-11 5t-15 3q-12 4 -25 4q-10 0 -16 -4q-4 -2 -6 -2l-5 -2l11 -23q4 -29 8 -59.5t4 -61.5q-1 -47 -1 -100v-55q1 -84 1 -154v-55 q0 -63 -6 -134t-14.5 -142.5t-18.5 -142.5t-16 -132zM182 1053q9 -17 13 -27z" />
<glyph unicode="N" horiz-adv-x="880" d="M72 0h80q4 29 10 88t11 136t9 163t8 166q4 76 5 147q0 72 -2 136q35 -74 72.5 -147t78.5 -138q98 -164 204.5 -304.5t192.5 -246.5v-2q2 0 2 2h78l2 2l-2 4q-16 143 -32.5 302t-18.5 304q0 68 -1 117t-1 117q0 18 3 47t8 59.5t9.5 59t6.5 47.5q-8 12 -34 6t-36 -10 q-10 -20 -15 -65.5t-8.5 -106t-3.5 -133.5q0 -72 2 -150q4 -123 10.5 -249t14.5 -220q-41 53 -87 115.5t-89 122t-77 110.5t-52 84q-23 43 -54.5 99.5t-64.5 118t-63.5 122t-51.5 109.5l-12 30l-6 13q-6 4 -29 8q-10 4 -22 4t-17 -6q-8 0 -10 -2l10 -23q4 -31 9.5 -61.5 t5.5 -59.5q0 -70 2 -154.5t2 -154.5v-55q0 -63 -5 -134t-12.5 -142.5t-15.5 -142.5t-14 -132zM168 1055q4 -6 6 -13.5t6 -13.5z" />
<glyph unicode="O" horiz-adv-x="1093" d="M74 452q8 -114 52 -211.5t125 -166t198 -82.5q27 -3 54 -3q76 -1 144 25q92 34 165 103t124 163q50 96 76 200q22 90 23 182q0 14 -1 28q-4 106 -41 199q-20 49 -53 83t-74 55.5t-88 31.5t-92 12h-41q-69 0 -119 -5q-64 -7 -103.5 -17.5t-60 -21.5t-30.5 -17 q-94 -47 -154 -136q-60 -90 -86 -198q-19 -83 -20 -169q0 -28 2 -55zM133 442q-5 37 -5 75q0 69 16 141q26 110 102 204q16 20 42.5 48t70.5 50.5t114 39t172 16.5q131 0 209 -55.5t110 -143.5q25 -70 25 -152q0 -21 -2 -43q-8 -106 -46 -207.5t-99 -186.5t-137 -126 q-101 -56 -191 -55h-18q-98 6 -174 59.5t-125.5 142.5t-63.5 193z" />
<glyph unicode="P" horiz-adv-x="923" d="M76 883q-10 -10 4 -25.5t12 -36.5q12 8 23.5 14.5t24 12.5t29.5 15t44 26q-4 -96 -7 -211q-2 -69 -2 -132q0 -42 1 -81q0 -43 2 -110.5t3 -148.5v-82v-84q-1 -85 -6 -163t-14.5 -141.5t-27.5 -97.5q2 2 -4 2t-4 -2q4 -4 28.5 -5.5t28.5 -1.5q2 0 16.5 -1t16.5 1t-2 3 t-4 -1q28 100 30 203q1 47 1 93q0 56 -2 112q-3 101 -7 203q-1 25 -1 51q0 76 9 154q53 14 91 23t72 19.5t71 25.5t90 44q41 20 88 55t88 78t68.5 92.5t29.5 98.5v8q0 67 -34 107q-36 42 -96 60q-49 14 -108 14q-14 0 -28 -1q-76 -4 -149.5 -20.5t-138 -42t-103.5 -49.5 q-12 -8 -31.5 -18.5t-40 -22t-37 -21.5t-24.5 -16zM270 500q0 94 3 208.5t10 209.5q59 31 116.5 42t122.5 23q18 4 45 7t53.5 5t52 1t44.5 -7q45 -13 59 -41q12 -25 12 -60v-11q-2 -53 -30.5 -101.5t-69.5 -88.5t-90 -70.5t-92 -51.5q-55 -27 -115.5 -41t-120.5 -24z" />
<glyph unicode="Q" horiz-adv-x="1132" d="M74 454q8 -116 52 -213.5t125 -166t198 -82.5q27 -3 54 -3t52 3q49 -84 128 -164t174 -136.5t199 -81.5q52 -12 103 -12t101 13q63 16 122.5 59t75.5 109l-51 28q-2 -53 -51 -92t-109 -61q-30 -12 -75 -12q-25 0 -55 4q-83 10 -176 52t-183 116.5t-148 187.5 q82 23 151.5 75t123 123.5t89.5 157.5t51 178q10 62 10 124q0 29 -2 58q-7 91 -40 171q-20 49 -53 83t-74 55.5t-88 31.5t-92 12h-41q-69 0 -119 -5q-63 -7 -103 -17.5t-60.5 -21.5t-30.5 -17q-94 -45 -154.5 -134.5t-85.5 -197.5q-20 -83 -20 -170q0 -27 2 -54zM133 442 q-5 38 -5 75q0 69 16 141q26 110 102 204q16 20 42.5 48t70.5 50.5t114 39t172 16.5q131 0 209 -55.5t110 -143.5q25 -70 25 -152q0 -21 -2 -43q-8 -106 -46 -207.5t-99 -186.5t-137 -126q-101 -56 -191 -56q-9 0 -18 1q-97 6 -173.5 59.5t-126 142.5t-63.5 193z" />
<glyph unicode="R" horiz-adv-x="956" d="M76 883q-10 -10 4 -25.5t12 -36.5q12 8 23.5 14.5t24 12.5t29.5 15t44 26q-4 -96 -7 -211q-2 -69 -2 -132q0 -42 1 -81q0 -65 2 -133q1 -45 1 -90v-44q-1 -66 -7 -124t-23 -103q0 2 -5 1t-3 -3t27.5 -3t29.5 -3q2 0 16.5 -1t16.5 1t-2 4t-4 0q12 93 14 145q1 34 1 65v30 q-1 43 -3 94q-1 17 -1 39q0 44 3 109q37 10 67 17t55.5 13t49 14.5t49.5 18.5q20 -37 48 -74t51 -71l188 -281q63 -96 138 -151.5t139.5 -84t106.5 -36.5l42 -7l3 13q3 12 -1 28q-37 10 -82 21.5t-103 51.5t-134 123t-174 237q-16 27 -37 59.5t-41.5 68t-41 69.5t-38.5 63 q10 4 19.5 9t19.5 11q41 20 88 55t88 78t68.5 92.5t29.5 98.5v8q0 67 -34 107q-36 42 -96 60q-49 14 -108 14q-14 0 -28 -1q-76 -4 -149.5 -20.5t-138 -42t-103.5 -49.5q-12 -8 -31.5 -18.5t-40 -22t-37 -21.5t-24.5 -16zM270 500q0 94 3 208.5t10 209.5q59 31 116.5 42 t122.5 23q18 4 45 7t53.5 5t52 1t44.5 -7q45 -13 59 -41q12 -25 12 -60v-11q-2 -53 -30.5 -101.5t-69.5 -88.5t-90 -70.5t-92 -51.5q-55 -27 -115.5 -41t-120.5 -24z" />
<glyph unicode="S" horiz-adv-x="999" d="M72 263q12 -54 60 -113.5t126 -112.5t170 -80q66 -19 136 -19q26 0 54 2q98 10 187 80q59 45 86 97.5t27 126.5v28q-4 57 -49.5 114.5t-112 112t-142 104.5t-140 96t-107.5 85q-41 37 -41 67q0 35 34 67q32 30 85 50t117 30q47 7 94 7q16 -1 34 -1q64 -4 120 -21.5 t91 -52.5l41 24q-31 41 -93.5 67t-138.5 34q-40 4 -82 4q-37 0 -74 -3q-81 -7 -147.5 -31t-109.5 -64.5t-43 -96.5q0 -45 14.5 -79.5t38 -62.5t54 -51.5t63.5 -47.5q23 -16 49.5 -38t46.5 -38q37 -29 91.5 -62.5t104.5 -72.5t85 -85q31 -40 31 -85q0 -6 -1 -13 q-6 -86 -47 -135q-42 -50 -104 -70q-52 -17 -112 -16h-24q-74 4 -146 26.5t-132.5 60.5t-95.5 83q-14 18 -29.5 48t-18.5 54q-4 26 12 38q7 6 21 5q16 0 42 -8q8 8 16 10.5t14 12.5q-29 16 -61 22q-7 1 -15 1q-25 0 -47 -15q-34 -23 -34 -61q0 -11 2 -22z" />
<glyph unicode="T" horiz-adv-x="1058" d="M74 856q-4 -6 1 -12t12 -12.5t13 -12.5t6 -12q117 84 224.5 128t206.5 69q35 -199 54 -415q9 -105 9 -207q0 -107 -10 -210q-12 -109 -30.5 -192.5t-59.5 -151.5l57 -12q41 88 62.5 199.5t27.5 230.5q4 79 4 158q0 40 -1 80q-3 118 -11 222.5t-16.5 185.5t-12.5 126 q37 8 124 30t211 36q84 9 182 10q47 0 97 -2q156 -6 328 -52l21 33q-137 39 -275 53q-104 10 -203 10q-33 0 -66 -2q-130 -4 -246.5 -21t-211 -38.5t-159 -43t-90.5 -32.5q-109 -47 -160 -80.5t-88 -62.5z" />
<glyph unicode="U" horiz-adv-x="995" d="M73 263q3 -87 21 -132q18 -47 57 -90t92.5 -76t120 -52t144.5 -19q74 0 139.5 19t117.5 52t90 76t56 90q17 45 21 132q2 41 2 84q0 49 -2 101q-4 98 -12.5 192.5t-10.5 152.5q2 -18 1 5t1 63t7.5 81t19.5 57q-8 6 -20 7q-10 0 -21 4q-6 4 -16 4h-17q-31 -42 -35 -98 q-2 -28 -2 -54t2 -49q6 -82 15.5 -166t15.5 -168q4 -63 4 -125v-42q-2 -83 -20 -160q-10 -51 -51 -89t-91.5 -64t-103.5 -38t-88 -12q-27 0 -80 12t-108.5 38t-101.5 63.5t-58 89.5q-16 78 -18 160q-1 26 -1 52q-1 57 3 115q6 84 15 168t15 166q4 47 9 101q2 21 2 40 q0 31 -5 60h-18q-8 0 -14 -4q-10 -4 -23 -4q-10 0 -18 -7l-3 -31q-2 -30 -4 -67t-4 -69.5t-2 -38.5q-2 -57 -9 -151q-7 -96 -12 -194q-3 -62 -3 -118q0 -34 1 -67z" />
<glyph unicode="V" horiz-adv-x="851" d="M72 1010q27 -72 29.5 -130.5t7.5 -86.5q12 -86 17 -189.5t12 -209t23.5 -206t49.5 -180.5q14 -18 27 -22q14 -29 31.5 -41.5t47.5 -12.5q45 0 90.5 29t73.5 57q33 33 77 97.5t86 138.5t75 146.5t45 119.5q25 96 29 190q1 33 2 64q1 58 -5 108q-8 76 -19 127.5t-17 63.5 q-16 0 -36 -3t-30 -13q10 -72 21.5 -127.5t21.5 -126.5q2 -20 4 -55q1 -14 1 -29q0 -23 -2 -50q-3 -44 -11 -91.5t-25 -92.5q-10 -25 -14 -40t-9 -27t-12.5 -26.5t-21.5 -39.5q-20 -37 -40.5 -76.5t-45.5 -76.5q-14 -23 -42 -60t-61.5 -73.5t-68.5 -63.5t-66 -27 q-20 0 -35.5 35t-25.5 79t-17.5 86t-9.5 56q-18 145 -25 291t-18 291q-4 47 -10 103.5t-31 97.5q-4 0 -16 1t-27 1q-12 0 -21 -1t-9 -5z" />
<glyph unicode="W" horiz-adv-x="1464" d="M72 1010q27 -72 29.5 -130.5t7.5 -86.5q12 -86 17 -189.5t12 -209t23.5 -206t49.5 -180.5q14 -18 27 -22q14 -29 31.5 -41.5t47.5 -12.5q45 0 90.5 29t73.5 57q29 31 67 86.5t74.5 120t70.5 130t55 118.5q8 -125 22 -247t55 -218q14 -18 27 -22q14 -29 31.5 -41.5 t48.5 -12.5q45 0 90 29t74 57q33 33 77 98.5t85.5 139.5t74.5 145.5t45 118.5q25 98 28 192q1 31 1 60q0 60 -4 110q-6 76 -17.5 127.5t-17.5 63.5q-16 0 -35.5 -3t-29.5 -13q10 -72 21 -127.5t22 -126.5q2 -20 4 -55q1 -14 1 -29q0 -23 -2 -50q-3 -44 -11.5 -91.5 t-24.5 -92.5q-10 -25 -15.5 -40t-9.5 -27t-11 -26.5t-22 -39.5q-20 -37 -40.5 -76.5t-45.5 -76.5q-14 -23 -41.5 -60t-61.5 -73.5t-68.5 -63.5t-65.5 -27q-20 0 -35.5 35t-26 79t-17.5 86t-9 56q-18 145 -25.5 291t-17.5 291q-4 47 -10.5 103.5t-30.5 97.5q-4 0 -16.5 1 t-26.5 1q-12 0 -21.5 -1t-9.5 -5q27 -72 30 -130.5t7 -87t8 -60.5t4 -66q0 -51 -10 -98.5t-24.5 -87.5t-31 -72.5t-28.5 -55.5q-20 -37 -40.5 -76.5t-45.5 -76.5q-14 -23 -42 -60t-61.5 -73.5t-68.5 -63.5t-66 -27q-20 0 -35.5 35t-25.5 79t-17.5 86t-9.5 56 q-18 145 -25 291t-18 291q-4 47 -10 103.5t-31 97.5q-4 0 -16 1t-27 1q-12 0 -21 -1t-9 -5z" />
<glyph unicode="X" horiz-adv-x="1003" d="M-12 -119q12 -16 22 -18t18.5 4t15.5 17.5t11 21.5q33 86 68 158.5t71.5 142t79.5 137.5t95 143q53 -66 114.5 -135t124 -135.5t124 -123t114.5 -93.5q16 0 47 -3t47 3q-59 37 -118.5 89t-92.5 87q-84 92 -166 178t-153 191q18 27 54 74t81 99t98 104t106.5 89t102.5 53 q23 8 45 8q24 0 45 -9q0 2 4 19t4 38q0 20 -10 20h-9q-53 0 -107 -22q-58 -24 -114.5 -67.5t-106.5 -95.5t-93 -104.5t-76 -97.5t-51 -69q-25 27 -66 85t-78.5 118.5t-66.5 106.5t-31 46q-4 -2 -15 -7t-22.5 -12.5t-21.5 -14.5t-10 -11q0 -2 17 -27.5t45 -63.5t61.5 -83 t64.5 -85t53.5 -70.5t28.5 -41.5q-47 -63 -96 -144t-97.5 -167t-89.5 -172t-71 -160z" />
<glyph unicode="Y" horiz-adv-x="929" d="M60 -423q20 -83 70 -142.5t123 -90.5q63 -28 130 -28q11 0 21 1q79 5 154 51t130 143q63 111 104.5 275.5t60.5 348.5t19 369t-18 330q-8 59 -19.5 111t-23.5 110l-4 16l-2 4h-17q-12 0 -25 -2t-23.5 -7t-10.5 -13q4 -16 6 -32.5t6 -31.5q4 -47 6.5 -91t2.5 -97 q0 -20 -3.5 -55t-11.5 -78t-22.5 -91.5t-36.5 -91.5q-12 -27 -20.5 -42t-14.5 -27.5t-15.5 -25.5t-25.5 -38q-27 -39 -52.5 -77.5t-53.5 -75.5q-16 -23 -49 -60t-71 -73.5t-77 -63.5t-70 -27q-20 0 -30.5 35t-15.5 79t-6 86t-1 56q0 145 11.5 291t21.5 291q4 49 4 105 q0 55 -18 96q-4 0 -16.5 1t-26.5 1q-12 0 -22.5 -1t-10.5 -5q15 -59 15 -109q0 -11 -1 -21q-4 -59 -4 -87q0 -86 -8 -189.5t-15 -209.5q-4 -80 -4 -158v-48q2 -100 25 -180q4 -6 10 -12t15 -10q10 -27 26.5 -40.5t44.5 -13.5q45 0 94.5 29t81.5 57q37 33 89.5 97.5 t103.5 138.5t94 145.5t61 118.5q20 47 30.5 95.5t19.5 95.5q8 -57 11 -132q2 -45 2 -107q0 -42 -1 -91q-2 -190 -25.5 -355t-61.5 -292t-86 -210t-97 -108q-77 -38 -151 -38q-14 0 -28 2q-86 8 -144 56t-80 126q-9 30 -9 62q0 52 22 110l-75 26q-19 -60 -19 -115 q0 -34 7 -66z" />
<glyph unicode="Z" horiz-adv-x="1202" d="M72 -18h16q133 29 293 55q134 22 269 22q26 0 52 -1q162 -5 315.5 -58t274.5 -184l4 30q-78 92 -167 145.5t-178 79t-169 32t-139 6.5q-61 0 -108.5 -4.5t-95.5 -10.5t-103 -14t-133 -17q137 193 266 330t260 256q66 59 126 115.5t114 109.5q45 45 83 87.5t66 82.5l-10 3 q-10 4 -18.5 6t-18.5 4q-129 -20 -264 -39t-264 -19q-104 0 -196.5 14.5t-172.5 37.5q-4 -12 -5 -25.5t-5 -26.5q80 -18 167 -30.5t191 -13.5h19q95 1 205 9q122 10 274 33q-63 -57 -113.5 -102t-96.5 -87t-95 -87t-113 -103q-121 -111 -254 -269.5t-276 -366.5z" />
<glyph unicode="[" horiz-adv-x="481" d="M72 248q0 -86 7 -170t7 -170l-6 -10q18 -10 41 -27q43 0 89 12.5t91 18.5q27 2 39 4t21.5 4t21.5 2h41q-4 14 -11 27.5t-22 13.5h-69q-25 0 -46.5 -2t-46 -6t-67.5 -11q-23 225 -14.5 450.5t24.5 449.5q4 74 12.5 146.5t12.5 145.5q37 2 57 7.5t37.5 8.5t39 6t58.5 3 l-8 49q-47 0 -77 -3t-55.5 -7t-54 -11.5t-73.5 -13.5q-18 -231 -33.5 -458.5t-15.5 -458.5z" />
<glyph unicode="\" horiz-adv-x="739" d="M72 950q16 -45 45.5 -91t52.5 -87l168 -293l174 -303q23 -41 45.5 -83t50.5 -79q8 -10 35 -19t39 -9q-55 76 -101 161.5t-94 167.5q-51 92 -101 181.5t-99 181.5q-33 59 -61.5 120.5t-63.5 119.5q-16 29 -39 30.5t-51 1.5z" />
<glyph unicode="]" horiz-adv-x="481" d="M72 1159q2 -14 9 -28.5t23 -14.5q43 0 68 1t46.5 2t47 5t68.5 11q20 -223 13 -448.5t-23 -450.5q-4 -72 -12.5 -146t-12.5 -145q-37 -4 -58.5 -8.5t-39 -8.5t-38 -7t-57.5 -3l2 -20q3 -19 7 -27q45 0 74.5 2t55 7t55.5 11.5t75 14.5q16 229 32.5 456.5t16.5 460.5 q0 86 -7 170t-7 170l6 8q-12 6 -21.5 13.5t-19.5 15.5q-45 -2 -91 -15.5t-89 -17.5q-29 -4 -41.5 -5t-21.5 -2t-21 -1h-39z" />
<glyph unicode="^" horiz-adv-x="585" d="M72 776h55q31 43 52.5 75t41 61.5l39 59t43.5 68.5q18 -33 36.5 -73.5t53.5 -87.5q14 -33 36 -63t34 -62q12 -4 19 -2t13.5 7t13.5 8t19 -1q-29 51 -52 93t-44.5 81t-43 79t-48.5 85q-14 4 -27.5 7t-27.5 7q-29 -47 -55.5 -88t-51 -82t-51.5 -83t-55 -89z" />
<glyph unicode="_" horiz-adv-x="1185" d="M72 -500q74 4 150.5 7.5t150.5 7.5h80t133 -1t159.5 -3.5t159.5 -3.5t133 -1h80q4 10 5 27t5 27h-761l-283 -2q-4 -16 -6 -28.5t-6 -29.5z" />
<glyph unicode="`" horiz-adv-x="423" d="M72 1079q4 -6 30.5 -14t67.5 -28.5t91 -55.5t104 -94l2 4q-33 63 -70 105t-72 69t-63.5 40t-44.5 21q-10 -6 -23.5 -21t-21.5 -26z" />
<glyph unicode="a" horiz-adv-x="751" d="M75 152q-3 -21 -3 -39q0 -44 16 -76q19 -40 64 -40q6 0 12 1q29 2 64.5 19.5t70.5 40t65.5 48t49.5 46.5q37 41 62.5 79.5t55.5 98.5q10 -78 19.5 -155t34.5 -150q30 -28 68 -28q15 0 32 5l2 6l6 37l-32 10q-23 82 -37.5 165t-24.5 169q-6 53 -12 107.5t-6 109.5 q0 14 -13 15h-18q-97 0 -177 -41q-86 -45 -150 -117t-102 -156.5t-47 -154.5zM132 90q-3 15 -3 33q0 27 6 59q10 54 38 116t75 117.5t113.5 96.5t152.5 49v-16q0 -50 -10 -120q-12 -81 -76 -183q-18 -29 -54 -62t-77 -61.5t-78 -48t-55 -21.5q-25 4 -32 41z" />
<glyph unicode="b" horiz-adv-x="604" d="M72 524v-22q0 -251 45 -500q16 -6 29.5 -4t31.5 2q49 10 113.5 67.5t123 134.5t96.5 160q36 79 36 136v6q-2 23 -9.5 34t-25.5 23q-28 21 -63 21q-14 0 -29 -4q-53 -12 -106.5 -42t-100.5 -70t-72 -71q0 135 3 266.5t18 264.5q4 28 9 68q3 22 3 41q0 15 -2 28 q-14 4 -22 4q-6 0 -21 -4q-10 -8 -20.5 -10t-20.5 -6q-14 -261 -16 -523zM147 311q29 41 54.5 75t66.5 67q12 10 47 32.5t72 36.5q35 14 65 14h4q32 -1 40 -36q1 -7 1 -15q1 -25 -13 -61q-18 -47 -48 -97.5t-62 -95.5t-50 -65q-29 -35 -62 -65.5t-72 -55.5q-14 18 -22 53 t-13 75t-6.5 77t-1.5 61z" />
<glyph unicode="c" horiz-adv-x="690" d="M73 242v-8q0 -40 9 -76q18 -74 74 -114t124 -48q19 -2 38 -2q50 0 102 14q72 20 121 68q25 25 46 54t46 56q-31 -4 -49.5 -14t-33.5 -24.5t-29.5 -30t-37.5 -31.5q-35 -25 -82 -37q-38 -10 -75 -9h-18q-46 3 -84 22.5t-52 56.5q-20 49 -22 102q0 8 -1 17q-1 46 11 88 q14 52 43.5 95.5t72.5 76.5q31 23 65 36q26 10 56 10q9 0 19 -1q20 -2 45.5 -10.5t25.5 -32.5q0 -18 -13 -36t-28 -28q20 6 37 4t30 1t24.5 17.5t21.5 55.5q2 8 2 16q-1 28 -31 46q-34 19 -86 19h-14q-62 -3 -135.5 -30.5t-128.5 -85.5q-29 -29 -49.5 -67.5t-31.5 -81.5 t-12 -88z" />
<glyph unicode="d" horiz-adv-x="751" d="M74 142q-1 -14 -1 -28q1 -47 17 -80q19 -37 61 -37q6 0 13 1q29 2 64.5 19.5t70.5 40t65.5 48t49.5 46.5q37 41 62.5 79.5t55.5 98.5q4 -39 10.5 -85t13.5 -89t17.5 -79t24.5 -54q28 -25 61 -25q13 0 27 4l2 6l6 37l-49 12q-23 82 -32 144.5t-19 146.5q-6 43 -8 84t-2 84 v43q-3 63 -3 126q0 73 4 145q7 134 44 233l-80 -2q-14 -29 -21.5 -82t-10.5 -117q-2 -48 -2 -95v-33q1 -64 1 -116q-98 -8 -177 -59t-136.5 -121.5t-90 -150t-38.5 -145.5zM132 90q-3 15 -3 33q0 27 6 59q10 54 38 116t75 117.5t113.5 96.5t152.5 49v-16q0 -50 -10 -120 q-12 -81 -76 -183q-18 -29 -54 -62t-77 -61.5t-78 -48t-55 -21.5q-25 4 -32 41z" />
<glyph unicode="e" horiz-adv-x="626" d="M78 286q-6 -34 -7 -67q1 -45 13 -86q20 -69 76 -111q46 -33 120 -34q18 0 37 2q63 6 117.5 39.5t102.5 74.5q16 16 32.5 32t26.5 36q-23 0 -50.5 -20.5t-62 -46t-76.5 -47t-94 -23.5h-13q-32 0 -54 8q-28 10 -51 43q-23 29 -29 58.5t-16 64.5q66 27 129 54.5t116 76.5 q14 14 40 37.5t47.5 51.5t34.5 56.5t5 53.5q-14 35 -50 47t-71 14h-14q-79 0 -141 -42q-68 -46 -111 -117.5t-57 -154.5zM145 260q0 49 19.5 105.5t56.5 101.5t89 71q36 17 77 17q19 0 39 -4q37 -6 35 -31.5t-21.5 -55.5t-45 -56.5t-36.5 -34.5q-43 -35 -102 -66t-111 -47z " />
<glyph unicode="f" horiz-adv-x="542" d="M-49 -727q14 -2 25.5 -4t25.5 4q61 43 107.5 96t77 111.5t47 118t22.5 114.5q6 61 6 121v30q-2 75 -6 149.5t-10 150.5t-8 151q37 8 78 13q25 4 48 4q17 0 33 -2l23 -8q12 6 17 11t6 10t3.5 11t8.5 19q-16 1 -32 1q-36 0 -77 -6q-59 -8 -108 -12q-2 31 -2 80t2 107.5 t8 120t15 114.5t22.5 94t31.5 60q47 45 95 53q7 1 15 1q40 0 85 -36q10 18 13 24.5t3 22.5q-48 52 -108 52q-31 0 -64 -13q-80 -31 -119.5 -114.5t-52.5 -187.5q-12 -90 -12 -181v-27q2 -106 4 -180q-10 -2 -28.5 -5t-38 -7t-37 -9.5t-23.5 -9.5l-2 -6l8 -28l62 14l2 -2 l53 12q0 -82 5 -158.5t10 -151.5t5 -147q0 -74 -8 -147q-8 -66 -22.5 -122t-40 -107.5t-66.5 -100.5t-102 -98z" />
<glyph unicode="g" horiz-adv-x="694" d="M-110 -355q1 -30 14.5 -62t34 -60.5t34.5 -42.5l37 -37q57 -57 135 -96t163 -51q35 -6 71 -6q49 0 98 10q84 18 152 71q59 47 85.5 97t26.5 126q0 70 -12 132.5t-29.5 124t-37 122t-37.5 125.5q-4 10 -5.5 21.5t-5.5 23.5q-29 125 -41 246q-8 53 -13 107.5t-5 109.5 q0 14 -12 15h-18q-98 0 -178 -41q-87 -45 -150.5 -117t-101.5 -156t-47 -155q-3 -20 -3 -39q0 -44 15 -76q19 -40 65 -40q6 0 12 1q29 2 65 19.5t70.5 40t65.5 48t49 46.5q37 41 62.5 79.5t56.5 98.5q4 -37 12 -81t17.5 -90t20.5 -90t22 -81q31 -109 55 -214q19 -83 19 -174 q0 -23 -1 -46q-6 -88 -53 -137.5t-116 -66.5q-41 -11 -86 -11q-30 0 -62 5q-80 11 -150.5 42.5t-121 80t-60.5 105.5q-12 12 -21.5 26.5t-12.5 29t3 27.5t25 23l18 33q-18 2 -51 -5t-49 -17q-25 -14 -24 -44zM105 90q-3 15 -3 32q0 27 6 60q11 54 38.5 116t74.5 117.5 t113.5 96.5t152.5 49v-16q0 -51 -10 -120q-12 -81 -76 -183q-18 -29 -54 -62t-77 -61.5t-77.5 -48t-55.5 -21.5q-25 4 -32 41z" />
<glyph unicode="h" horiz-adv-x="673" d="M72 6q6 -10 27.5 -9t31.5 3q4 31 6 53.5t10.5 49t24.5 61.5t49 88q14 25 43 64.5t62.5 79.5t69.5 69t67 29q7 -26 7 -55q0 -11 -1 -23q-4 -41 -4 -78q0 -35 1 -82t7 -95t18.5 -91t34.5 -70q23 0 47.5 5.5t42.5 19.5q2 14 3.5 33.5t-7.5 29.5q-6 -2 -14 -9t-23 -7 q-20 14 -30 60q-9 46 -13 100q-3 42 -3 84v23q1 52 6 79q4 34 9 70q2 12 2 24q0 24 -7 47q-4 14 -16.5 18.5t-28 2.5t-32 -7.5t-24.5 -9.5q-49 -27 -90 -67.5t-78 -89t-68.5 -98.5t-60.5 -97h2q0 12 8.5 63.5t18.5 126t20 165.5q11 92 16 186q4 68 4 132q0 26 -1 51 q-2 89 -14 161q-39 -12 -74 -19q18 -41 22 -124q2 -37 2 -78q0 -51 -3 -108q-5 -103 -17 -219t-23.5 -221.5t-20.5 -190.5t-9 -130z" />
<glyph unicode="i" horiz-adv-x="235" d="M55 293q0 -84 4 -162t13 -115q20 -25 45.5 -27.5t52.5 -2.5l6 13t2 44q-2 8 -16.5 10t-18.5 8q-8 10 -10 47t-2 80v80v51q-2 41 -3 105v8q0 60 13 125q-10 10 -34.5 8t-34.5 -6q-8 -33 -12.5 -107.5t-4.5 -158.5zM87 845q1 -50 1 -83q12 -8 33.5 -10t32.5 10q4 31 12 80 t8 80q-10 10 -34.5 7t-37.5 -5q-15 -27 -15 -73v-6z" />
<glyph unicode="j" horiz-adv-x="278" d="M-524.5 -353q2.5 -30 15.5 -63t33.5 -61.5t33.5 -40.5l36 -37q57 -57 136.5 -96t163.5 -51q34 -6 69 -6q49 0 98 10q84 18 152 71q57 47 85 97.5t28 126.5q-2 72 -10.5 129t-21.5 108t-29.5 97t-31.5 96q-23 55 -39 133t-20 153q-2 29 -2 59q0 36 3 72q5 66 11 125 q-10 14 -36.5 13.5t-40.5 -4.5q0 -12 -4.5 -39t-7.5 -67t-4 -93v-12q0 -48 7 -105q4 -41 13.5 -88t29.5 -119q16 -61 36 -115.5t35 -112.5t22 -123q4 -32 4 -68q0 -38 -4 -80q0 -78 -36 -124t-94 -66q-49 -18 -107 -18q-12 0 -23 1q-72 4 -143 27.5t-133 65.5t-101 97 q-20 27 -24.5 33t-8.5 16q-25 43 -25 66v6q3 16 31 16q14 0 33 -4q6 8 3 11.5t1 13.5q-12 10 -27.5 12t-32 -1t-31 -8t-20.5 -9q-25 -14 -22.5 -44zM113 762q6 -6 16 -10t21 -4q12 0 21 5t11 17h2q6 25 12 70q4 34 4 57q0 9 -1 16q-14 10 -39 12.5t-41 -10.5q-3 -26 -3 -51 q0 -13 1 -26q1 -9 1 -18q0 -29 -5 -58z" />
<glyph unicode="k" horiz-adv-x="634" d="M72 186q2 -41 8 -93q4 -39 4 -68v-19q27 -16 41 -14t41 14q0 10 -6 28.5t-10.5 29t-7.5 38t-5 58t-3 58.5t-1 40q45 -12 108.5 -42t122 -67.5t100.5 -77.5t44 -71h70q-20 61 -71.5 109.5t-111 83t-119 60.5t-96.5 44q41 25 99.5 57.5t105.5 75.5q37 33 61.5 49.5 t55.5 55.5q0 2 -10.5 5t-22.5 6t-21.5 5t-7.5 4q-43 -45 -78.5 -78t-69.5 -58.5t-71 -49t-82 -50.5q0 90 11 196q10 107 18 213q6 85 7 164q0 20 -1 40q-2 98 -29 172q-14 10 -32.5 3t-34.5 -9q29 -48 32 -144q1 -25 1 -51q-1 -75 -7 -159q-8 -114 -20 -228.5t-12 -196.5 v-133z" />
<glyph unicode="l" horiz-adv-x="294" d="M71 584v-43q0 -45 1 -89q2 -68 7 -145.5t17 -183.5q6 -55 23.5 -85t41 -43t50.5 -13q28 0 55 4v45q0 8 -12 8t-27.5 4t-32 19.5t-24.5 56.5q-16 74 -16 147q0 76 -4 140q-4 86 -6 172v47q0 63 3 125q4 70 9.5 137t5.5 137q-10 10 -26.5 8t-29.5 -2q-6 -4 -13 -5t-13 -5 q-8 -72 -8 -146v-145q0 -81 -1 -145z" />
<glyph unicode="m" horiz-adv-x="1026" d="M72 6q6 -10 27.5 -9t33.5 3q4 31 6 53.5t9.5 49t23.5 61.5t49 88q14 25 43 64.5t62.5 79.5t70.5 69t66 29q8 -28 8 -59q0 -9 -1 -19q-3 -41 -3 -78v-82t5 -95t16.5 -91t33.5 -70h62q-10 6 -18.5 23.5t-14.5 37t-10 39t-4 29.5q6 47 15 74.5t21 48.5q14 25 43 64.5 t63 79.5t70.5 69t65.5 29q8 -28 8 -59q0 -9 -1 -19q-3 -41 -3 -78q0 -35 1 -82t6 -95t17.5 -91t35.5 -70q23 0 47.5 5.5t42.5 19.5q2 14 4 33.5t-6 29.5q-8 -2 -15.5 -9t-21.5 -7q-20 14 -30.5 60t-14.5 100q-3 44 -3 86v21q1 52 5 79q4 34 10 70q2 13 2 27q0 22 -6 44 q-4 14 -17.5 18.5t-29 2.5t-30.5 -7.5t-23 -9.5q-82 -45 -145.5 -127t-115.5 -166q-1 33 -1 61v28q1 40 4 59q4 34 10 70q2 13 2 27q0 22 -6 44q-4 14 -17.5 18.5t-29 2.5t-30.5 -7.5t-24 -9.5q-49 -27 -91 -67.5t-79 -89t-68.5 -98.5t-58.5 -97q2 18 8.5 71.5t11.5 112 t7 106.5t-4 58q-18 -6 -35.5 -10t-38.5 -8q0 -135 -10 -267.5t-10 -267.5z" />
<glyph unicode="n" horiz-adv-x="673" d="M72 6q6 -10 27.5 -9t33.5 3q4 31 6 53.5t9.5 49t23.5 61.5t49 88q14 25 43 64.5t62.5 79.5t70.5 69t66 29q8 -28 8 -59q0 -9 -1 -19q-3 -41 -3 -78q0 -35 1 -82t6 -95t17.5 -91t34.5 -70q23 0 47.5 5.5t42.5 19.5q2 14 4.5 33.5t-6.5 29.5q-8 -2 -15 -9t-21 -7 q-20 14 -30 60q-12 46 -16 100q-4 45 -3 88v19q1 52 6 79q4 34 10 70q2 13 2 27q0 22 -6 44q-4 14 -17.5 18.5t-29 2.5t-30.5 -7.5t-24 -9.5q-49 -27 -91 -67.5t-79 -89t-68.5 -98.5t-58.5 -97q2 18 8.5 71.5t11.5 112t7 106.5t-4 58q-18 -6 -35.5 -10t-38.5 -8 q0 -135 -10 -267.5t-10 -267.5z" />
<glyph unicode="o" horiz-adv-x="659" d="M73 240q-1 -16 -1 -32q0 -43 10 -82q14 -52 51 -88t96 -42q14 -2 29 -2q66 0 127 39q74 47 126 121q53 73 77 162q14 51 13 98q0 34 -7 65q-12 53 -55 72.5t-90 21.5q-51 0 -85 -4t-55.5 -10t-34 -12t-18.5 -8q-53 -25 -92 -73t-62.5 -106t-28.5 -120zM142 295 q16 84 75 154q10 10 23.5 23t36 25.5t54.5 20.5t79 8q59 0 89.5 -26.5t38.5 -68.5q3 -17 2 -35q0 -28 -6 -59q-12 -52 -36.5 -102.5t-58 -92.5t-70.5 -62q-53 -30 -96 -31q-23 -1 -43 9q-56 26 -80 90q-14 38 -13 83q-1 31 5 64z" />
<glyph unicode="p" horiz-adv-x="710" d="M72 -223q0 -92 1 -183.5t17 -181.5q16 -16 47 -16t47 16l-16 45q-12 35 -17.5 106.5t-7.5 153.5q-1 41 -1 81t1 78q2 77 2 120q11 -1 22 -1q79 0 155 37q88 42 157.5 106.5t115.5 141t57 140.5q2 16 2 30q0 44 -26 75q-30 35 -101 35q-11 0 -23 -1q-88 -6 -183.5 -52 t-164.5 -124q-1 14 -1 27q0 37 8 72q11 48 11 98q-4 2 -11 3t-11 5l-56 -6q-7 -36 -7 -74v-10v-29q0 -28 -1 -57q-6 -160 -11 -317.5t-5 -317.5zM145 41q4 68 5 135q0 68 4 135q10 20 43.5 50t79 57.5t96.5 50.5t96 32q24 5 44 5q18 0 34 -4q33 -8 41 -43q4 -18 4 -36 q0 -42 -22 -88q-31 -67 -89.5 -125t-133.5 -102.5t-146 -56.5z" />
<glyph unicode="q" horiz-adv-x="659" d="M75 152q-3 -20 -3 -39q0 -44 16 -76q18 -40 64 -40q6 0 12 1q29 2 64.5 19.5t69.5 40t64.5 48t51.5 46.5q37 41 62.5 79.5t55.5 98.5q1 -14 1 -37.5t-1 -56.5q-2 -68 -2 -158t8.5 -193.5t33 -202t68.5 -181.5t118 -132q30 -27 67 -27q16 0 33 5l2 6l6 37l-82 26 q-61 20 -105 100.5t-69.5 207t-33.5 295.5q-3 69 -3 142q0 107 7 224q3 42 3 87v22q-1 57 -1 112q0 14 -13 15h-18q-98 0 -177 -41q-87 -45 -150.5 -117t-101.5 -156t-47 -155zM132 90q-3 15 -3 33q0 26 6 59q10 54 38 116t75 117.5t113.5 96.5t152.5 49v-21q0 -48 -7 -110 q-9 -76 -73 -176q-18 -29 -56 -63.5t-79 -65.5t-79 -52.5t-56 -23.5q-25 4 -32 41z" />
<glyph unicode="r" horiz-adv-x="540" d="M72 6q6 -10 27.5 -9t33.5 3q6 4 6 31t1 63.5t5.5 74.5t18.5 64q31 59 65.5 109.5t70.5 87.5t69.5 57.5t64.5 20.5q20 -4 19.5 -25.5t-7.5 -89.5l52 25q4 35 9 60.5t-5 60.5q-4 14 -16.5 21t-28 9t-30.5 0t-24 -6q-25 -14 -57.5 -34.5t-66 -53.5t-66.5 -80t-61 -112 q2 18 7 61t9 87t4 81t-6 47q-18 -6 -35.5 -10t-38.5 -8q0 -135 -10 -267.5t-10 -267.5z" />
<glyph unicode="s" horiz-adv-x="630" d="M72 115l28 -35q37 -47 90.5 -76t109.5 -40q36 -7 71 -7q19 0 39 2q54 6 93.5 30.5t58.5 66.5q12 26 11 59q0 20 -4 43q-8 37 -41.5 65.5t-81 53t-99.5 46t-97 41t-76 40t-35 42.5q0 3 -1 6q0 26 34 48q37 24 90 38q49 13 101 12h7q56 -1 91 -26q20 10 35 31 q-39 35 -113 39q-13 1 -26 1q-61 1 -119 -15q-70 -18 -118 -58q-40 -32 -40 -73q0 -8 2 -17q8 -41 41 -69.5t78 -52t95 -44t94 -41t74 -45t36 -55.5q2 -15 2 -28q0 -41 -24 -61q-32 -26 -81 -27h-6q-46 -1 -97 13q-54 14 -85 31q-27 14 -51.5 32.5t-44.5 41.5 q-6 8 -10.5 16.5t-12.5 16.5q-2 0 -2 -4q-2 -4 -2 -6t-2 -7q0 -4 -3 -18t-9 -10z" />
<glyph unicode="t" horiz-adv-x="534" d="M72 489q0 -14 2 -20q16 -10 29.5 -9t25.5 6t24.5 12t26.5 9l-4 -2v-108q0 -72 4 -151t16.5 -145.5t39.5 -86.5q14 -10 46 -16q9 -2 19 -1q25 1 53 11q39 14 76 54t59 118v4t-18 31q-4 -27 -26.5 -66t-54.5 -66.5t-66 -33.5q-5 -1 -9 -1q-28 0 -49 31q-10 16 -16 53.5 t-8 83.5q-1 31 -1 64v33q1 51 2 95t2 75t1 37q55 14 108.5 22t110.5 8q10 8 20.5 14.5t14.5 20.5q-10 8 -46 6t-77 -8t-78 -13t-51 -9q0 23 2 67.5t5 93t4 90.5t-1 56q-2 6 -3 13t-5 11q-16 0 -41 -7t-35 -21v-160q0 -76 2 -158q-18 -4 -54 -15t-50 -22z" />
<glyph unicode="u" horiz-adv-x="667" d="M68 220q-1 -18 -1 -36q0 -27 2 -55q3 -47 11 -86t29 -45q36 -12 68 -12q35 0 66 14q60 27 106 76t80 102t58 82q2 -25 7.5 -64.5t15.5 -79.5t26.5 -73t45.5 -43l49 31l2 -2q-37 35 -52.5 105.5t-18.5 151.5q-1 30 -1 60q0 50 3 98q5 76 9 123q-12 14 -36.5 13.5 t-40.5 -5.5q2 -61 5 -117v-12q0 -50 -20 -104q-8 -25 -43 -81t-82 -110.5t-99 -88.5q-36 -24 -67 -24q-15 0 -28 5q-10 4 -12.5 11t-4.5 14q-10 52 -10 107q0 31 3 62q9 87 20 169q4 35 15 69.5t13 69.5q-14 12 -32.5 11t-34.5 -5q-29 -61 -35 -131t-12 -137q-2 -19 -4 -63z " />
<glyph unicode="v" horiz-adv-x="555" d="M72 563q-2 -6 4 -37.5t16 -77t22.5 -99.5t25 -103t21.5 -87t13 -53q8 -29 23.5 -63.5t44.5 -50.5h47q41 49 66.5 109.5t44 124t30.5 125t25.5 110.5t29.5 83t41 42l-67 6q-16 -25 -39 -80t-27 -121q-2 -29 -10 -74t-21.5 -94t-33 -98t-41.5 -84q-23 27 -44.5 97.5 t-41 155.5t-34.5 167t-22 131q-23 0 -38 -12.5t-35 -16.5z" />
<glyph unicode="w" horiz-adv-x="800" d="M72 598q20 -66 28 -146q6 -59 7 -107q0 -17 -1 -34q-3 -72 -3 -131v-28v-13q0 -64 -9 -137q29 -35 64 -35q23 16 58.5 75.5t71.5 132.5t66.5 140.5t44.5 100.5q18 -41 40 -102.5t45.5 -123t51 -113.5t58.5 -73h45q33 35 52.5 80t29.5 95q10 49 12 101q1 26 1 50t-1 47 q-1 15 -1 28q0 47 11 77q14 40 41 63q-10 10 -27.5 24.5t-31.5 14.5q-12 -6 -24.5 -32t-19.5 -59.5t-8 -70.5v-8q0 -32 7 -56q2 -36 4 -76q1 -13 1 -27q0 -26 -3 -53q-4 -40 -15.5 -77t-33.5 -70q-31 37 -57.5 94.5t-49 121t-40 127t-31.5 110.5q-12 0 -30.5 4t-29.5 -4 q-16 -16 -47 -77.5t-65.5 -134.5t-67.5 -141.5t-53 -99.5q-2 63 -3 107q0 22 -0.5 41t0.5 35q1 34 2 63t5 61q3 30 3 58q0 14 -1 27q-2 40 -6 72t-8 52.5t-7 26.5h-75z" />
<glyph unicode="x" horiz-adv-x="641" d="M72 -43l41 -4q6 0 32.5 37t57 83t58.5 88l36 54q4 -2 33.5 -31.5t69.5 -67.5t82 -73t71 -43h55q-43 33 -83 69.5t-73.5 73.5t-62.5 70t-51 57q27 31 67.5 85.5t87 108.5t96.5 94t95 40q6 0 0 14.5t-14 25.5t-11 13h-6q-31 0 -76 -37q-49 -41 -99 -99t-94 -118.5 t-69 -95.5q-39 45 -67.5 83t-52.5 91q-6 14 -11.5 35.5t-15.5 36.5q-14 0 -36.5 -4t-33.5 -15q0 -4 6.5 -18t13.5 -29.5t13 -30t8 -16.5q8 -18 25.5 -45t38 -53.5t39 -51t30.5 -38.5q-51 -72 -100 -144.5t-100 -144.5z" />
<glyph unicode="y" horiz-adv-x="659" d="M-135.5 -355q2.5 -30 16 -63t33.5 -61.5t33 -40.5l37 -37q57 -57 136 -96t163 -51q35 -6 70 -6l98 10q84 18 151 71q59 47 87 97q26 47 26 116v10q0 72 -8.5 129.5t-21.5 108.5t-29.5 97t-34.5 96q-20 57 -37 132.5t-21 153.5q-1 21 -1 42q0 43 3 87q4 66 8 127 q-10 14 -35.5 13.5t-41.5 -5.5q0 -14 3 -38.5t3 -55.5t-4 -66.5t-17 -72.5q-8 -25 -49 -75t-91 -99t-101.5 -87t-77.5 -38q-10 0 -12.5 9t-4.5 16q-8 46 -8 94q0 36 5 73q10 87 16 171q2 12 6 30.5t9 39t9 38.5t4 31q-12 12 -31.5 11t-35.5 -5q-29 -61 -35 -132t-12 -136 q-2 -18 -3 -63v-29q0 -31 1 -62q2 -47 11 -86t28 -45q14 -5 30 -5q31 0 68 19q55 29 109.5 75t100.5 95t70 78q6 -41 16.5 -89t28.5 -118q16 -61 34 -116.5t32 -114t22 -122.5q5 -51 5 -113v-33q-2 -78 -39 -124t-94 -66q-49 -18 -106 -18q-11 0 -22 1q-71 4 -141.5 27.5 t-132 65.5t-102.5 97q-18 27 -22.5 32t-12.5 15q-24 46 -24 69q0 21 30 21q14 0 33 -4q6 8 4 10.5t2 12.5q-12 10 -27.5 12t-32 0t-30.5 -7t-21 -9q-25 -14 -22.5 -44z" />
<glyph unicode="z" horiz-adv-x="757" d="M72 -16l39 4q77 16 163 23q66 5 131 5h36q81 -2 148.5 -14t106.5 -33l4 45q-45 31 -106.5 42.5t-130.5 11.5q-68 0 -138.5 -7.5t-134.5 -13.5q61 84 135 158t145 138.5t131.5 121.5t94.5 110q-10 4 -22 7.5t-25 7.5q-72 -10 -139.5 -20.5t-129.5 -15.5q-44 -4 -84 -3h-31 q-54 2 -97 16q-4 -14 -6 -28.5t-4 -28.5q53 -9 112 -9q44 0 92 5q112 12 250 35q-43 -39 -102 -85t-129 -109.5t-148.5 -152t-160.5 -210.5z" />
<glyph unicode="{" horiz-adv-x="366" d="M75 -55.5q-7 67.5 14.5 141.5t53 148.5t35.5 138.5q2 41 -21.5 76.5t-47.5 66.5q25 31 48 68t21 78q-4 63 -35.5 137.5t-53 148.5t-14.5 140.5t81 113.5q33 23 68.5 29t84.5 2l-8 -35q-74 -4 -107.5 -32.5t-41 -71.5t5 -97.5t31 -110t37 -106.5t24.5 -88q6 -53 -19.5 -99 t-70.5 -75q10 -14 29.5 -29.5t27.5 -31.5q29 -57 26 -117.5t-24 -118.5q-14 -41 -27.5 -72.5t-22.5 -61.5t-13 -63.5t0 -80.5q4 -63 47 -84t98 -25l-2 -35q-82 -10 -143 31q-74 47 -81 114.5z" />
<glyph unicode="|" horiz-adv-x="221" d="M72 754q0 -104 2 -187.5t6 -161t7 -160.5t7 -188q0 -12 2 -43.5t4 -69.5t4 -78t5 -67h55l-21 394q-2 53 -6 113.5t-7 121.5t-5 121.5t-2 114.5q0 92 -1 184t-1 184q0 18 2 44t4 53.5t4 53t2 44.5q-4 14 -22.5 5t-26.5 -11q-2 -10 -4 -22.5t-4 -22.5q-2 -27 -3 -84.5 t-1 -120.5v-125v-92z" />
<glyph unicode="}" horiz-adv-x="366" d="M72 1233l6 -35q74 -4 107.5 -32.5t40.5 -71.5t-5 -97.5t-30.5 -110t-38 -106.5t-23.5 -88q-6 -53 19.5 -99t70.5 -75q-10 -14 -29.5 -29.5t-27.5 -31.5q-29 -57 -26 -117.5t24 -118.5q14 -41 27.5 -72.5t22.5 -61.5t14 -63.5t1 -80.5q-4 -63 -48 -84t-99 -25l2 -35 q82 -10 145 31q74 47 81 114.5t-14.5 141.5t-53 148.5t-35.5 138.5q-2 41 21.5 76.5t45.5 66.5q-23 31 -46 68t-21 78q4 63 35.5 137.5t53 148.5t14.5 140.5t-81 113.5q-35 23 -69.5 29t-83.5 2z" />
<glyph unicode="~" horiz-adv-x="813" d="M72 764q6 -6 11 -13.5t11 -11.5q4 18 19.5 40t36 40.5t42 29.5t39.5 11q14 -6 28.5 -9t29.5 -7q76 -23 147.5 -54.5t149.5 -50.5q37 -10 66.5 5.5t51 44t35 65.5t17.5 72q-8 2 -14.5 3t-14.5 1q-6 -14 -14 -35t-19 -31q-8 -10 -18 -21.5t-23.5 -20.5t-30 -14t-36.5 -1 q-23 4 -67 20.5t-93 35t-94 35.5t-72 26q-39 8 -67.5 -2.5t-51 -33t-40 -55t-29.5 -69.5z" />
<glyph unicode="&#xa1;" horiz-adv-x="249" d="M73 220q1 -79 3 -150.5t6 -128t8 -80.5h-2q10 -12 19.5 -13.5t17.5 4t18.5 10.5t22.5 5q-8 10 -11 53t-4 93t-1 93v58q-2 80 3 150.5t11 125t9 87t-3 38.5q-4 4 -15.5 6t-25.5 2q-12 0 -23.5 -2t-17.5 -4q-6 -23 -9 -76t-5 -122.5t-1 -148.5zM104.5 832.5 q1.5 -29.5 1.5 -62.5q12 -8 34 -10t32 10q4 31 12.5 59.5t8.5 59.5q-10 10 -36 7t-38 -5q-16 -29 -14.5 -58.5z" />
<glyph unicode="&#xa2;" horiz-adv-x="692" d="M72 -143l2 -2q6 0 28 6q29 8 43 30q6 6 9.5 11.5t9.5 13.5q12 23 25.5 46.5t27.5 47.5q80 -29 172 -11.5t154 77.5q27 25 47 54.5t45 55.5q-31 -4 -49.5 -14t-32.5 -24.5t-29.5 -30t-38.5 -31.5q-25 -16 -55.5 -27.5t-62 -15.5t-64.5 -1t-59 13q43 78 93 162t103 180 l64 113q18 -4 30.5 -15.5t21.5 -18.5t15.5 -1t8.5 37q2 41 -37 63l37 56q4 6 10 19.5t16 27.5q10 16 17.5 29.5t11.5 21.5q-4 2 -9 3t-20 1q-23 0 -34 -2t-15 -6t-3 -7t-3 -5q-8 -18 -12 -27.5t-8.5 -19t-13.5 -24.5t-28 -50q-35 6 -75.5 3t-83.5 -17.5t-85 -38t-77 -60.5 q-29 -29 -49.5 -67.5t-31.5 -81.5t-12 -88t9 -84q10 -43 34.5 -75t59.5 -52l-4 -6q-10 -16 -22.5 -37t-24.5 -43q-20 -35 -35.5 -58.5t-19.5 -29.5zM152 221q-2 53 11 104.5t43 95.5t73 77q31 23 64.5 36t74.5 9q8 -2 19.5 -3t21.5 -5q-4 -10 -9.5 -18.5t-9.5 -16.5 q-20 -35 -38.5 -70t-39.5 -70q-29 -49 -53 -94t-47 -86q-16 -31 -30.5 -56.5t-26.5 -45.5q-23 18 -31 41q-20 49 -22 102z" />
<glyph unicode="&#xa3;" horiz-adv-x="952" d="M20 25q10 10 19.5 16t19 16.5t21.5 29.5t29 54q16 37 32.5 84t31.5 98.5t30.5 103.5t32.5 99q-29 -2 -60 -3t-59 -3q4 16 6 28.5t6 29.5h125q25 68 47.5 139t58 136t89 118t139.5 84q27 10 61.5 9t67.5 -13.5t58.5 -37t35.5 -61.5q-4 -16 -9 -22t-22 -25 q-10 41 -39.5 63.5t-67.5 27.5t-78 -5t-71 -33q-35 -27 -64.5 -71.5t-55 -98t-47 -108.5t-40.5 -100h95h331q-4 -10 -6 -19.5t-6 -19.5q-68 -2 -157 -3t-156 -3q-29 -2 -60 -3q-31 0 -59 -2q-35 -96 -65.5 -200.5t-55.5 -169.5q49 35 119 20q45 -10 81 -22.5t66.5 -27.5 t59 -31.5t57.5 -32.5q33 -23 81 -44.5t95 -31.5q41 -10 81 -1t95 34q8 -10 13.5 -11.5t1.5 -11.5q-12 -6 -35 -20.5t-52.5 -26.5t-66.5 -16.5t-78 8.5q-25 8 -54.5 20t-72.5 35q-37 18 -69.5 38.5t-68.5 37t-77 30t-94 17.5q-74 14 -117 -35q-2 -4 -13 -14.5t-25.5 -23.5 t-31 -27.5t-30.5 -22.5q-8 8 -18.5 13t-4.5 12z" />
<glyph unicode="&#xa4;" horiz-adv-x="784" d="M72 315q8 -14 15 -24t15 -25q18 20 45 48t58 61q39 -25 85 -35t93 -7t92 18.5t82 43.5q41 -41 76 -76.5t59 -60.5q10 6 17.5 12.5t17.5 10.5q-25 29 -60.5 65.5t-76.5 77.5q29 29 45 66.5t20 84.5q4 53 -6 107q-8 57 -55 100q31 31 57.5 58.5t44.5 48.5q-4 10 -9 17 t-9 18l-117 -115q-68 43 -164 46t-176 -40l-96 103l-43 -41l92 -93q-43 -35 -68.5 -86t-25.5 -123q0 -49 24.5 -92t59.5 -75zM154 582q0 72 32.5 122t81.5 76.5t105.5 30.5t105.5 -16.5t82 -63t33 -110.5q0 -86 -32 -138.5t-81 -75t-106.5 -18.5t-106.5 28.5t-81.5 67.5 t-32.5 97z" />
<glyph unicode="&#xa5;" horiz-adv-x="804" d="M72 895q0 -4 34.5 -52t80.5 -109.5t89 -119t60 -82.5q-2 -10 -3 -24t-3 -31l-242 -2q-4 -16 -6 -28.5t-6 -28.5q61 4 124.5 7t127.5 5q-4 -45 -4 -96v-103l-236 -2q-4 -16 -6 -28.5t-6 -28.5q61 4 123.5 7t126.5 5q2 -57 5 -105t9 -75q20 -25 46 -28t52 -3l6 13 q7 14 2 45q-2 8 -16 10t-18 8q-8 10 -10.5 51t-2.5 86q66 4 146 4q82 0 145 3q4 10 6 19t6 19h-303v76q-2 23 -3 55.5t1 69.5q66 4 148 4t145 2q4 10 6 19.5t6 19.5h-303q2 16 4.5 33.5t6.5 34.5q18 27 54 74t81 99t98 104t106.5 89t102.5 53.5t90 -1.5q0 2 4 19t4 38 q0 20 -10 20q-57 2 -115.5 -22.5t-115 -67.5t-106.5 -95t-93 -104.5t-76 -97.5t-51 -69q-25 27 -66 85t-78.5 118.5t-66.5 106.5t-31 46q-4 -2 -15 -7t-22.5 -12.5t-21.5 -14.5t-10 -11z" />
<glyph unicode="&#xa7;" horiz-adv-x="622" d="M72 84l28 -37q57 -74 140.5 -106.5t157 -23.5t119.5 62.5t28 151.5q-6 39 -32 65.5t-52 45.5q16 10 34.5 22t33 28.5t22.5 37t4 45.5q-8 43 -39 75.5t-73 58.5t-90 48.5t-90 45t-70.5 49t-34.5 61.5q-10 68 20.5 95.5t77.5 29.5t97 -13.5t81 -33.5q27 -16 41 -28.5 t24.5 -25t20.5 -27t27 -36.5q6 10 7 27.5t11 21.5l-26 39q-35 51 -85.5 83t-103.5 44t-105 5t-90 -33.5t-56.5 -73t-6.5 -111.5q6 -35 29.5 -62t50.5 -45q-18 -10 -35.5 -22t-32 -29.5t-20.5 -39t-2 -46.5q8 -43 39 -75.5t73 -58.5t90 -47.5t90 -44t70.5 -49t34.5 -61.5 q10 -70 -20.5 -97.5t-77.5 -29.5t-97.5 13.5t-80.5 33.5q-25 16 -39 28.5t-25.5 25t-22 27t-26.5 36.5q-6 -10 -7 -27.5t-11 -21.5zM145.5 484.5q14.5 27.5 77.5 52.5q16 -10 55 -26.5t81 -37t80 -45.5t53.5 -51.5t0 -54t-78.5 -52.5q-16 10 -55.5 26.5t-81 38t-78.5 46.5 t-52.5 50.5t-1 53z" />
<glyph unicode="&#xa8;" horiz-adv-x="464" d="M72 995q0 -18 6 -32q23 -8 51 -9q18 18 31.5 40t17.5 46q2 2 2 4q0 3 2 5q-25 29 -76 28q-16 -10 -25 -33.5t-9 -48.5zM297 995q0 -18 6 -32q23 -8 51 -9q18 18 31.5 40t17.5 46q2 2 3 4q0 3 2 5q-25 29 -76 28q-16 -10 -25.5 -33.5t-9.5 -48.5z" />
<glyph unicode="&#xa9;" horiz-adv-x="872" d="M72 709q0 -143 108 -248q86 -82 195.5 -98.5t208 20.5t165 124t66.5 210q0 141 -100 248q-86 90 -196.5 107.5t-210 -22.5t-168 -129.5t-68.5 -211.5zM131 711q0 106 46 178t113.5 107.5t147.5 35.5q82 0 149.5 -35.5t114 -106.5t46.5 -177q0 -104 -46.5 -172t-114 -103 t-148.5 -33.5t-148.5 35t-113.5 101t-46 170.5zM213 631q0 -57 24.5 -90t63.5 -48.5t86 -13.5t91 16.5t79 40t49 56.5q-17 12 -31 2q-10 -4 -26 -21q-27 -27 -67 -41t-76 -16q-57 -2 -90 22.5t-43.5 63.5t1 85t44 88t85 75t123.5 43q10 0 17.5 1t15.5 -3q-8 -16 -16 -21h2 l4 7v2l-6 -13q-4 0 -10.5 -8t-9.5 -17.5t1 -17.5t23 -8q23 0 38 14.5t19 35t-3 39t-29.5 26.5t-48 4t-48.5 -12q-47 -14 -94 -42t-84 -65t-60.5 -84t-23.5 -100z" />
<glyph unicode="&#xaa;" horiz-adv-x="724" d="M75 731q-9 -51 11 -84t74 -29q29 2 62.5 14.5t67.5 29t62.5 35t46.5 32.5q35 29 59.5 58.5t53.5 70.5q10 -55 19.5 -110.5t31.5 -108.5q43 -31 96 -16l3 4l6 26l-31 9q-23 59 -36 118.5t-23 120.5q-6 39 -12.5 77t-6.5 79q0 10 -10 10q-104 4 -187 -28.5t-144.5 -84 t-97.5 -112t-45 -111.5zM127 713.5q2 54.5 42 121t121 123t206 66.5q2 -41 -9.5 -98.5t-72.5 -130.5q-16 -20 -52 -44t-75 -44.5t-74 -35t-53 -16.5q-35 4 -33 58.5z" />
<glyph unicode="&#xab;" d="M72 332q23 -18 37 -27.5t43 -30.5q47 -31 98 -79t82 -95q8 -12 15 -24.5t18 -22.5q18 4 36.5 15.5t30.5 27.5q-41 78 -103.5 140.5t-133.5 111.5q61 45 113 101.5t98 117.5q-4 14 -14.5 18.5t-22.5 8.5q-16 -12 -28.5 -27.5t-25.5 -31.5q-16 -20 -36.5 -44t-44 -47.5 t-47 -43t-46.5 -31.5q-4 -4 -10 -5.5t-10 -5.5zM338 332q23 -18 37 -27.5t43 -30.5q47 -31 98 -79t82 -95q8 -12 15.5 -24.5t17.5 -22.5q18 4 36.5 15.5t30.5 27.5q-41 78 -103.5 140.5t-133.5 111.5q61 45 113.5 101.5t97.5 117.5q-4 14 -14.5 18.5t-22.5 8.5 q-16 -12 -28.5 -27.5t-24.5 -31.5q-16 -20 -37 -44t-44.5 -47.5t-47 -43t-45.5 -31.5q-4 -4 -10.5 -5.5t-10.5 -5.5z" />
<glyph unicode="&#xac;" horiz-adv-x="757" />
<glyph unicode="&#xad;" d="M72 397q74 4 150.5 7.5t150.5 7.5q68 2 156.5 3t156.5 3q4 10 6 19.5t6 19.5h-331l-283 -2q-4 -16 -6 -28.5t-6 -29.5z" />
<glyph unicode="&#xae;" horiz-adv-x="872" d="M72 709q0 -145 108 -248q104 -102 262 -103q119 1 215 62q6 4 22.5 17.5t20.5 19.5q115 94 115 260q0 141 -100 248q-106 113 -264 112q-160 0 -271 -112q-109 -109 -108 -256zM131 711q0 129 86 225q92 98 229 98q57 0 107.5 -21.5t93.5 -62.5q100 -94 101 -237 q0 -139 -93 -226q-4 2 -18 13q-16 14 -42 46t-67 93q-14 20 -29.5 49t-29.5 51q16 8 37.5 22.5t40 33t32 39t13.5 45.5q2 45 -31 62t-79 16t-92 -15t-71 -29q-4 -4 -11 -8t-15 -8t-15.5 -8t-11.5 -8q-6 -6 0 -17l2 -2l2 -4q0 -2 1 -4t-1 -12q16 10 24.5 14t24.5 14 q-2 -37 -3 -79.5t-1 -79.5q2 -41 3 -98.5t-11 -94.5q-10 -4 -4 -10q2 0 6 -1t8 -1h9q2 0 4 -2h6q4 0 7 1l3 1q6 6 0 8q4 37 5 56.5t1 35.5t-1 37t1 57q27 6 44.5 10.5t35.5 12.5l9 -13.5t10 -13.5q25 -35 47 -69.5t47 -71.5q23 -33 46 -53.5t44 -32.5q-84 -66 -193 -66 q-131 0 -221 89q-90 90 -90 219zM352 731q0 35 1 78t5 80q10 4 21.5 7t21.5 7q12 2 28.5 5t34 6.5t34.5 3.5q16 -1 26 -3q27 -8 25 -41q-2 -41 -38 -71.5t-71 -46.5q-23 -10 -44 -15.5t-44 -9.5z" />
<glyph unicode="&#xb0;" horiz-adv-x="604" d="M72 891q0 -74 71 -141q66 -59 148 -60h8q117 2 180 64q58 51 68 137v22q0 16 -1 33t-3 33q-12 66 -68.5 103.5t-136.5 37.5h-6q-119 0 -189.5 -59.5t-70.5 -169.5zM133 897q0 88 53.5 137t145.5 49h6q63 0 102 -32.5t49 -92.5q7 -12 7 -30q-2 -88 -46 -139.5t-120 -51.5 q-37 0 -70 11.5t-61 31.5q-66 47 -66 117z" />
<glyph unicode="&#xb1;" d="M72 8q74 4 150.5 7t150.5 8q68 2 156.5 3t156.5 3q4 10 6 19.5t6 19.5h-331l-283 -2q-4 -16 -6 -28.5t-6 -29.5zM72 397q74 4 147.5 7.5t147.5 7.5q-2 -39 -3.5 -69t-1.5 -58q0 -27 -1 -56.5t-1 -68.5q25 -4 41 -8q2 41 3.5 71.5t2.5 59t3 58.5t4 71q68 2 136 3t136 3 q4 10 6 19.5t6 19.5h-282l10 264h-59q0 -66 -1 -132.5t1 -131.5l-283 -2q-4 -16 -6 -28.5t-6 -29.5z" />
<glyph unicode="&#xb2;" horiz-adv-x="571" d="M73 934.5q-1 -19.5 6 -35.5t30 -22q10 12 11 21t-2 17.5t-6 16.5t-3 16q4 33 25.5 53.5t47.5 32.5q57 27 120 25t112 -43q20 -16 33.5 -38t13.5 -50q0 -68 -36 -100.5t-120 -49.5q-14 0 -45 -6q-90 -20 -133 -87t-53 -155v-18q4 -2 26.5 3t50 11t52 13.5t35.5 9.5 q53 10 100 1t86 -24q14 -6 27.5 -12t29.5 -6l11 14q12 7 16 15l6 12q-33 23 -82 33t-104 10q-53 0 -108.5 -8.5t-98.5 -24.5q16 51 32.5 84t37 53.5t48 31.5t64.5 22q37 4 73 11t64.5 23.5t46 47t17.5 83.5q0 78 -45 114t-107 52q-29 8 -65 9q-37 0 -74 -9.5t-68.5 -28 t-50.5 -46.5q-8 -12 -14 -32t-7 -39.5z" />
<glyph unicode="&#xb3;" horiz-adv-x="645" d="M73 642.5q1 -21.5 9 -42t18 -35.5q23 -31 59 -52t78 -32.5t83.5 -13.5t76.5 6q37 8 71 22.5t60.5 37t43 54t16.5 72.5q0 49 -21.5 84t-53.5 56.5t-68.5 32t-67.5 12.5q27 10 51.5 19t42.5 30q18 16 29.5 37.5t9.5 56.5q-2 33 -21.5 53.5t-48 30.5t-59.5 12t-53 2 q-55 -4 -89 -22.5t-50.5 -38.5t-21.5 -38l-5 -17q2 -23 19.5 -34t35.5 1l-8 37q6 33 47 52t87 21.5t82 -13t36 -48.5q4 -29 -13.5 -52.5t-48 -41t-68.5 -29.5t-73 -20l4 -31q14 8 43 4q14 -2 30.5 -3t39.5 -5q72 -8 118 -46t46 -112q0 -29 -16.5 -53.5t-39.5 -40.5 q-59 -47 -136 -48t-142 28q-31 12 -59.5 35.5t-30.5 58.5q0 8 4 17t8 18.5t2 18.5t-14 19q-25 -6 -34 -22t-8 -37.5z" />
<glyph unicode="&#xb4;" horiz-adv-x="423" d="M72 891l2 -4q53 59 104 94t92 55.5t67 28.5t30 14q-6 10 -19.5 25.5t-23.5 21.5q-16 -8 -45 -21t-64 -40t-73 -69t-70 -105z" />
<glyph unicode="&#xb6;" horiz-adv-x="1034" d="M72 668q2 -35 24.5 -77t73.5 -79t132 -65.5t198 -34.5v-76q-2 -190 -22.5 -346t-54.5 -271.5t-79 -188.5t-94 -97q-35 -2 -52.5 -22.5t-18.5 -42t13.5 -35t42 -2t69.5 56.5t97 141q63 111 101.5 266.5t54.5 328.5t12 347t-22 320q-10 63 -20.5 118.5t-28.5 116.5 q41 4 83 3t81 -5q4 -92 5 -205.5t-1 -208.5q0 -35 2 -69.5t0 -71.5q-4 -84 -8.5 -179t-6.5 -190.5t4.5 -185.5t24.5 -164q0 2 3 -10t5 -14q18 -33 39 -51.5t41.5 -29t38.5 -15.5t35 -11q4 0 13 -5t13 -1q-37 20 -57 44t-31.5 44t-14.5 34.5t-5 16.5q-18 37 -27.5 122 t-12.5 189.5t-1 214t6 195.5q2 35 3 64.5t1 52.5q2 98 3 211.5t-3 208.5q68 -18 113 -54q39 -31 61.5 -69.5t24.5 -72.5t-20.5 -54.5t-71.5 -11.5q-8 -10 -9.5 -7.5t-7.5 -7.5q29 -10 65 -11t58 30q45 61 32 123.5t-67.5 112.5t-138.5 83t-183.5 34t-202.5 -36t-194 -125 q-59 -57 -87.5 -115.5t-30.5 -132.5v-28zM160 729q10 121 84.5 188.5t177.5 94.5v-2q18 -100 32.5 -163t23.5 -116t14.5 -110.5t5.5 -143.5q-96 12 -163 38t-107 59.5t-56 73.5t-12 81z" />
<glyph unicode="&#xb7;" horiz-adv-x="237" d="M72 506q0 -27 6 -47q18 -8 51 -8q41 41 47 86l2 4q0 2 2 6q-29 29 -74 28q-31 -25 -34 -69z" />
<glyph unicode="&#xb8;" horiz-adv-x="530" d="M73 -304q3 -9 9 -14.5t14 -0.5q63 8 125 26.5t121 54.5q18 12 44 26.5t47.5 36t32.5 52.5t3 74t-47 68.5t-74 27.5q-14 6 -27.5 3t-19.5 -10t0 -17.5t33 -18.5q61 -20 74.5 -49t-1 -58.5t-45 -56.5t-57.5 -45q-45 -29 -104.5 -41t-108.5 -22q-14 -6 -18 -16.5t-1 -19.5z " />
<glyph unicode="&#xb9;" horiz-adv-x="292" d="M72 942q0 -6 6 -6q29 4 53 12q20 4 33 2q10 -4 14 -22.5t0 -65.5q-2 -41 -2 -61t2 -37q0 -16 1 -36.5l3 -61.5v-82q0 -27 1 -52.5t5 -42.5h48l-9 179q0 8 -1 29.5t-1 45.5v54v49v158q0 16 3 37.5t3 37.5l-8 4t-18 2q-35 -84 -113 -110l-10 -4q-4 -2 -4 -3l-2 -3l-2 -13 l-2 -8v-2z" />
<glyph unicode="&#xbb;" d="M72 96q43 78 104.5 140.5t132.5 111.5q-61 45 -112.5 101.5t-98.5 117.5q4 14 15.5 18.5t21.5 8.5q16 -12 28.5 -27.5t24.5 -31.5q16 -20 37 -44t44.5 -47.5t47 -43t45.5 -31.5q6 -4 11.5 -5.5t9.5 -5.5l49 -26q-23 -18 -36 -27.5t-44 -30.5q-47 -31 -97 -79t-83 -95 q-8 -12 -15 -24.5t-18 -22.5q-18 4 -36.5 15.5t-30.5 27.5zM338 96q43 78 104.5 140.5t132.5 111.5q-61 45 -112 101.5t-98 117.5q4 14 15 18.5t21 8.5q16 -12 28.5 -27.5t25.5 -31.5q16 -20 36.5 -44t44 -47.5t47 -43t46.5 -31.5q6 -4 11 -5.5t9 -5.5l49 -26 q-23 -18 -36 -27.5t-44 -30.5q-47 -31 -97 -79t-83 -95q-8 -12 -15 -24.5t-17 -22.5q-18 4 -37 15.5t-31 27.5z" />
<glyph unicode="&#xbc;" horiz-adv-x="1210" d="M72 942q0 -6 6 -6q29 4 53 12q20 4 33 2q10 -4 14 -22.5t0 -65.5q-2 -41 -2 -61t2 -37q0 -16 1 -36.5l3 -61.5v-82q0 -27 1 -52.5t5 -42.5h48l-9 179q0 8 -1 29.5t-1 45.5v54v49v158q0 16 3 37.5t3 37.5l-8 4t-18 2q-35 -84 -113 -110l-10 -4q-4 -2 -4 -3l-2 -3l-2 -13 l-2 -8v-2zM135 -20l2 -3q6 0 29 7q29 8 43 30q6 6 9 11.5t9 13.5q57 102 127 221t150 260q45 78 91 159t95 167q4 6 10.5 19.5t16.5 27.5q10 16 17 29.5t11 21.5q-4 2 -9 3t-19 1q-23 0 -34 -2t-15 -6t-3 -7t-3 -5q-18 -43 -50 -104.5t-77 -143.5q-8 -14 -15.5 -28.5 t-15.5 -28.5q-20 -35 -39 -70t-39 -70q-29 -49 -53.5 -94t-46.5 -86q-31 -55 -52.5 -94t-35.5 -62q-10 -16 -22.5 -36.5t-25.5 -42.5q-20 -35 -35.5 -58.5t-19.5 -29.5zM645 213q10 0 31 8q2 2 20.5 8.5t40 12.5t41 11t25.5 7q29 10 47 14.5t47 8.5q-4 -27 -7 -67t-4 -82 t3 -80t18 -62q14 2 29.5 9t24.5 22q-2 6 -4.5 10t-4.5 8q-8 25 -11 56.5t-2 65.5t4 66.5t7 57.5q23 4 50.5 6t50.5 2q14 -4 36.5 -18.5t32.5 -16.5q37 -2 34 15.5t-15 29.5q-10 8 -34 12.5t-51.5 5.5t-55 0t-42.5 -4q10 57 16.5 118t6.5 120q-10 -2 -31.5 -18.5t-25.5 -22.5 q-2 -18 -1 -26.5t-1 -36.5q-4 -35 -6.5 -69t-12.5 -69q-49 -4 -93 -16t-91 -27q6 23 22.5 70t30.5 107q16 66 25.5 135t-7.5 133q-33 0 -47 -8.5t-18 -20.5q27 -45 27 -104q0 -57 -14.5 -117.5t-37 -118t-41.5 -100.5q2 -4 -9 -15.5t-3 -19.5z" />
<glyph unicode="&#xbd;" horiz-adv-x="1101" d="M72 942q0 -6 6 -6q29 4 53 12q20 4 33 2q10 -4 14 -22.5t0 -65.5q-2 -41 -2 -61t2 -37q0 -16 1 -36.5l3 -61.5v-82q0 -27 1 -52.5t5 -42.5h48l-9 179q0 8 -1 29.5t-1 45.5v54v49v158q0 16 3 37.5t3 37.5l-8 4t-18 2q-35 -84 -113 -110l-10 -4q-4 -2 -4 -3l-2 -3l-2 -13 l-2 -8v-2zM135 -20l2 -3q6 0 29 7q29 8 43 30q6 6 9 11.5t9 13.5q57 102 127 221t150 260q45 78 91 159t95 167q4 6 10.5 19.5t16.5 27.5q10 16 17 29.5t11 21.5q-4 2 -9 3t-19 1q-23 0 -34 -2t-15 -6t-3 -7t-3 -5q-18 -43 -50 -104.5t-77 -143.5q-8 -14 -15.5 -28.5 t-15.5 -28.5q-20 -35 -39 -70t-39 -70q-29 -49 -53.5 -94t-46.5 -86q-31 -55 -52.5 -94t-35.5 -62q-10 -16 -22.5 -36.5t-25.5 -42.5q-20 -35 -35.5 -58.5t-19.5 -29.5zM601 400.5q-1 -19.5 6 -35t30 -21.5q12 10 13 19.5t-2 17.5t-6 16.5t-3 16.5q4 33 25.5 53t48.5 33 q57 29 119.5 25.5t111.5 -44.5q18 -16 31.5 -37.5t13.5 -48.5q0 -70 -34.5 -102.5t-120.5 -46.5q-4 -2 -15.5 -3t-27.5 -5q-90 -20 -133.5 -87t-53.5 -155q-2 -4 -2 -19q4 0 27.5 5.5t51.5 11.5t52.5 12t34.5 8q53 10 100 1t84 -23q16 -4 29.5 -10.5t30.5 -6.5l10 15 q12 2 16 12l6 12q-33 23 -82 34t-104 11q-53 0 -108.5 -9t-98.5 -25q14 51 30.5 83.5t38 54t49.5 33t65 19.5q37 4 72.5 11t64 23.5t46 47.5t17.5 84q0 78 -46 114.5t-105 53.5q-29 6 -66 6t-73.5 -9t-68.5 -27.5t-50 -47.5q-8 -12 -15.5 -31.5t-8.5 -39z" />
<glyph unicode="&#xbe;" horiz-adv-x="1392" d="M73 642.5q1 -21.5 9 -42t18 -35.5q23 -31 59 -52t78 -32.5t83.5 -13.5t76.5 6q37 8 71 22.5t60.5 37t43 54t16.5 72.5q0 49 -21.5 84t-53.5 56.5t-68.5 32t-67.5 12.5q27 10 51.5 19t42.5 30q18 16 29.5 37.5t9.5 56.5q-2 33 -21.5 53.5t-48 30.5t-59.5 12t-53 2 q-55 -4 -89 -22.5t-50.5 -38.5t-21.5 -38l-5 -17q2 -23 19.5 -34t35.5 1l-8 37q6 33 47 52t87 21.5t82 -13t36 -48.5q4 -29 -13.5 -52.5t-48 -41t-68.5 -29.5t-73 -20l4 -31q14 8 43 4q14 -2 30.5 -3t39.5 -5q72 -8 118 -46t46 -112q0 -29 -16.5 -53.5t-39.5 -40.5 q-59 -47 -136 -48t-142 28q-31 12 -59.5 35.5t-30.5 58.5q0 8 4 17t8 18.5t2 18.5t-14 19q-25 -6 -34 -22t-8 -37.5zM317 -20l2 -3q6 0 29 7q29 8 43 30q6 6 9 11.5t10 13.5q57 102 125.5 221t150.5 260q43 78 90 159t96 167q4 6 10.5 19.5t16.5 27.5q10 16 17.5 29.5 t11.5 21.5q-4 2 -9.5 3t-19.5 1q-23 0 -34 -2t-15 -6t-3 -7t-3 -5q-18 -43 -50 -104.5t-77 -143.5q-8 -14 -15.5 -28.5t-15.5 -28.5q-20 -35 -38.5 -70t-39.5 -70q-29 -49 -53.5 -94t-46.5 -86q-31 -55 -53.5 -94t-34.5 -62q-10 -16 -22.5 -36.5t-24.5 -42.5 q-20 -35 -35.5 -58.5t-20.5 -29.5zM827 213q10 0 31 8q2 2 20.5 8.5t40 12.5t41 11t25.5 7q29 10 47.5 14.5t46.5 8.5q-4 -27 -8 -67t-5 -82t4 -80t17 -62q14 2 31 9t23 22l-6 18q-10 25 -12.5 56.5t-1.5 65.5t4 66.5t8 57.5q23 4 50 6t50 2q14 -4 37 -18.5t33 -16.5 q35 -2 32.5 15.5t-14.5 29.5q-10 8 -33.5 12.5t-52.5 5.5t-55.5 0t-42.5 -4q10 57 16 118t6 120q-10 -2 -31.5 -18.5t-25.5 -22.5q-2 -18 0 -26.5t-2 -36.5q-4 -35 -6 -69t-13 -69q-49 -4 -92 -16t-90 -27q6 23 21.5 70t31.5 107q16 66 25.5 135t-6.5 133q-33 0 -47.5 -8.5 t-20.5 -20.5q27 -45 27 -104q0 -57 -14.5 -117.5t-36 -118t-39.5 -100.5q0 -4 -11.5 -15.5t-1.5 -19.5z" />
<glyph unicode="&#xbf;" horiz-adv-x="866" d="M72 127q-2 -59 19.5 -104.5t58 -77t85 -52t99.5 -32.5q49 -12 110.5 -9t121 19t111.5 47t85 76q12 18 26.5 48t18.5 60.5t-7.5 55t-47.5 32.5q-20 -16 -21.5 -30.5t4.5 -26.5q4 -12 10.5 -24.5t4.5 -26.5q-4 -51 -47.5 -86t-86.5 -53q-49 -20 -102 -30.5t-106.5 -8.5 t-103.5 18.5t-91 48.5q-33 27 -56.5 62t-21.5 78q4 111 74 167t174 68q31 4 41 8t31 8q84 20 114.5 68.5t23.5 98t-45 87t-91 39.5v-14l-2 -18q37 -6 62.5 -38t25.5 -69t-32 -69.5t-108 -43.5q-51 -8 -108 -24.5t-106.5 -48t-82 -80.5t-34.5 -123zM449 797q10 -10 34.5 -7 t36.5 5q14 29 9 58.5t-9 61.5q-12 8 -33.5 10.5t-31.5 -10.5q2 -31 -4 -59t-2 -59z" />
<glyph unicode="&#xc0;" horiz-adv-x="1105" d="M27 -37q12 -16 42.5 -9t41.5 19q16 18 49 69.5t66.5 113t64.5 122t45 99.5q10 27 21.5 51.5t23.5 50.5q72 10 144.5 19.5t144.5 21.5q18 -59 48 -138t66.5 -158t81.5 -145.5t95 -101.5q27 0 61 14.5t57 24.5l-39 50q-10 -4 -19 -8.5t-20 -4.5q-47 45 -87 102.5t-71.5 120 t-56 128t-43.5 126.5v2l140 19q-14 4 -24.5 13t-22.5 14l-101 -13q-16 55 -36.5 122t-41 134.5t-36 132t-23.5 117.5q-2 8 -3 14.5t-7 12.5q-18 0 -42 -6.5t-38 -20.5q4 -6 12 -26.5t6 -26.5l-43 -144q-8 -29 -22.5 -69.5t-30.5 -86.5t-35.5 -96.5t-40.5 -95.5l-75 -8 q-2 -14 -3.5 -28.5t-1.5 -28.5l56 8q-16 -37 -32.5 -67.5t-29 -53t-38 -67.5t-54.5 -94.5t-56.5 -93.5t-41.5 -64q-4 -4 -19.5 -21.5t-15.5 -21.5zM397 1389q4 -6 30 -14.5t67 -29t92 -55.5t104 -94l2 4q-33 63 -69.5 105.5t-71.5 68t-63.5 39.5t-45.5 21 q-10 -4 -24.5 -19.5t-20.5 -25.5zM401 530q41 98 79 195.5t75 196.5q23 -92 48 -182.5t54 -182.5q-66 -6 -128 -12t-128 -15z" />
<glyph unicode="&#xc1;" horiz-adv-x="1105" d="M27 -37q12 -16 42.5 -9t41.5 19q16 18 49 69.5t66.5 113t64.5 122t45 99.5q10 27 21.5 51.5t23.5 50.5q72 10 144.5 19.5t144.5 21.5q18 -59 48 -138t66.5 -158t81.5 -145.5t95 -101.5q27 0 61 14.5t57 24.5l-39 50q-10 -4 -19 -8.5t-20 -4.5q-47 45 -87 102.5t-71.5 120 t-56 128t-43.5 126.5v2l140 19q-14 4 -24.5 13t-22.5 14l-101 -13q-16 55 -36.5 122t-41 134.5t-36 132t-23.5 117.5q-2 8 -3 14.5t-7 12.5q-18 0 -42 -6.5t-38 -20.5q4 -6 12 -26.5t6 -26.5l-43 -144q-8 -29 -22.5 -69.5t-30.5 -86.5t-35.5 -96.5t-40.5 -95.5l-75 -8 q-2 -14 -3.5 -28.5t-1.5 -28.5l56 8q-16 -37 -32.5 -67.5t-29 -53t-38 -67.5t-54.5 -94.5t-56.5 -93.5t-41.5 -64q-4 -4 -19.5 -21.5t-15.5 -21.5zM397 1200l2 -4q53 59 104.5 94t92.5 55.5t66.5 29t29.5 14.5q-6 10 -20.5 25.5t-24.5 19.5q-16 -6 -45 -20.5t-63.5 -40 t-71.5 -67.5t-70 -106zM401 530q41 98 79 195.5t75 196.5q23 -92 48 -182.5t54 -182.5q-66 -6 -128 -12t-128 -15z" />
<glyph unicode="&#xc2;" horiz-adv-x="1105" d="M27 -37q12 -16 42.5 -9t41.5 19q16 18 49 69.5t66.5 113t64.5 122t45 99.5q10 27 21.5 51.5t23.5 50.5q72 10 144.5 19.5t144.5 21.5q18 -59 48 -138t66.5 -158t81.5 -145.5t95 -101.5q27 0 61 14.5t57 24.5l-39 50q-10 -4 -19 -8.5t-20 -4.5q-47 45 -87 102.5t-71.5 120 t-56 128t-43.5 126.5v2l140 19q-14 4 -24.5 13t-22.5 14l-101 -13q-16 55 -36.5 122t-41 134.5t-36 132t-23.5 117.5q-2 8 -3 14.5t-7 12.5q-18 0 -42 -6.5t-38 -20.5q4 -6 12 -26.5t6 -26.5l-43 -144q-8 -29 -22.5 -69.5t-30.5 -86.5t-35.5 -96.5t-40.5 -95.5l-75 -8 q-2 -14 -3.5 -28.5t-1.5 -28.5l56 8q-16 -37 -32.5 -67.5t-29 -53t-38 -67.5t-54.5 -94.5t-56.5 -93.5t-41.5 -64q-4 -4 -19.5 -21.5t-15.5 -21.5zM358 1192h56q37 41 55 63.5t32.5 41t31 40l49.5 64.5q27 -37 44 -65l17 -27q2 -2 12.5 -18.5t24.5 -39.5q12 -20 24.5 -38.5 t16.5 -26.5q10 -4 17 -2t14 6q10 8 26 8q-31 47 -49 77t-32.5 54.5t-33 52t-49.5 70.5q-12 4 -28 0q-8 0 -15.5 -1t-15.5 1q-35 -45 -57.5 -74.5t-43 -56.5t-42 -55.5t-54.5 -73.5zM401 530q41 98 79 195.5t75 196.5q23 -92 48 -182.5t54 -182.5q-66 -6 -128 -12t-128 -15z " />
<glyph unicode="&#xc3;" horiz-adv-x="1105" d="M27 -37q12 -16 42.5 -9t41.5 19q16 18 49 69.5t66.5 113t64.5 122t45 99.5q10 27 21.5 51.5t23.5 50.5q72 10 144.5 19.5t144.5 21.5q18 -59 48 -138t66.5 -158t81.5 -145.5t95 -101.5q27 0 61 14.5t57 24.5l-39 50q-10 -4 -19 -8.5t-20 -4.5q-47 45 -87 102.5t-71.5 120 t-56 128t-43.5 126.5v2l140 19q-14 4 -24.5 13t-22.5 14l-101 -13q-16 55 -36.5 122t-41 134.5t-36 132t-23.5 117.5q-2 8 -3 14.5t-7 12.5q-18 0 -42 -6.5t-38 -20.5q4 -6 12 -26.5t6 -26.5l-43 -144q-8 -29 -22.5 -69.5t-30.5 -86.5t-35.5 -96.5t-40.5 -95.5l-75 -8 q-2 -14 -3.5 -28.5t-1.5 -28.5l56 8q-16 -37 -32.5 -67.5t-29 -53t-38 -67.5t-54.5 -94.5t-56.5 -93.5t-41.5 -64q-4 -4 -19.5 -21.5t-15.5 -21.5zM346 1237q4 -6 13.5 -7t13.5 -7q2 18 11 39.5t22.5 39t26.5 28.5t26 11q10 -6 18 -9t17 -7q47 -23 93 -53.5t93 -48.5 q25 -10 45 5t36.5 42.5t27 63.5t14.5 71q-4 2 -16.5 3t-16.5 1q-4 -12 -10 -32.5t-12 -30.5q-10 -16 -25.5 -41t-42.5 -17q-14 4 -41 19.5t-57.5 34t-59 36t-45.5 25.5q-25 8 -45 -3t-36.5 -36t-29 -57.5t-20.5 -69.5zM401 530q41 98 79 195.5t75 196.5q23 -92 48 -182.5 t54 -182.5q-66 -6 -128 -12t-128 -15z" />
<glyph unicode="&#xc4;" horiz-adv-x="1105" d="M27 -37q12 -16 42.5 -9t41.5 19q16 18 49 69.5t66.5 113t64.5 122t45 99.5q10 27 21.5 51.5t23.5 50.5q72 10 144.5 19.5t144.5 21.5q18 -59 48 -138t66.5 -158t81.5 -145.5t95 -101.5q27 0 61 14.5t57 24.5l-39 50q-10 -4 -19 -8.5t-20 -4.5q-47 45 -87 102.5t-71.5 120 t-56 128t-43.5 126.5v2l140 19q-14 4 -24.5 13t-22.5 14l-101 -13q-16 55 -36.5 122t-41 134.5t-36 132t-23.5 117.5q-2 8 -3 14.5t-7 12.5q-18 0 -42 -6.5t-38 -20.5q4 -6 12 -26.5t6 -26.5l-43 -144q-8 -29 -22.5 -69.5t-30.5 -86.5t-35.5 -96.5t-40.5 -95.5l-75 -8 q-2 -14 -3.5 -28.5t-1.5 -28.5l56 8q-16 -37 -32.5 -67.5t-29 -53t-38 -67.5t-54.5 -94.5t-56.5 -93.5t-41.5 -64q-4 -4 -19.5 -21.5t-15.5 -21.5zM401 530q41 98 79 195.5t75 196.5q23 -92 48 -182.5t54 -182.5q-66 -6 -128 -12t-128 -15zM410 1282q0 -18 6 -33 q23 -8 51 -8q18 18 31.5 40t17.5 46q2 2 2 4t2 4q-25 29 -76 29q-16 -10 -25 -33.5t-9 -48.5zM635 1282q0 -18 6 -33q23 -8 51 -8q18 18 31.5 40t17.5 46q2 2 2 4t2 4q-25 29 -75 29q-16 -10 -25.5 -33.5t-9.5 -48.5z" />
<glyph unicode="&#xc5;" horiz-adv-x="1105" d="M27 -37q12 -16 42.5 -9t41.5 19q16 18 49 69.5t66.5 113t64.5 122t45 99.5q10 27 21.5 51.5t23.5 50.5q72 10 144.5 19.5t144.5 21.5q18 -59 48 -138t66.5 -158t81.5 -145.5t95 -101.5q27 0 61 14.5t57 24.5l-39 50q-10 -4 -19 -8.5t-20 -4.5q-47 45 -87 102.5t-71.5 120 t-56 128t-43.5 126.5v2l140 19q-14 4 -24.5 13t-22.5 14l-101 -13q-16 55 -36.5 122t-41 134.5t-36 132t-23.5 117.5q-2 8 -3 14.5t-7 12.5q-18 0 -42 -6.5t-38 -20.5q4 -6 12 -26.5t6 -26.5l-43 -144q-8 -29 -22.5 -69.5t-30.5 -86.5t-35.5 -96.5t-40.5 -95.5l-75 -8 q-2 -14 -3.5 -28.5t-1.5 -28.5l56 8q-16 -37 -32.5 -67.5t-29 -53t-38 -67.5t-54.5 -94.5t-56.5 -93.5t-41.5 -64q-4 -4 -19.5 -21.5t-15.5 -21.5zM391 1307q0 -55 31 -92t75 -51.5t91 -5.5t80 44q47 47 47 121q0 10 -1 22.5t-3 24.5q-10 59 -60.5 88t-109 22t-104.5 -49 t-46 -124zM401 530q41 98 79 195.5t75 196.5q23 -92 48 -182.5t54 -182.5q-66 -6 -128 -12t-128 -15zM449 1311q0 61 33.5 92t88.5 31q41 0 59.5 -20.5t28.5 -61.5q4 -12 5 -19q0 -72 -34 -101.5t-74 -26.5t-73.5 33t-33.5 73z" />
<glyph unicode="&#xc6;" horiz-adv-x="1570" d="M-459 -271.5q8 -17.5 41 -19.5t94.5 16.5t157.5 71.5q78 43 159 116t157.5 162t149.5 192.5t136 207.5q14 2 27 2q14 0 26 4q53 4 128 11.5t141 11.5q-4 -53 -7 -108.5t-8 -102.5l-16 -240h-2l-2 -51v-2h80l2 8q78 8 163 13.5t195 -1.5l328 -20q4 0 12 8t16.5 19.5 t17.5 22.5t15 16q-174 0 -357 6t-386 -11q4 41 6 80t4 52q4 98 8 170.5t7 148.5q66 10 126 16.5t120.5 12.5t122 13t130.5 17q-6 2 -3 7.5t9.5 11.5t9.5 11t-3 7q-127 -14 -255 -21t-257 -20q2 63 0 142q0 20 -2.5 58t-3.5 81t-4 83t-5 68q74 8 155 18.5t173 6.5 q27 2 63.5 3t74.5 -1t75 -6t63 -10q2 2 11.5 17t31 34.5t50.5 28.5q-190 0 -395.5 -13.5t-430.5 -40.5q-16 -2 -40.5 -7t-41.5 -5q-27 -72 -74 -200t-147 -296l-166 -16q-2 -16 -2 -31q0 -12 -4 -28q35 6 68.5 9t66.5 5l-16 -29q-98 -162 -196.5 -284.5t-187.5 -204.5 t-165 -121t-131 -35q-39 8 -67.5 -2t-41 -27.5t-4.5 -35zM473 535q39 72 73 138t62 130q18 47 34.5 89t31.5 87q18 4 37.5 6t27.5 4q4 -18 8.5 -36.5t6.5 -37.5q2 -70 2 -137q0 -68 4 -137v-80l-258 -22z" />
<glyph unicode="&#xc7;" horiz-adv-x="1062" d="M72 344q0 -115 49 -189.5t127 -114.5t176 -47t194 11h3q61 -23 74.5 -51.5t-1 -57t-44 -55.5t-56.5 -45q-45 -29 -105.5 -41t-107.5 -22q-14 -6 -18.5 -16.5t-2.5 -19.5t9.5 -14.5t15.5 -0.5q61 8 122.5 26.5t123.5 54.5q18 12 42.5 26.5t46 36t34 52.5t4.5 74 q-4 25 -19.5 43t-36.5 33q100 31 178 87t113 128q-6 4 -17 0t-18 -9q-2 0 -11 -9t-21.5 -20t-23.5 -22.5t-17 -15.5q-115 -86 -254 -117q-23 6 -41 -6q-31 -6 -66 -6q-66 -2 -125 14.5t-108 50t-84 85t-47 116.5q-25 129 29.5 256t155.5 228.5t229 167t251 71.5q27 2 60 2 q35 0 51 -29q0 -16 -12.5 -32.5t-22.5 -28.5q0 -6 -8 -13t-16.5 -15.5l-15.5 -15.5t-7 -13q-4 -6 -7 -15.5t-1 -17.5t9 -13.5t24 -5.5q14 4 28.5 6.5t26.5 8.5q31 14 50.5 48t20.5 69.5t-16.5 67.5t-56.5 44q-23 8 -53 8q-29 0 -60 -3t-60.5 -10t-51.5 -15 q-115 -37 -227.5 -103.5t-204 -158t-147.5 -205t-56 -242.5z" />
<glyph unicode="&#xc8;" horiz-adv-x="993" d="M72 985q12 2 24 2t27 2q4 -18 9 -36.5t5 -37.5q4 -70 3 -137t3 -137q4 -78 -3 -174t-13 -174l-16 -240h-2l-3 -51v-2h80l2 8q78 8 163 13.5t196 -1.5l327 -20q4 0 12.5 8t16.5 19.5t17.5 23t15.5 15.5q-174 0 -357.5 6t-385.5 -11q4 41 7 80t3 52q6 98 9 170.5t5 148.5 q66 10 126 16.5t120.5 12.5t122 13t131.5 17q-6 2 -3 7.5t9 11.5t9 11t-3 7q-127 -14 -255 -21t-257 -20q2 63 0 142q0 20 -2 58t-3 81t-4 83t-5 68q74 8 154.5 18.5t172.5 6.5q27 2 64 3t75 -1t74.5 -6t63.5 -10q2 2 11 17t30.5 34.5t50.5 28.5q-190 0 -395 -13.5 t-430 -40.5zM332 1389q4 -6 30.5 -14.5t67.5 -29t92 -55.5t105 -94v4q-33 63 -70 105.5t-71.5 68t-63.5 39.5t-45 21q-10 -4 -24.5 -19.5t-20.5 -25.5z" />
<glyph unicode="&#xc9;" horiz-adv-x="993" d="M72 985q12 2 24 2t27 2q4 -18 9 -36.5t5 -37.5q4 -70 3 -137t3 -137q4 -78 -3 -174t-13 -174l-16 -240h-2l-3 -51v-2h80l2 8q78 8 163 13.5t196 -1.5l327 -20q4 0 12.5 8t16.5 19.5t17.5 23t15.5 15.5q-174 0 -357.5 6t-385.5 -11q4 41 7 80t3 52q6 98 9 170.5t5 148.5 q66 10 126 16.5t120.5 12.5t122 13t131.5 17q-6 2 -3 7.5t9 11.5t9 11t-3 7q-127 -14 -255 -21t-257 -20q2 63 0 142q0 20 -2 58t-3 81t-4 83t-5 68q74 8 154.5 18.5t172.5 6.5q27 2 64 3t75 -1t74.5 -6t63.5 -10q2 2 11 17t30.5 34.5t50.5 28.5q-190 0 -395 -13.5 t-430 -40.5zM332 1200l4 -4q53 59 104.5 94t92 55.5t66.5 28.5t30 15h-2q-6 10 -20.5 25.5t-24.5 19.5q-16 -6 -45 -20.5t-64 -40t-71.5 -67.5t-69.5 -106z" />
<glyph unicode="&#xca;" horiz-adv-x="993" d="M72 985q12 2 24 2t27 2q4 -18 9 -36.5t5 -37.5q4 -70 3 -137t3 -137q4 -78 -3 -174t-13 -174l-16 -240h-2l-3 -51v-2h80l2 8q78 8 163 13.5t196 -1.5l327 -20q4 0 12.5 8t16.5 19.5t17.5 23t15.5 15.5q-174 0 -357.5 6t-385.5 -11q4 41 7 80t3 52q6 98 9 170.5t5 148.5 q66 10 126 16.5t120.5 12.5t122 13t131.5 17q-6 2 -3 7.5t9 11.5t9 11t-3 7q-127 -14 -255 -21t-257 -20q2 63 0 142q0 20 -2 58t-3 81t-4 83t-5 68q74 8 154.5 18.5t172.5 6.5q27 2 64 3t75 -1t74.5 -6t63.5 -10q2 2 11 17t30.5 34.5t50.5 28.5q-190 0 -395 -13.5 t-430 -40.5zM250 1192h55q37 41 55.5 63.5t33 41t30.5 40t49 64.5q27 -37 45 -65l17 -27q2 -2 12 -18.5t24 -39.5q12 -20 24.5 -38.5t16.5 -26.5q10 -4 17.5 -2t13.5 6q11 8 27 8q-31 47 -49.5 77t-33 54.5t-32.5 52t-49 70.5q-12 4 -29 0q-8 0 -15 -1t-16 1 q-35 -45 -57 -74.5t-42.5 -56.5t-42 -55.5t-54.5 -73.5z" />
<glyph unicode="&#xcb;" horiz-adv-x="993" d="M72 985q12 2 24 2t27 2q4 -18 9 -36.5t5 -37.5q4 -70 3 -137t3 -137q4 -78 -3 -174t-13 -174l-16 -240h-2l-3 -51v-2h80l2 8q78 8 163 13.5t196 -1.5l327 -20q4 0 12.5 8t16.5 19.5t17.5 23t15.5 15.5q-174 0 -357.5 6t-385.5 -11q4 41 7 80t3 52q6 98 9 170.5t5 148.5 q66 10 126 16.5t120.5 12.5t122 13t131.5 17q-6 2 -3 7.5t9 11.5t9 11t-3 7q-127 -14 -255 -21t-257 -20q2 63 0 142q0 20 -2 58t-3 81t-4 83t-5 68q74 8 154.5 18.5t172.5 6.5q27 2 64 3t75 -1t74.5 -6t63.5 -10q2 2 11 17t30.5 34.5t50.5 28.5q-190 0 -395 -13.5 t-430 -40.5zM311 1282q0 -10 2 -17.5t6 -15.5q23 -8 52 -8q18 18 31.5 40t17.5 46q0 6 4 8h-2q-25 29 -76 29q-16 -10 -25.5 -33.5t-9.5 -48.5zM537 1282q0 -10 2 -17.5t6 -15.5q23 -8 51 -8q18 18 31.5 40t17.5 46q0 6 4 8q-29 29 -78 29q-16 -10 -25 -33.5t-9 -48.5z" />
<glyph unicode="&#xcc;" horiz-adv-x="264" d="M-16 1389q4 -6 30.5 -14.5t67.5 -29t92 -55.5t105 -94l2 4q-35 63 -72 105.5t-72 68t-63.5 39.5t-44.5 21q-10 -4 -24.5 -19.5t-20.5 -25.5zM102 709q0 -78 3.5 -139.5t8.5 -120t10 -120t11 -136.5q0 -10 2 -33t5 -51.5t7.5 -58.5t8.5 -50h80l-31 293q-8 78 -18.5 174 t-10.5 174q0 70 -2 137.5t-2 136.5q0 27 7 72t9 72q-2 6 -12 6q-8 0 -19.5 -2t-21.5 -5t-16 -3q-4 -8 -7 -16.5t-5 -16.5q-4 -20 -5.5 -62t-1.5 -92v-92v-67z" />
<glyph unicode="&#xcd;" horiz-adv-x="264" d="M-16 1200l4 -4q53 59 104 94t92 55.5t67 29t30 14.5q-8 10 -22.5 25.5t-25.5 19.5q-16 -6 -44.5 -20.5t-63.5 -40t-72 -67.5t-69 -106zM102 709q0 -78 3.5 -139.5t8.5 -120t10 -120t11 -136.5q0 -10 2 -33t5 -51.5t7.5 -58.5t8.5 -50h80l-31 293q-8 78 -18.5 174 t-10.5 174q0 70 -2 137.5t-2 136.5q0 27 7 72t9 72q-2 6 -12 6q-8 0 -19.5 -2t-21.5 -5t-16 -3q-4 -8 -7 -16.5t-5 -16.5q-4 -20 -5.5 -62t-1.5 -92v-92v-67z" />
<glyph unicode="&#xce;" horiz-adv-x="264" d="M-78 1192h55q37 41 55.5 63.5t33 41t31 40t48.5 64.5q27 -37 45 -65l17 -27q2 -2 12 -18.5t25 -39.5q12 -20 24.5 -38.5t16.5 -26.5q10 -4 17 -2t13 6q11 8 27 8q-31 47 -49.5 77t-32.5 54.5t-32.5 52t-49.5 70.5q-12 4 -28 0q-8 0 -15.5 -1t-15.5 1q-35 -45 -57.5 -74.5 t-43 -56.5t-42 -55.5t-54.5 -73.5zM102 709q0 -78 3.5 -139.5t8.5 -120t10 -120t11 -136.5q0 -10 2 -33t5 -51.5t7.5 -58.5t8.5 -50h80l-31 293q-8 78 -18.5 174t-10.5 174q0 70 -2 137.5t-2 136.5q0 27 7 72t9 72q-2 6 -12 6q-8 0 -19.5 -2t-21.5 -5t-16 -3q-4 -8 -7 -16.5 t-5 -16.5q-4 -20 -5.5 -62t-1.5 -92v-92v-67z" />
<glyph unicode="&#xcf;" horiz-adv-x="264" d="M-37 1282q0 -10 2 -17.5t6 -15.5q23 -8 52 -8q18 18 31.5 40t17.5 46q0 6 4 8h-2q-25 29 -76 29q-16 -10 -25.5 -33.5t-9.5 -48.5zM82 709q0 -78 3 -139.5t8 -120t10.5 -120t11.5 -136.5q0 -10 2 -33t5 -51.5t7 -58.5t8 -50h80l-31 293q-8 78 -18 174t-10 174 q0 70 -2 137.5t-2 136.5q0 27 7 72t9 72q-2 6 -12 6q-8 0 -19.5 -2t-22 -5t-16.5 -3q-4 -8 -7 -16.5t-5 -16.5q-4 -20 -5 -62t-1 -92v-92v-67zM188 1282q0 -10 2.5 -17.5t6.5 -15.5q23 -8 51 -8q18 18 31.5 40t17.5 46q0 6 4 8q-29 29 -78 29q-16 -10 -25.5 -33.5 t-9.5 -48.5z" />
<glyph unicode="&#xd0;" horiz-adv-x="1095" d="M72 479q33 2 65.5 4t67.5 4q-4 -129 -2 -253.5t8 -241.5q39 -2 71.5 -4t67.5 -3t79 0t106 5q94 8 173.5 53t143 115.5t106.5 161t63.5 187.5t14.5 196.5t-41 185.5q-41 98 -127 137t-178 43q-47 2 -86 2q-37 0 -69 -4q-98 -10 -186.5 -36.5t-133.5 -49.5 q-29 -14 -58.5 -28.5t-37.5 -30.5l16 -62q29 18 41 26.5t43 22.5q-4 -88 -7 -181t-7 -191h-121q-4 -16 -6 -28.5t-6 -29.5zM274 268q0 59 1 115.5t1 105.5q25 2 50 3q25 0 47 2q68 2 156.5 3t156.5 3q4 10 6 19.5t6 19.5h-331h-91q0 45 1.5 98t2.5 105.5t3 102.5t6 93 q45 25 75.5 36t56 17t50.5 9.5t57 9.5h7q51 6 114 6q131 0 208 -55.5t108.5 -143.5t23.5 -194.5t-45 -208t-98.5 -186.5t-136.5 -126q-47 -27 -90.5 -39t-83.5 -16q-29 -10 -67 -9t-69 1q-35 0 -60.5 2t-55.5 10q-4 49 -6.5 104.5t-2.5 112.5z" />
<glyph unicode="&#xd1;" horiz-adv-x="880" d="M72 0h80q4 29 10 88t11 136t9 163t8 166q4 76 5 147q0 72 -2 136q35 -74 72.5 -147t78.5 -138q98 -164 204.5 -304.5t192.5 -246.5v-2q2 0 2 2h78l2 2l-2 4q-16 143 -32.5 302t-18.5 304q0 68 -1 117t-1 117q0 18 3 47t8 59.5t9.5 59t6.5 47.5q-8 12 -34 6t-36 -10 q-10 -20 -15 -65.5t-8.5 -106t-3.5 -133.5q0 -72 2 -150q4 -123 10.5 -249t14.5 -220q-41 53 -87 115.5t-89 122t-77 110.5t-52 84q-23 43 -54.5 99.5t-64.5 118t-63.5 122t-51.5 109.5l-12 30l-6 13q-6 4 -29 8q-10 4 -22 4t-17 -6q-8 0 -10 -2l10 -23q4 -31 9.5 -61.5 t5.5 -59.5q0 -70 2 -154.5t2 -154.5v-55q0 -63 -5 -134t-12.5 -142.5t-15.5 -142.5t-14 -132zM168 1055q4 -6 6 -13.5t6 -13.5zM201 1237q4 -6 14 -7t14 -7q2 18 11.5 39.5t22.5 39t26.5 28.5t25.5 11q10 -6 17.5 -9l17.5 -7q47 -23 93 -53.5t94 -48.5q25 -10 45 5 t36.5 42.5t26.5 63.5t14 71q-6 2 -18 3t-16 1q-4 -12 -10.5 -32.5t-12.5 -30.5q-10 -16 -25.5 -41t-41.5 -17q-14 4 -41 19.5t-57.5 34t-59.5 36t-45 25.5q-25 8 -45.5 -3t-37 -36t-28.5 -57.5t-20 -69.5z" />
<glyph unicode="&#xd2;" horiz-adv-x="1093" d="M74 452.5q8 -114.5 52 -212t125 -166t198 -82.5q106 -12 198 22.5t165 103t124 163t76.5 199t21.5 211t-41 198.5q-20 49 -53 83t-74 55.5t-88 31.5t-92 12q-96 2 -159.5 -5t-103.5 -17.5t-60.5 -21.5t-30.5 -17q-94 -47 -154.5 -136.5t-86 -198t-17.5 -223zM133 442.5 q-14 104.5 11.5 215t101.5 204.5q16 20 42.5 48t70.5 50.5t114 39t172 16.5q131 0 209 -55.5t109.5 -143.5t23.5 -194.5t-46 -208t-99 -186.5t-137 -126q-111 -61 -208.5 -55t-174 59.5t-126 142.5t-63.5 193.5zM457 1389q4 -6 29.5 -14.5t66.5 -29t92 -55.5t105 -94l2 4 q-33 63 -70 105.5t-72 68t-63.5 39.5t-44.5 21q-10 -4 -24.5 -19.5t-20.5 -25.5z" />
<glyph unicode="&#xd3;" horiz-adv-x="1093" d="M74 452.5q8 -114.5 52 -212t125 -166t198 -82.5q106 -12 198 22.5t165 103t124 163t76.5 199t21.5 211t-41 198.5q-20 49 -53 83t-74 55.5t-88 31.5t-92 12q-96 2 -159.5 -5t-103.5 -17.5t-60.5 -21.5t-30.5 -17q-94 -47 -154.5 -136.5t-86 -198t-17.5 -223zM133 442.5 q-14 104.5 11.5 215t101.5 204.5q16 20 42.5 48t70.5 50.5t114 39t172 16.5q131 0 209 -55.5t109.5 -143.5t23.5 -194.5t-46 -208t-99 -186.5t-137 -126q-111 -61 -208.5 -55t-174 59.5t-126 142.5t-63.5 193.5zM457 1200l2 -4q53 59 104 94t92 55.5t67 29t30 14.5 q-6 10 -20.5 25.5t-24.5 19.5q-16 -6 -45 -20.5t-64 -40t-72 -67.5t-69 -106z" />
<glyph unicode="&#xd4;" horiz-adv-x="1093" d="M74 452.5q8 -114.5 52 -212t125 -166t198 -82.5q106 -12 198 22.5t165 103t124 163t76.5 199t21.5 211t-41 198.5q-20 49 -53 83t-74 55.5t-88 31.5t-92 12q-96 2 -159.5 -5t-103.5 -17.5t-60.5 -21.5t-30.5 -17q-94 -47 -154.5 -136.5t-86 -198t-17.5 -223zM133 442.5 q-14 104.5 11.5 215t101.5 204.5q16 20 42.5 48t70.5 50.5t114 39t172 16.5q131 0 209 -55.5t109.5 -143.5t23.5 -194.5t-46 -208t-99 -186.5t-137 -126q-111 -61 -208.5 -55t-174 59.5t-126 142.5t-63.5 193.5zM362 1192h56q37 41 55.5 63.5t32.5 41t30.5 40l49.5 64.5 q27 -37 44 -65l17 -27q2 -2 12.5 -18.5t24.5 -39.5q12 -20 24.5 -38.5t16.5 -26.5q10 -4 17.5 -2t13.5 6q10 8 26 8q-31 47 -49 77t-32.5 54.5t-33 52t-49.5 70.5q-12 4 -28 0q-8 0 -15.5 -1t-15.5 1q-35 -45 -57.5 -74.5t-43 -56.5t-42 -55.5t-54.5 -73.5z" />
<glyph unicode="&#xd5;" horiz-adv-x="1093" d="M74 452.5q8 -114.5 52 -212t125 -166t198 -82.5q106 -12 198 22.5t165 103t124 163t76.5 199t21.5 211t-41 198.5q-20 49 -53 83t-74 55.5t-88 31.5t-92 12q-96 2 -159.5 -5t-103.5 -17.5t-60.5 -21.5t-30.5 -17q-94 -47 -154.5 -136.5t-86 -198t-17.5 -223zM133 442.5 q-14 104.5 11.5 215t101.5 204.5q16 20 42.5 48t70.5 50.5t114 39t172 16.5q131 0 209 -55.5t109.5 -143.5t23.5 -194.5t-46 -208t-99 -186.5t-137 -126q-111 -61 -208.5 -55t-174 59.5t-126 142.5t-63.5 193.5zM406 1237q4 -6 13 -7t13 -7q2 18 11.5 39.5t22.5 39 t26.5 28.5t25.5 11q10 -6 18.5 -9t16.5 -7q47 -23 93 -53.5t93 -48.5q25 -10 45.5 5t37 42.5t26.5 63.5t14 71q-4 2 -16 3t-17 1q-4 -12 -10 -32.5t-12 -30.5q-10 -16 -25.5 -41t-42.5 -17q-14 4 -40.5 19.5t-57.5 34t-59.5 36t-44.5 25.5q-25 8 -45.5 -3t-37 -36 t-28.5 -57.5t-20 -69.5z" />
<glyph unicode="&#xd6;" horiz-adv-x="1093" d="M74 452.5q8 -114.5 52 -212t125 -166t198 -82.5q106 -12 198 22.5t165 103t124 163t76.5 199t21.5 211t-41 198.5q-20 49 -53 83t-74 55.5t-88 31.5t-92 12q-96 2 -159.5 -5t-103.5 -17.5t-60.5 -21.5t-30.5 -17q-94 -47 -154.5 -136.5t-86 -198t-17.5 -223zM133 442.5 q-14 104.5 11.5 215t101.5 204.5q16 20 42.5 48t70.5 50.5t114 39t172 16.5q131 0 209 -55.5t109.5 -143.5t23.5 -194.5t-46 -208t-99 -186.5t-137 -126q-111 -61 -208.5 -55t-174 59.5t-126 142.5t-63.5 193.5zM469 1282q0 -18 6 -33q23 -8 51 -8q18 18 31.5 40t17.5 46 q2 2 3 4q0 2 2 4q-25 29 -76 29q-16 -10 -25.5 -33.5t-9.5 -48.5zM694 1282q0 -18 6 -33q23 -8 52 -8q18 18 31.5 40t17.5 46q2 2 2 4t2 4q-25 29 -76 29q-16 -10 -25.5 -33.5t-9.5 -48.5z" />
<glyph unicode="&#xd7;" horiz-adv-x="698" d="M72 184q10 -14 16 -24t14 -25q25 27 56.5 61.5t64.5 69.5t66 69t57 62q27 -29 59.5 -64.5t68.5 -71.5t70 -70.5t62 -63.5q8 6 16.5 12t18.5 13q-29 29 -62.5 64.5t-69.5 73.5t-69.5 73.5t-60.5 66.5q23 25 53.5 56.5t62 64.5t62.5 63.5t53 55.5q-10 19 -18 37l-244 -244 l-223 237l-41 -41q23 -25 52.5 -54.5l61 -61t61.5 -62t54 -53.5z" />
<glyph unicode="&#xd8;" horiz-adv-x="1155" d="M72 -41q14 0 39 6q27 6 42 13.5t27 21.5l15 14q4 4 8 8.5t8 8.5l43 53q90 -78 211 -92q106 -12 198.5 22.5t165 103t124 163t77 199t21.5 211t-41 198.5q-10 20 -19.5 36.5t-21.5 30.5l45 56q4 4 9 11t9 11q6 8 12.5 16.5t14.5 18.5q12 14 22.5 26.5t16.5 22.5 q-4 0 -11.5 1t-19.5 1q-37 0 -54.5 -3t-23.5 -5l-2 -2v-4q-2 -2 -3 -4t-5 -6q-12 -18 -27.5 -41t-33.5 -49q-47 35 -103.5 49t-112.5 16q-96 2 -159.5 -5t-103.5 -17.5t-60.5 -21.5t-30.5 -17q-74 -37 -126 -99.5t-85 -141.5t-44 -168t-1 -176t42 -167t85 -139 q-14 -16 -27.5 -33.5t-29.5 -34.5q-29 -35 -53.5 -61.5t-36.5 -30.5zM144 499q-3 93 25 187t93 176q16 20 43 48t71 50.5t113.5 39t172.5 16.5q133 0 217 -62q-25 -35 -54.5 -73.5t-64.5 -83.5q-14 -16 -26.5 -35t-26.5 -35q-35 -41 -68 -84t-68 -86q-47 -59 -90 -113.5 t-84 -105.5q-43 -53 -75.5 -95t-57.5 -71q-53 63 -85 148.5t-35 178.5zM299 137q86 106 183.5 224t207.5 253q57 72 117 143.5t121 149.5q66 -80 74 -197.5t-26 -236.5t-101.5 -220t-153.5 -151q-127 -70 -235.5 -53t-186.5 88z" />
<glyph unicode="&#xd9;" horiz-adv-x="995" d="M73 263q3 -87 21 -132q18 -47 57 -90t92.5 -76t120 -52t144.5 -19q74 0 139.5 19t117.5 52t90 76t56 90q18 45 21.5 132t-0.5 185.5t-12.5 192.5t-10.5 152q2 -18 1 5t1 63t7.5 81t19.5 57q-8 6 -20 7q-10 0 -21 4q-6 4 -16 4h-17q-31 -41 -35 -97.5t0 -103.5 q6 -82 15.5 -166t15.5 -168t4 -167t-20 -160q-10 -51 -51 -89t-91.5 -64t-103.5 -38t-88 -12q-27 0 -80 12t-108.5 38t-101.5 63.5t-58 89.5q-16 78 -18.5 160.5t3 166.5t14.5 168t15 166q4 47 9 100.5t-3 100.5h-18q-8 0 -14 -4q-10 -4 -23 -4q-10 0 -18 -7l-3 -31 q-2 -30 -4 -67t-4 -69.5t-2 -38.5q-2 -57 -9 -151.5t-12 -193t-2 -185.5zM322 1389q4 -6 29.5 -14.5t66.5 -29t92 -55.5t104 -94l2 4q-33 63 -69.5 105.5t-71.5 68t-63.5 39.5t-44.5 21q-10 -4 -24.5 -19.5t-20.5 -25.5z" />
<glyph unicode="&#xda;" horiz-adv-x="995" d="M73 263q3 -87 21 -132q18 -47 57 -90t92.5 -76t120 -52t144.5 -19q74 0 139.5 19t117.5 52t90 76t56 90q18 45 21.5 132t-0.5 185.5t-12.5 192.5t-10.5 152q2 -18 1 5t1 63t7.5 81t19.5 57q-8 6 -20 7q-10 0 -21 4q-6 4 -16 4h-17q-31 -41 -35 -97.5t0 -103.5 q6 -82 15.5 -166t15.5 -168t4 -167t-20 -160q-10 -51 -51 -89t-91.5 -64t-103.5 -38t-88 -12q-27 0 -80 12t-108.5 38t-101.5 63.5t-58 89.5q-16 78 -18.5 160.5t3 166.5t14.5 168t15 166q4 47 9 100.5t-3 100.5h-18q-8 0 -14 -4q-10 -4 -23 -4q-10 0 -18 -7l-3 -31 q-2 -30 -4 -67t-4 -69.5t-2 -38.5q-2 -57 -9 -151.5t-12 -193t-2 -185.5zM362 1200l3 -4q53 59 104 94t92 55.5t66.5 29t29.5 14.5q-6 10 -20 25.5t-25 19.5q-16 -6 -44.5 -20.5t-63.5 -40t-72 -67.5t-70 -106z" />
<glyph unicode="&#xdb;" horiz-adv-x="995" d="M73 263q3 -87 21 -132q18 -47 57 -90t92.5 -76t120 -52t144.5 -19q74 0 139.5 19t117.5 52t90 76t56 90q18 45 21.5 132t-0.5 185.5t-12.5 192.5t-10.5 152q2 -18 1 5t1 63t7.5 81t19.5 57q-8 6 -20 7q-10 0 -21 4q-6 4 -16 4h-17q-31 -41 -35 -97.5t0 -103.5 q6 -82 15.5 -166t15.5 -168t4 -167t-20 -160q-10 -51 -51 -89t-91.5 -64t-103.5 -38t-88 -12q-27 0 -80 12t-108.5 38t-101.5 63.5t-58 89.5q-16 78 -18.5 160.5t3 166.5t14.5 168t15 166q4 47 9 100.5t-3 100.5h-18q-8 0 -14 -4q-10 -4 -23 -4q-10 0 -18 -7l-3 -31 q-2 -30 -4 -67t-4 -69.5t-2 -38.5q-2 -57 -9 -151.5t-12 -193t-2 -185.5zM295 1192h55q37 41 55.5 63.5t33 41t30.5 40t49 64.5q27 -37 44 -65l18 -27q2 -2 12 -18.5t24 -39.5q12 -20 24.5 -38.5t16.5 -26.5q10 -4 17.5 -2t13.5 6q11 8 27 8q-31 47 -49.5 77t-33 54.5 t-32.5 52t-49 70.5q-12 4 -29 0q-8 0 -15 -1t-15 1q-35 -45 -57.5 -74.5t-43 -56.5t-42 -55.5t-54.5 -73.5z" />
<glyph unicode="&#xdc;" horiz-adv-x="995" d="M73 263q3 -87 21 -132q18 -47 57 -90t92.5 -76t120 -52t144.5 -19q74 0 139.5 19t117.5 52t90 76t56 90q18 45 21.5 132t-0.5 185.5t-12.5 192.5t-10.5 152q2 -18 1 5t1 63t7.5 81t19.5 57q-8 6 -20 7q-10 0 -21 4q-6 4 -16 4h-17q-31 -41 -35 -97.5t0 -103.5 q6 -82 15.5 -166t15.5 -168t4 -167t-20 -160q-10 -51 -51 -89t-91.5 -64t-103.5 -38t-88 -12q-27 0 -80 12t-108.5 38t-101.5 63.5t-58 89.5q-16 78 -18.5 160.5t3 166.5t14.5 168t15 166q4 47 9 100.5t-3 100.5h-18q-8 0 -14 -4q-10 -4 -23 -4q-10 0 -18 -7l-3 -31 q-2 -30 -4 -67t-4 -69.5t-2 -38.5q-2 -57 -9 -151.5t-12 -193t-2 -185.5zM354 1282q0 -18 6 -33q23 -8 52 -8q18 18 31.5 40t17.5 46q2 2 2 4t2 4q-25 29 -76 29q-16 -10 -25.5 -33.5t-9.5 -48.5zM580 1282q0 -18 6 -33q23 -8 51 -8q18 18 31.5 40t17.5 46q2 2 2 4t2 4 q-25 29 -76 29q-16 -10 -25 -33.5t-9 -48.5z" />
<glyph unicode="&#xdd;" horiz-adv-x="929" d="M60.5 -423q19.5 -83 69.5 -142.5t123 -91t151.5 -26.5t153.5 51t130 143q63 111 104.5 275.5t60.5 348.5t19 369t-18 330q-8 59 -19.5 111t-23.5 110l-4 16l-2 4h-17q-12 0 -25 -2t-23.5 -7t-10.5 -13q4 -16 6 -32.5t6 -31.5q4 -47 6.5 -91t2.5 -97q0 -20 -3.5 -55 t-11.5 -78t-22.5 -91.5t-36.5 -91.5q-12 -27 -20.5 -42t-14.5 -27.5t-15.5 -25.5t-25.5 -38q-27 -39 -52.5 -77.5t-53.5 -75.5q-16 -23 -49 -60t-71 -73.5t-77 -63.5t-70 -27q-20 0 -30.5 35t-15.5 79t-6 86t-1 56q0 145 11.5 291t21.5 291q4 49 4 105q0 55 -18 96 q-4 0 -16.5 1t-26.5 1q-12 0 -22.5 -1t-10.5 -5q18 -72 14 -130.5t-4 -86.5q0 -86 -8 -189.5t-14.5 -209t-4.5 -206t25 -180.5q4 -6 10 -12t15 -10q10 -27 26.5 -40.5t44.5 -13.5q45 0 94.5 29t81.5 57q37 33 89.5 97.5t103.5 138.5t94 145.5t61 118.5q20 47 30.5 95.5 t19.5 95.5q8 -57 11 -132t1 -198q-2 -190 -25.5 -355t-61.5 -292t-86 -210t-97 -108q-92 -45 -178.5 -36.5t-144.5 56.5t-80.5 126t13.5 172l-75 26q-31 -98 -11.5 -181zM338 1200l2 -4q53 59 104.5 94t92.5 55.5t66.5 29t29.5 14.5q-6 10 -20.5 25.5t-24.5 19.5 q-16 -6 -45 -20.5t-64 -40t-71.5 -67.5t-69.5 -106z" />
<glyph unicode="&#xde;" horiz-adv-x="931" d="M282 828.5q-1 -21.5 3 -31.5q6 -10 18 -6t12 0v-82q0 -78 3.5 -139.5t8.5 -120t10 -120t11 -136.5q0 -10 2 -33t5 -51.5t7.5 -58.5t8.5 -50h80l-29 272l164 2q78 0 140 51.5t99 126t46.5 161.5t-17.5 159q-20 53 -67.5 73.5t-96.5 20.5q-16 0 -33.5 1t-33.5 3h-31 q-14 0 -25 -2l-180 -8v55q0 27 7 72t9 72q-2 6 -12 6q-8 0 -19.5 -2t-21.5 -5t-16 -3q-4 -8 -7 -16.5t-5 -16.5q-4 -23 -5.5 -68t-1.5 -96q0 -6 -16 -2t-16 -2q0 -4 -1 -25.5zM389 801l199 8q10 2 43 2q12 -2 18 -2h17q55 2 88.5 -22.5t49 -66.5t13.5 -93.5t-16.5 -100.5 t-42 -91t-62.5 -64q-45 -31 -92 -31h-188q-10 72 -17.5 152.5t-7.5 148.5q0 41 -1 80t-1 80z" />
<glyph unicode="&#xdf;" horiz-adv-x="792" d="M72 451q0 -8 4 -18.5t8 -18.5q0 -4 4 -4q8 0 23.5 9t25.5 13q14 4 27.5 5t25.5 9q-12 -106 -16 -213.5t-4 -216.5q0 -100 10 -199.5t19 -199.5q0 -4 2 -14.5t5 -20.5t7 -18t12 -8q4 0 16.5 8t12.5 14q0 16 -2 30.5t-4 31.5q-18 186 -19 378q0 37 3.5 111t11.5 163t20 185 t32.5 179t47.5 141.5t62 74.5q23 8 51 9q10 0 28.5 -3.5t37 -10.5t31.5 -17t13 -25q0 -31 -22.5 -64.5t-55 -66t-66.5 -60.5t-58 -44q-4 -2 -20.5 -12.5t-16.5 -14.5t6 -23.5t10 -19.5h72q51 0 95 -18.5t75.5 -51t49 -76.5t17.5 -95q0 -39 -6 -77t-22.5 -69t-45 -49 t-75.5 -18q-23 0 -41.5 13t-30.5 32.5t-19 43t-7 44.5q0 12 2 22t2 19q0 8 -7.5 13t-25.5 5t-24.5 -22.5t-6.5 -36.5q0 -35 15.5 -67t40 -58.5t56 -42t66.5 -15.5q51 0 91 23.5t67 60.5t40 83t13 93q0 66 -27.5 121.5t-73.5 94t-105.5 60t-122.5 21.5q31 14 71.5 42t77.5 63 t63.5 74t26.5 77q0 25 -18.5 44.5t-45 33t-55 19.5t-49.5 6q-27 0 -56.5 -8.5t-57 -23.5t-50 -34.5t-37.5 -44.5q-43 -74 -52 -145.5t-21 -153.5q-31 -16 -66 -27.5t-63 -33.5q0 -2 -1 -5t-1 -5z" />
<glyph unicode="&#xe0;" horiz-adv-x="751" d="M75 152.5q-9 -70.5 12.5 -115.5t76.5 -39q29 2 64.5 19.5t70.5 40t65.5 48t49.5 46.5q37 41 62.5 79.5t55.5 98.5q10 -78 19.5 -155t34.5 -150q43 -39 100 -23l2 6l6 37l-32 10q-23 82 -37.5 165t-24.5 169q-6 53 -12 107.5t-6 109.5q0 14 -13 15q-109 4 -195.5 -41 t-150 -117t-101.5 -156t-47 -154.5zM132 90q-7 37 3 91.5t38 116.5t75 117.5t113.5 96.5t152.5 49q2 -55 -10 -136t-76 -183q-18 -29 -54 -62t-77 -61.5t-78 -48t-55 -21.5q-25 4 -32 41zM262 938q4 -6 29.5 -14.5t66.5 -29t92.5 -55t104.5 -94.5l2 5q-33 63 -69.5 105 t-71.5 67.5t-63.5 40t-45.5 20.5q-10 -4 -24.5 -19.5t-20.5 -25.5z" />
<glyph unicode="&#xe1;" horiz-adv-x="751" d="M75 152.5q-9 -70.5 12.5 -115.5t76.5 -39q29 2 64.5 19.5t70.5 40t65.5 48t49.5 46.5q37 41 62.5 79.5t55.5 98.5q10 -78 19.5 -155t34.5 -150q43 -39 100 -23l2 6l6 37l-32 10q-23 82 -37.5 165t-24.5 169q-6 53 -12 107.5t-6 109.5q0 14 -13 15q-109 4 -195.5 -41 t-150 -117t-101.5 -156t-47 -154.5zM132 90q-7 37 3 91.5t38 116.5t75 117.5t113.5 96.5t152.5 49q2 -55 -10 -136t-76 -183q-18 -29 -54 -62t-77 -61.5t-78 -48t-55 -21.5q-25 4 -32 41zM262 750l2 -5q53 59 104.5 94t92.5 55.5t66.5 29t29.5 14.5q-6 10 -20.5 25.5 t-24.5 19.5q-16 -6 -45 -20.5t-63.5 -40t-71.5 -67.5t-70 -105z" />
<glyph unicode="&#xe2;" horiz-adv-x="751" d="M75 152.5q-9 -70.5 12.5 -115.5t76.5 -39q29 2 64.5 19.5t70.5 40t65.5 48t49.5 46.5q37 41 62.5 79.5t55.5 98.5q10 -78 19.5 -155t34.5 -150q43 -39 100 -23l2 6l6 37l-32 10q-23 82 -37.5 165t-24.5 169q-6 53 -12 107.5t-6 109.5q0 14 -13 15q-109 4 -195.5 -41 t-150 -117t-101.5 -156t-47 -154.5zM132 90q-7 37 3 91.5t38 116.5t75 117.5t113.5 96.5t152.5 49q2 -55 -10 -136t-76 -183q-18 -29 -54 -62t-77 -61.5t-78 -48t-55 -21.5q-25 4 -32 41zM223 717l2 -2q82 29 129 79t72 91q25 -41 72 -91.5t129 -78.5l2 2q-55 45 -92 94 t-59.5 90t-34 68.5t-17.5 31.5q-6 -4 -17.5 -31.5t-34 -68.5t-59 -90t-92.5 -94z" />
<glyph unicode="&#xe3;" horiz-adv-x="751" d="M75 152.5q-9 -70.5 12.5 -115.5t76.5 -39q29 2 64.5 19.5t70.5 40t65.5 48t49.5 46.5q37 41 62.5 79.5t55.5 98.5q10 -78 19.5 -155t34.5 -150q43 -39 100 -23l2 6l6 37l-32 10q-23 82 -37.5 165t-24.5 169q-6 53 -12 107.5t-6 109.5q0 14 -13 15q-109 4 -195.5 -41 t-150 -117t-101.5 -156t-47 -154.5zM132 90q-7 37 3 91.5t38 116.5t75 117.5t113.5 96.5t152.5 49q2 -55 -10 -136t-76 -183q-18 -29 -54 -62t-77 -61.5t-78 -48t-55 -21.5q-25 4 -32 41zM180 786q4 -6 13.5 -7t13.5 -7q2 18 11 40t22.5 39t27 28.5t25.5 11.5q10 -6 18 -9 t17 -8q47 -23 93 -53t93 -49q25 -10 45.5 5.5t36.5 43t26.5 63t14.5 70.5q-4 2 -16.5 3t-16.5 1q-4 -12 -10 -32.5t-12 -30.5q-10 -16 -25.5 -41t-42.5 -16q-14 4 -41 19t-57.5 33.5t-59 36t-45.5 25.5q-25 8 -45 -3t-36.5 -35.5t-29 -57.5t-20.5 -70z" />
<glyph unicode="&#xe4;" horiz-adv-x="751" d="M75 152.5q-9 -70.5 12.5 -115.5t76.5 -39q29 2 64.5 19.5t70.5 40t65.5 48t49.5 46.5q37 41 62.5 79.5t55.5 98.5q10 -78 19.5 -155t34.5 -150q43 -39 100 -23l2 6l6 37l-32 10q-23 82 -37.5 165t-24.5 169q-6 53 -12 107.5t-6 109.5q0 14 -13 15q-109 4 -195.5 -41 t-150 -117t-101.5 -156t-47 -154.5zM132 90q-7 37 3 91.5t38 116.5t75 117.5t113.5 96.5t152.5 49q2 -55 -10 -136t-76 -183q-18 -29 -54 -62t-77 -61.5t-78 -48t-55 -21.5q-25 4 -32 41zM262 831q0 -18 6 -32q23 -8 51 -8q18 18 32 39.5t18 46.5q2 2 2 4t2 4q-25 29 -76 28 q-16 -10 -25.5 -33.5t-9.5 -48.5zM487 831q0 -18 7 -32q23 -8 51 -8q18 18 31.5 39.5t17.5 46.5q2 2 2 4t2 4q-25 29 -76 28q-16 -10 -25.5 -33.5t-9.5 -48.5z" />
<glyph unicode="&#xe5;" horiz-adv-x="751" d="M75 152.5q-9 -70.5 12.5 -115.5t76.5 -39q29 2 64.5 19.5t70.5 40t65.5 48t49.5 46.5q37 41 62.5 79.5t55.5 98.5q10 -78 19.5 -155t34.5 -150q43 -39 100 -23l2 6l6 37l-32 10q-23 82 -37.5 165t-24.5 169q-6 53 -12 107.5t-6 109.5q0 14 -13 15q-109 4 -195.5 -41 t-150 -117t-101.5 -156t-47 -154.5zM132 90q-7 37 3 91.5t38 116.5t75 117.5t113.5 96.5t152.5 49q2 -55 -10 -136t-76 -183q-18 -29 -54 -62t-77 -61.5t-78 -48t-55 -21.5q-25 4 -32 41zM248 856q0 -55 30.5 -92t73.5 -51.5t90 -5t82 44.5q23 23 35 54.5t12 65.5 q0 10 -1 22.5t-3 25.5q-10 59 -60 87.5t-108.5 21.5t-104.5 -49t-46 -124zM305 860q0 61 34 92t89 31q41 0 58.5 -20.5t29.5 -61.5q0 -4 2 -9t2 -9q0 -72 -33.5 -101.5t-73.5 -26.5t-74 32.5t-34 72.5z" />
<glyph unicode="&#xe6;" horiz-adv-x="1130" d="M75 152.5q-9 -70.5 12.5 -115.5t76.5 -39q29 2 64.5 19.5t70.5 40t65.5 48t49.5 46.5q37 41 62.5 79.5t55.5 98.5q2 -43 3.5 -67.5t2.5 -39t5 -25t10 -24.5l2 -2q8 -49 45 -96t88 -70q23 -6 49.5 -9t57.5 1q63 6 117.5 40t101.5 75q16 16 32.5 31.5t26.5 35.5 q-23 0 -50.5 -20.5t-62 -46t-76.5 -47t-93 -23.5q-39 -2 -67 8t-52 43q-23 29 -29 58.5t-16 64.5q66 27 129 54.5t116 76.5q14 14 40 38t48.5 51.5t35 56t3.5 53.5q-12 35 -49 47t-71 14q-98 4 -170 -51t-113 -139q-4 47 -9 94t-5 94q0 14 -13 15q-109 4 -195.5 -41 t-150 -117t-101.5 -156t-47 -154.5zM132 90q-7 37 3 91.5t38 116.5t75 117.5t113.5 96.5t152.5 49q2 -55 -10 -136t-76 -183q-18 -29 -54 -62t-77 -61.5t-78 -48t-55 -21.5q-25 4 -32 41zM623 268q0 49 19.5 105.5t56 101.5t89 70.5t115.5 13.5q37 -6 35 -31.5t-20.5 -55.5 t-44 -56.5t-37.5 -34.5q-41 -33 -101.5 -64.5t-111.5 -48.5z" />
<glyph unicode="&#xe7;" horiz-adv-x="690" d="M73 242q-1 -45 9 -84q12 -51 43 -85t72 -53.5t89 -24.5t95 3q49 -18 62.5 -44t4 -51.5t-34 -49t-51.5 -39.5q-45 -31 -79.5 -35t-55.5 -19q-14 -6 -18 -16t-2 -19.5t9 -14.5t15 -1q25 0 71 13.5t108 54.5q12 8 32.5 23.5t37 38t27.5 50t5 60.5q-4 23 -20.5 41t-38.5 30 q25 10 46 24.5t42 31.5q25 25 46 54.5t46 55.5q-31 -4 -49.5 -14t-33.5 -24.5t-29.5 -30t-37.5 -31.5q-35 -25 -82 -37t-93 -9t-84 22.5t-52 56.5q-20 49 -22.5 102t11 104.5t43 95.5t72.5 77q31 23 65 36t75 9q20 -2 45.5 -10.5t25.5 -32.5q0 -18 -13 -36t-28 -28 q20 6 37 4t30 1t24.5 17.5t21.5 55.5t-28.5 62.5t-101 18.5t-135.5 -30.5t-128 -85.5q-29 -29 -49.5 -67.5t-31.5 -81.5t-12 -88z" />
<glyph unicode="&#xe8;" horiz-adv-x="653" d="M77.5 286q-14.5 -83 6 -153t77 -111.5t156.5 -31.5q63 6 117.5 39.5t102.5 74.5q16 16 32.5 32t26.5 36q-23 0 -50.5 -20.5t-62 -46t-76.5 -47t-94 -23.5q-39 -2 -66.5 8t-51.5 43q-23 29 -29 58.5t-16 64.5q66 27 129 54.5t116 76.5q14 14 40 37.5t47.5 51.5t34.5 56.5 t5 53.5q-14 35 -50 47t-71 14q-88 4 -155.5 -42t-110.5 -117.5t-57.5 -154.5zM145 260q0 49 19.5 105.5t56.5 101.5t89.5 70.5t115.5 13.5q37 -6 35 -31.5t-21.5 -55.5t-45 -56.5t-36.5 -34.5q-43 -35 -102 -66t-111 -47zM205 938q4 -6 29.5 -14.5t66.5 -29t92 -55 t105 -94.5l2 5q-33 63 -70 105t-71.5 67.5t-63.5 40t-45 20.5q-10 -4 -24.5 -19.5t-20.5 -25.5z" />
<glyph unicode="&#xe9;" horiz-adv-x="653" d="M77.5 286q-14.5 -83 6 -153t77 -111.5t156.5 -31.5q63 6 117.5 39.5t102.5 74.5q16 16 32.5 32t26.5 36q-23 0 -50.5 -20.5t-62 -46t-76.5 -47t-94 -23.5q-39 -2 -66.5 8t-51.5 43q-23 29 -29 58.5t-16 64.5q66 27 129 54.5t116 76.5q14 14 40 37.5t47.5 51.5t34.5 56.5 t5 53.5q-14 35 -50 47t-71 14q-88 4 -155.5 -42t-110.5 -117.5t-57.5 -154.5zM145 260q0 49 19.5 105.5t56.5 101.5t89.5 70.5t115.5 13.5q37 -6 35 -31.5t-21.5 -55.5t-45 -56.5t-36.5 -34.5q-43 -35 -102 -66t-111 -47zM205 750l2 -5q53 59 104 94t92 55.5t67 29t30 14.5 q-6 10 -20.5 25.5t-24.5 19.5q-16 -6 -45 -20.5t-64 -40t-71.5 -67.5t-69.5 -105z" />
<glyph unicode="&#xea;" horiz-adv-x="653" d="M77.5 286q-14.5 -83 6 -153t77 -111.5t156.5 -31.5q63 6 117.5 39.5t102.5 74.5q16 16 32.5 32t26.5 36q-23 0 -50.5 -20.5t-62 -46t-76.5 -47t-94 -23.5q-39 -2 -66.5 8t-51.5 43q-23 29 -29 58.5t-16 64.5q66 27 129 54.5t116 76.5q14 14 40 37.5t47.5 51.5t34.5 56.5 t5 53.5q-14 35 -50 47t-71 14q-88 4 -155.5 -42t-110.5 -117.5t-57.5 -154.5zM145 260q0 49 19.5 105.5t56.5 101.5t89.5 70.5t115.5 13.5q37 -6 35 -31.5t-21.5 -55.5t-45 -56.5t-36.5 -34.5q-43 -35 -102 -66t-111 -47zM158 717l2 -2q82 29 127.5 79t72.5 91 q25 -41 71 -91.5t128 -78.5l4 2q-55 45 -92 94t-60.5 90t-34.5 68.5t-16 31.5q-6 -4 -17 -31.5t-33.5 -68.5t-59.5 -90t-92 -94z" />
<glyph unicode="&#xeb;" horiz-adv-x="653" d="M77.5 286q-14.5 -83 6 -153t77 -111.5t156.5 -31.5q63 6 117.5 39.5t102.5 74.5q16 16 32.5 32t26.5 36q-23 0 -50.5 -20.5t-62 -46t-76.5 -47t-94 -23.5q-39 -2 -66.5 8t-51.5 43q-23 29 -29 58.5t-16 64.5q66 27 129 54.5t116 76.5q14 14 40 37.5t47.5 51.5t34.5 56.5 t5 53.5q-14 35 -50 47t-71 14q-88 4 -155.5 -42t-110.5 -117.5t-57.5 -154.5zM145 260q0 49 19.5 105.5t56.5 101.5t89.5 70.5t115.5 13.5q37 -6 35 -31.5t-21.5 -55.5t-45 -56.5t-36.5 -34.5q-43 -35 -102 -66t-111 -47zM205 831q0 -18 6 -32q23 -8 51 -8q18 18 31.5 39.5 t17.5 46.5q2 2 2 4t2 4q-25 29 -75 28q-16 -10 -25.5 -33.5t-9.5 -48.5zM430 831q0 -18 6 -32q23 -8 51 -8q18 18 31.5 39.5t18.5 46.5q2 2 2 4t2 4q-25 29 -76 28q-16 -10 -25.5 -33.5t-9.5 -48.5z" />
<glyph unicode="&#xec;" horiz-adv-x="235" d="M-29 938q4 -6 30 -14.5t67 -29t92 -55t104 -94.5l2 5q-33 63 -69.5 105t-71.5 67.5t-63.5 40t-45.5 20.5q-10 -4 -24.5 -19.5t-20.5 -25.5zM45 293q0 -84 4 -162t12 -115q20 -25 46 -27.5t53 -2.5l6 13t2 44q-2 8 -16.5 10t-18.5 8q-8 10 -10 47t-2 80v80v51 q-2 41 -3 104.5t13 133.5q-10 10 -34.5 8t-35.5 -6q-8 -33 -12 -107.5t-4 -158.5z" />
<glyph unicode="&#xed;" horiz-adv-x="235" d="M-29 750l2 -5q53 59 104.5 94t92.5 55.5t66.5 29t29.5 14.5q-6 10 -20.5 25.5t-24.5 19.5q-16 -6 -45 -20.5t-63.5 -40t-71.5 -67.5t-70 -105zM45 293q0 -84 4 -162t12 -115q20 -25 46 -27.5t53 -2.5l6 13t2 44q-2 8 -16.5 10t-18.5 8q-8 10 -10 47t-2 80v80v51 q-2 41 -3 104.5t13 133.5q-10 10 -34.5 8t-35.5 -6q-8 -33 -12 -107.5t-4 -158.5z" />
<glyph unicode="&#xee;" horiz-adv-x="235" d="M-84 717l2 -2q82 29 128 79t73 91q25 -41 71 -91.5t127 -78.5l2 2q-55 45 -92 94t-59.5 90t-33.5 68.5t-15 31.5q-6 -4 -17.5 -31.5t-34 -68.5t-59.5 -90t-92 -94zM45 293q0 -84 4 -162t12 -115q20 -25 46 -27.5t53 -2.5l6 13t2 44q-2 8 -16.5 10t-18.5 8q-8 10 -10 47 t-2 80v80v51q-2 41 -3 104.5t13 133.5q-10 10 -34.5 8t-35.5 -6q-8 -33 -12 -107.5t-4 -158.5z" />
<glyph unicode="&#xef;" horiz-adv-x="235" d="M-49 831q0 -18 6 -32q23 -8 51 -8q18 18 31.5 39.5t17.5 46.5q2 2 2 4t2 4q-25 29 -75 28q-16 -10 -25.5 -33.5t-9.5 -48.5zM45 293q0 -84 4 -162t12 -115q20 -25 46 -27.5t53 -2.5l6 13t2 44q-2 8 -16.5 10t-18.5 8q-8 10 -10 47t-2 80v80v51q-2 41 -3 104.5t13 133.5 q-10 10 -34.5 8t-35.5 -6q-8 -33 -12 -107.5t-4 -158.5zM176 831q0 -18 6 -32q23 -8 51 -8q18 18 32 39.5t18 46.5q2 2 2 4t2 4q-25 29 -76 28q-16 -10 -25.5 -33.5t-9.5 -48.5z" />
<glyph unicode="&#xf0;" horiz-adv-x="768" d="M25 1159l28 -35q127 -23 236.5 -81t195.5 -156q-33 2 -74.5 1t-81.5 -6t-75 -17.5t-54.5 -33t-18.5 -52t32 -77.5l23 11q-27 39 -23 63.5t29.5 38.5t63.5 20.5t79 7.5t76 1h57q84 -111 117 -229.5t33 -256.5q-25 76 -77 124t-117.5 69.5t-136.5 13.5t-130.5 -42t-100 -96 t-45.5 -153q-4 -72 19.5 -129t66.5 -97t102.5 -62.5t127.5 -22.5q76 0 137 25.5t104.5 71.5t68 108.5t28.5 136.5q4 47 5 94t-3 97q-2 43 -16.5 90t-34 94t-44 90t-49.5 78q31 2 52.5 7t39 14.5t33 23.5t33.5 39q-4 10 -10 21.5t-19 15.5q-20 -25 -35.5 -40.5t-33 -23.5 t-39 -11t-51.5 -5q-98 123 -230.5 189.5t-287.5 80.5zM121 256q2 47 16.5 90t42 79t65.5 60.5t87 32.5q106 18 192 -38t117 -158q4 -16 10 -44.5t4 -44.5q-4 -47 -40.5 -96t-77.5 -71q-63 -37 -137 -41.5t-136.5 20.5t-103.5 78t-39 133z" />
<glyph unicode="&#xf1;" horiz-adv-x="673" d="M72 6q6 -10 27.5 -9t33.5 3q4 31 6 53.5t9.5 49t23.5 61.5t49 88q14 25 43 64.5t62.5 79.5t70.5 69t66 29q10 -37 7 -78t-3 -78q0 -35 1 -82t6 -95t17.5 -91t34.5 -70q23 0 47.5 5.5t42.5 19.5q2 14 4.5 33.5t-6.5 29.5q-8 -2 -15 -9t-21 -7q-20 14 -30.5 60t-15 100.5 t-3.5 106.5t6 79q4 35 10 70.5t-4 70.5q-4 14 -17.5 18.5t-29 2.5t-30.5 -7.5t-24 -9.5q-49 -27 -91 -67.5t-79 -89t-68.5 -98.5t-58.5 -97q2 18 8.5 71.5t11.5 112t7 106.5t-4 58q-18 -6 -35.5 -10t-38.5 -8q0 -135 -10 -267.5t-10 -267.5zM102 786q4 -6 13.5 -7t13.5 -7 q2 18 11.5 40t22.5 39t26.5 28.5t25.5 11.5q10 -6 18.5 -9t16.5 -8q47 -23 93 -53t93 -49q25 -10 45.5 5.5t37 43t26.5 63t14 70.5q-4 2 -16.5 3t-16.5 1q-4 -12 -10 -32.5t-12 -30.5q-10 -16 -25.5 -41t-42.5 -16q-14 4 -40.5 19t-57.5 33.5t-59.5 36t-45.5 25.5 q-25 8 -45 -3t-36.5 -35.5t-28.5 -57.5t-21 -70z" />
<glyph unicode="&#xf2;" horiz-adv-x="659" d="M73 239.5q-5 -61.5 9 -113.5t51 -88t96 -42q82 -10 156 37t126 120.5t76.5 162.5t6.5 163q-12 53 -55 72.5t-90 21.5q-51 0 -85 -4t-55.5 -10t-34 -12t-18.5 -8q-53 -25 -92 -73t-62.5 -106.5t-28.5 -120zM142.5 295q15.5 84 74.5 154q10 10 23.5 23t36 25.5t54.5 20.5 t79 8q59 0 89.5 -26.5t38 -68.5t-4 -94t-36 -102.5t-58 -92.5t-70.5 -62q-82 -47 -138.5 -21.5t-80 89t-8 147.5zM217 938q4 -6 29.5 -14.5t66.5 -29t92.5 -55t104.5 -94.5l2 5q-33 63 -69.5 105t-71.5 67.5t-63.5 40t-45.5 20.5q-10 -4 -24.5 -19.5t-20.5 -25.5z" />
<glyph unicode="&#xf3;" horiz-adv-x="659" d="M73 239.5q-5 -61.5 9 -113.5t51 -88t96 -42q82 -10 156 37t126 120.5t76.5 162.5t6.5 163q-12 53 -55 72.5t-90 21.5q-51 0 -85 -4t-55.5 -10t-34 -12t-18.5 -8q-53 -25 -92 -73t-62.5 -106.5t-28.5 -120zM142.5 295q15.5 84 74.5 154q10 10 23.5 23t36 25.5t54.5 20.5 t79 8q59 0 89.5 -26.5t38 -68.5t-4 -94t-36 -102.5t-58 -92.5t-70.5 -62q-82 -47 -138.5 -21.5t-80 89t-8 147.5zM219 750l2 -5q53 59 104.5 94t92.5 55.5t66.5 29t29.5 14.5q-6 10 -20.5 25.5t-24.5 19.5q-16 -6 -45 -20.5t-63.5 -40t-71.5 -67.5t-70 -105z" />
<glyph unicode="&#xf4;" horiz-adv-x="659" d="M73 239.5q-5 -61.5 9 -113.5t51 -88t96 -42q82 -10 156 37t126 120.5t76.5 162.5t6.5 163q-12 53 -55 72.5t-90 21.5q-51 0 -85 -4t-55.5 -10t-34 -12t-18.5 -8q-53 -25 -92 -73t-62.5 -106.5t-28.5 -120zM142.5 295q15.5 84 74.5 154q10 10 23.5 23t36 25.5t54.5 20.5 t79 8q59 0 89.5 -26.5t38 -68.5t-4 -94t-36 -102.5t-58 -92.5t-70.5 -62q-82 -47 -138.5 -21.5t-80 89t-8 147.5zM178 717l2 -2q82 29 128 79t71 91q27 -41 73 -91.5t128 -78.5l2 2q-55 45 -92 94t-59.5 90t-34 68.5t-17.5 31.5q-4 -4 -15.5 -31.5t-34 -68.5t-59.5 -90 t-92 -94z" />
<glyph unicode="&#xf5;" horiz-adv-x="669" d="M73 239.5q-5 -61.5 9 -113.5t51 -88t96 -42q82 -10 156 37t126 120.5t76.5 162.5t6.5 163q-12 53 -55 72.5t-90 21.5q-51 0 -85 -4t-55.5 -10t-34 -12t-18.5 -8q-53 -25 -92 -73t-62.5 -106.5t-28.5 -120zM142.5 295q15.5 84 74.5 154q10 10 23.5 23t36 25.5t54.5 20.5 t79 8q59 0 89.5 -26.5t38 -68.5t-4 -94t-36 -102.5t-58 -92.5t-70.5 -62q-82 -47 -138.5 -21.5t-80 89t-8 147.5zM156 786q4 -6 13 -7t13 -7q2 18 11.5 40t22.5 39t26.5 28.5t25.5 11.5q10 -6 18.5 -9t16.5 -8q49 -23 94 -53t92 -49q25 -10 45.5 5.5t37 43t26.5 63t14 70.5 q-4 2 -16 3t-16 1q-4 -12 -10.5 -32.5t-12.5 -30.5q-10 -16 -25.5 -41t-42.5 -16q-14 4 -40.5 19t-57.5 33.5t-59.5 36t-44.5 25.5q-25 8 -45.5 -3t-37 -35.5t-28.5 -57.5t-20 -70z" />
<glyph unicode="&#xf6;" horiz-adv-x="659" d="M73 239.5q-5 -61.5 9 -113.5t51 -88t96 -42q82 -10 156 37t126 120.5t76.5 162.5t6.5 163q-12 53 -55 72.5t-90 21.5q-51 0 -85 -4t-55.5 -10t-34 -12t-18.5 -8q-53 -25 -92 -73t-62.5 -106.5t-28.5 -120zM142.5 295q15.5 84 74.5 154q10 10 23.5 23t36 25.5t54.5 20.5 t79 8q59 0 89.5 -26.5t38 -68.5t-4 -94t-36 -102.5t-58 -92.5t-70.5 -62q-82 -47 -138.5 -21.5t-80 89t-8 147.5zM219 831q0 -18 6 -32q23 -8 51 -8q18 18 32 39.5t18 46.5q2 2 2 4t2 4q-25 29 -76 28q-16 -10 -25.5 -33.5t-9.5 -48.5zM444 831q0 -18 7 -32q23 -8 51 -8 q18 18 31.5 39.5t17.5 46.5q2 2 2 4t2 4q-25 29 -76 28q-16 -10 -25.5 -33.5t-9.5 -48.5z" />
<glyph unicode="&#xf7;" d="M72 397q154 10 307 13.5t307 7.5l12 39h-307q-154 0 -307 -2q-4 -14 -6 -28.5t-6 -29.5zM336 160q10 -18 30.5 -27.5t41.5 -5.5q23 25 30 45t13 51q-16 12 -37 23.5t-41 11.5q-23 -18 -30 -44t-7 -54zM340 616q10 -20 30.5 -27t41.5 -3q25 25 31 45t12 51 q-16 12 -37 23.5t-41 11.5q-23 -18 -30 -45t-7 -56z" />
<glyph unicode="&#xf8;" horiz-adv-x="808" d="M72 -29q23 -16 37 -18t22 0q31 6 47 22q4 4 9.5 8.5t9.5 8.5l26 31q33 -20 78 -27q82 -10 155.5 37t126 120.5t77 163t6.5 162.5q-2 14 -11 29l31 37q6 2 8 8q13 17 21 25t15 17t22 26q-16 2 -25 2h-14q-43 0 -58 -11l-2 -2q2 0 -2 -2q-8 -12 -18 -25.5t-23 -29.5 q-39 20 -90 20t-85 -4t-55.5 -10t-33.5 -12t-18 -8q-63 -31 -106.5 -92.5t-63 -132t-13 -140.5t42.5 -117q-18 -20 -24 -30.5t-13.5 -18.5t-23.5 -15t-55 -22zM210 271q5 46 24.5 91.5t54.5 86.5q8 10 22.5 23t36 25.5t54 20.5t79.5 8q57 0 88 -24q-12 -16 -24.5 -31.5 t-28.5 -32.5q-8 -10 -15 -19t-18 -20q-20 -23 -39.5 -47t-42.5 -49q-29 -35 -55.5 -64.5t-50.5 -58.5q-35 -40 -55 -67q-18 31 -26.5 71.5t-3.5 86.5zM270 76q49 55 104.5 116.5t114.5 129.5l115 131q14 -43 5 -98.5t-33.5 -108.5t-60.5 -98.5t-75 -67.5q-53 -31 -96 -29 t-74 25z" />
<glyph unicode="&#xf9;" horiz-adv-x="690" d="M68 220.5q-2 -44.5 1 -91.5t11 -86t29 -45q74 -25 134 2t106 76t80 102t58 82q2 -25 7.5 -64.5t15.5 -79.5t26.5 -73t45.5 -43l49 31l2 -2q-37 35 -52.5 105.5t-18.5 151.5t2 157.5t9 123.5q-12 14 -36.5 13.5t-40.5 -5.5q2 -61 5 -116.5t-20 -116.5q-8 -25 -43 -81 t-82 -110.5t-99 -89t-95 -18.5q-10 4 -12.5 11t-4.5 14q-16 82 -7 169t20 169q4 35 15 69.5t13 69.5q-14 12 -32.5 11t-34.5 -5q-29 -61 -35 -131t-12 -137q-2 -18 -4 -62.5zM197 938q4 -6 29.5 -14.5t66.5 -29t92 -55t104 -94.5l3 5q-33 63 -70 105t-72 67.5t-63.5 40 t-44.5 20.5q-10 -4 -24.5 -19.5t-20.5 -25.5z" />
<glyph unicode="&#xfa;" horiz-adv-x="690" d="M68 220.5q-2 -44.5 1 -91.5t11 -86t29 -45q74 -25 134 2t106 76t80 102t58 82q2 -25 7.5 -64.5t15.5 -79.5t26.5 -73t45.5 -43l49 31l2 -2q-37 35 -52.5 105.5t-18.5 151.5t2 157.5t9 123.5q-12 14 -36.5 13.5t-40.5 -5.5q2 -61 5 -116.5t-20 -116.5q-8 -25 -43 -81 t-82 -110.5t-99 -89t-95 -18.5q-10 4 -12.5 11t-4.5 14q-16 82 -7 169t20 169q4 35 15 69.5t13 69.5q-14 12 -32.5 11t-34.5 -5q-29 -61 -35 -131t-12 -137q-2 -18 -4 -62.5zM197 750l2 -5q53 59 104 94t92 55.5t67 29t30 14.5q-6 10 -20.5 25.5t-25.5 19.5 q-16 -6 -44.5 -20.5t-63.5 -40t-72 -67.5t-69 -105z" />
<glyph unicode="&#xfb;" horiz-adv-x="690" d="M68 220.5q-2 -44.5 1 -91.5t11 -86t29 -45q74 -25 134 2t106 76t80 102t58 82q2 -25 7.5 -64.5t15.5 -79.5t26.5 -73t45.5 -43l49 31l2 -2q-37 35 -52.5 105.5t-18.5 151.5t2 157.5t9 123.5q-12 14 -36.5 13.5t-40.5 -5.5q2 -61 5 -116.5t-20 -116.5q-8 -25 -43 -81 t-82 -110.5t-99 -89t-95 -18.5q-10 4 -12.5 11t-4.5 14q-16 82 -7 169t20 169q4 35 15 69.5t13 69.5q-14 12 -32.5 11t-34.5 -5q-29 -61 -35 -131t-12 -137q-2 -18 -4 -62.5zM158 717l4 -2q80 29 126.5 79t71.5 91q25 -41 72 -91.5t129 -78.5l2 2q-55 45 -92 94t-59.5 90 t-33.5 68.5t-18 31.5q-4 -4 -15 -31.5t-34.5 -68.5t-60.5 -90t-92 -94z" />
<glyph unicode="&#xfc;" horiz-adv-x="690" d="M68 220.5q-2 -44.5 1 -91.5t11 -86t29 -45q74 -25 134 2t106 76t80 102t58 82q2 -25 7.5 -64.5t15.5 -79.5t26.5 -73t45.5 -43l49 31l2 -2q-37 35 -52.5 105.5t-18.5 151.5t2 157.5t9 123.5q-12 14 -36.5 13.5t-40.5 -5.5q2 -61 5 -116.5t-20 -116.5q-8 -25 -43 -81 t-82 -110.5t-99 -89t-95 -18.5q-10 4 -12.5 11t-4.5 14q-16 82 -7 169t20 169q4 35 15 69.5t13 69.5q-14 12 -32.5 11t-34.5 -5q-29 -61 -35 -131t-12 -137q-2 -18 -4 -62.5zM197 831q0 -18 6 -32q23 -8 51 -8q18 18 31.5 39.5t17.5 46.5q2 2 2 4t2 4q-25 29 -76 28 q-16 -10 -25 -33.5t-9 -48.5zM422 831q0 -18 6 -32q23 -8 51 -8q18 18 31.5 39.5t17.5 46.5q2 2 2 4t2 4q-25 29 -75 28q-16 -10 -25.5 -33.5t-9.5 -48.5z" />
<glyph unicode="&#xfd;" horiz-adv-x="667" d="M-133.5 -355q2.5 -30 16 -63t34 -61.5t32.5 -40.5l37 -37q57 -57 136 -96t163 -51.5t168 5t151 70.5q59 47 87 97t26 126q0 72 -8.5 129.5t-21.5 108.5t-29.5 97t-34.5 96q-20 57 -37 132.5t-21 153.5q-2 63 2 129t8 127q-10 14 -35.5 13.5t-41.5 -5.5q0 -14 3 -38.5 t3 -55.5t-4 -66.5t-17 -72.5q-8 -25 -49 -75t-91 -99t-101.5 -87t-77.5 -38q-10 0 -12 9t-5 16q-14 80 -3.5 167t16.5 171q2 12 6 30.5t9 39t9 38.5t4 31q-12 12 -31.5 11t-35.5 -5q-29 -61 -35 -132t-12 -136q-2 -18 -3 -62.5t1 -91.5t11 -86t28 -45q43 -14 98 14.5 t109.5 74.5t100.5 95t70 78q6 -41 16.5 -89t29.5 -118q16 -61 33.5 -116.5t31.5 -114t21.5 -123t5.5 -145.5q-2 -78 -39 -124t-94.5 -66.5t-128 -16.5t-141 27.5t-132 65.5t-102.5 97q-18 27 -22.5 32t-12.5 15q-27 51 -24 74t63 12q6 8 4 10.5t2 12.5q-12 10 -27.5 12 t-32 0t-30.5 -7t-21 -9q-25 -14 -22.5 -44zM223 750l2 -5q53 59 104.5 94t92.5 55.5t66.5 29t29.5 14.5q-6 10 -20.5 25.5t-24.5 19.5q-16 -6 -45 -20.5t-63.5 -40t-71.5 -67.5t-70 -105z" />
<glyph unicode="&#xfe;" horiz-adv-x="710" d="M72 -223q0 -92 1 -183.5t17 -181.5q16 -16 47 -16t47 16l-16 45q-12 35 -17.5 106.5t-7.5 153.5t0 159t2 120q90 -6 177.5 36t157 106.5t115.5 141t56.5 141t-23.5 104.5t-124 34q-88 -6 -183.5 -52t-164.5 -124q-2 25 3 100.5t12 164.5t17.5 176t20.5 137q-4 2 -11.5 3 t-11.5 5l-55 -6q-10 -49 -17.5 -134.5t-12.5 -170.5t-9 -155.5t-4 -90.5q-6 -160 -11 -317.5t-5 -317.5zM145 41q4 68 5 135q0 68 4 135q10 20 43.5 50t79 57.5t96.5 50.5t96 32t78 1t41 -43q14 -57 -17.5 -124t-90 -125t-133.5 -102.5t-146 -56.5z" />
<glyph unicode="&#xff;" horiz-adv-x="667" d="M-135.5 -355q2.5 -30 16 -63t33.5 -61.5t33 -40.5l37 -37q57 -57 136 -96t163 -51.5t168 5t151 70.5q59 47 87 97t26 126q0 72 -8.5 129.5t-21.5 108.5t-29.5 97t-34.5 96q-20 57 -37 132.5t-21 153.5q-2 63 2 129t8 127q-10 14 -35.5 13.5t-41.5 -5.5q0 -14 3 -38.5 t3 -55.5t-4 -66.5t-17 -72.5q-8 -25 -49 -75t-91 -99t-101.5 -87t-77.5 -38q-10 0 -12.5 9t-4.5 16q-14 80 -3.5 167t16.5 171q2 12 6 30.5t9 39t9 38.5t4 31q-12 12 -31.5 11t-35.5 -5q-29 -61 -35 -132t-12 -136q-2 -18 -3 -62.5t1 -91.5t11 -86t28 -45q43 -14 98 14.5 t109.5 74.5t100.5 95t70 78q6 -41 16.5 -89t28.5 -118q16 -61 34 -116.5t32 -114t21.5 -123t5.5 -145.5q-2 -78 -39 -124t-94.5 -66.5t-128 -16.5t-141 27.5t-132 65.5t-102.5 97q-18 27 -22.5 32t-12.5 15q-27 51 -24 74t63 12q6 8 4 10.5t2 12.5q-12 10 -27.5 12t-32 0 t-30.5 -7t-21 -9q-25 -14 -22.5 -44zM221 831q0 -18 6 -32q23 -8 52 -8q18 18 31.5 39.5t17.5 46.5q2 2 2 4t2 4q-25 29 -76 28q-16 -10 -25.5 -33.5t-9.5 -48.5zM446 831q0 -18 7 -32q23 -8 51 -8q18 18 31.5 39.5t17.5 46.5q2 2 2 4t2 4q-25 29 -76 28 q-16 -10 -25.5 -33.5t-9.5 -48.5z" />
<glyph unicode="&#x152;" horiz-adv-x="1413" d="M75 452.5q7 -114.5 44 -212t105.5 -166t166.5 -82.5q39 -6 80 -2q14 4 41 8t58.5 14.5t63.5 27.5t58 46q41 -43 98.5 -67.5t116.5 -34.5q53 -10 118 -1t127 34.5t116.5 67.5t87.5 101q-4 39 -19.5 36t-37 -25.5t-46 -52t-49.5 -44.5q-51 -31 -108.5 -48t-114.5 -19 t-112.5 13t-102.5 54q-37 29 -64.5 72t-27.5 100q-2 70 17.5 124.5t53 93t81.5 64.5t104 38q66 14 100.5 18t67.5 8l2 33q-49 10 -107.5 27.5t-106.5 46.5t-78 70t-24 100q0 31 15.5 55.5t42 41t61.5 25.5t72 13q90 8 146.5 -25.5t66.5 -99.5l-10 -63q20 -14 42.5 5t26.5 58 l-8 29t-33.5 62.5t-76 61t-136.5 25.5q-29 0 -63.5 -5t-68.5 -17t-63.5 -33.5t-47.5 -52.5q-27 39 -74 65.5t-101 30.5q-82 4 -132 -3t-80.5 -18.5t-46 -22.5t-23.5 -17q-80 -47 -131 -136.5t-72.5 -198t-14.5 -223zM120 496.5q-3 93.5 20.5 188.5t78.5 177q14 20 33.5 48 t55.5 50.5t91.5 39t143.5 16.5q8 0 16 -1t16 -1q57 -2 91 -35t61 -66q0 -4 -1 -10t-1 -12q-2 -57 14.5 -94t44.5 -66q37 -41 87.5 -54t99.5 -34q-43 2 -104.5 -16.5t-119 -61.5t-96.5 -110.5t-37 -165.5q0 -51 12.5 -91t35.5 -73q-39 -41 -90.5 -60.5t-100.5 -15.5 q-74 -10 -137.5 23.5t-109.5 97t-73.5 148.5t-30.5 178.5z" />
<glyph unicode="&#x153;" horiz-adv-x="1095" d="M73 239.5q-5 -61.5 9 -113.5t51 -88t96 -42q86 -10 162 40t127 130q14 -82 72.5 -134t169.5 -42q63 6 118.5 39.5t100.5 74.5q18 16 33.5 32t25.5 36q-23 0 -50 -20.5t-62 -46t-77 -47t-93 -23.5q-39 -2 -65.5 8t-53.5 43q-23 29 -29 58.5t-16 64.5q66 27 130 54.5 t116 76.5q16 14 41.5 37.5t47 51.5t34 56.5t4.5 53.5q-10 35 -48 47t-73 14q-78 4 -141.5 -34t-106.5 -97l-2 10q-10 53 -53 72.5t-92 21.5q-51 0 -85 -4t-55.5 -10t-34 -12t-18.5 -8q-53 -25 -92 -73t-62.5 -106.5t-28.5 -120zM142.5 295q15.5 84 74.5 154q10 10 23.5 23 t36 25.5t54 20.5t79.5 8q86 2 112.5 -51t14.5 -127q-4 -14 -8.5 -27.5t-6.5 -27.5q-23 -68 -64.5 -127.5t-88.5 -85.5q-82 -47 -138.5 -21.5t-80 89t-8 147.5zM588 260q0 49 20.5 105.5t57 101.5t88 70.5t114.5 13.5q37 -6 36 -31.5t-20.5 -55.5t-45 -56.5t-37.5 -34.5 q-41 -35 -101.5 -66t-111.5 -47z" />
<glyph unicode="&#x178;" horiz-adv-x="929" d="M60.5 -423q19.5 -83 69.5 -142.5t123 -91t151.5 -26.5t153.5 51t130 143q63 111 104.5 275.5t60.5 348.5t19 369t-18 330q-8 59 -19.5 111t-23.5 110l-4 16l-2 4h-17q-12 0 -25 -2t-23.5 -7t-10.5 -13q4 -16 6 -32.5t6 -31.5q4 -47 6.5 -91t2.5 -97q0 -20 -3.5 -55 t-11.5 -78t-22.5 -91.5t-36.5 -91.5q-12 -27 -20.5 -42t-14.5 -27.5t-15.5 -25.5t-25.5 -38q-27 -39 -52.5 -77.5t-53.5 -75.5q-16 -23 -49 -60t-71 -73.5t-77 -63.5t-70 -27q-20 0 -30.5 35t-15.5 79t-6 86t-1 56q0 145 11.5 291t21.5 291q4 49 4 105q0 55 -18 96 q-4 0 -16.5 1t-26.5 1q-12 0 -22.5 -1t-10.5 -5q18 -72 14 -130.5t-4 -86.5q0 -86 -8 -189.5t-14.5 -209t-4.5 -206t25 -180.5q4 -6 10 -12t15 -10q10 -27 26.5 -40.5t44.5 -13.5q45 0 94.5 29t81.5 57q37 33 89.5 97.5t103.5 138.5t94 145.5t61 118.5q20 47 30.5 95.5 t19.5 95.5q8 -57 11 -132t1 -198q-2 -190 -25.5 -355t-61.5 -292t-86 -210t-97 -108q-92 -45 -178.5 -36.5t-144.5 56.5t-80.5 126t13.5 172l-75 26q-31 -98 -11.5 -181zM309 1282q0 -18 6 -33q23 -8 52 -8q18 18 31.5 40t17.5 46q2 2 2 4t2 4q-25 29 -76 29 q-16 -10 -25.5 -33.5t-9.5 -48.5zM535 1282q0 -18 6 -33q23 -8 51 -8q18 18 31.5 40t17.5 46q2 2 2 4t2 4q-25 29 -76 29q-16 -10 -25 -33.5t-9 -48.5z" />
<glyph unicode="&#x2c6;" horiz-adv-x="571" d="M72 864h67q37 43 56.5 65.5t34 41t29.5 39t46 59.5q23 -33 40 -59l17 -27q0 -2 11.5 -18.5t26 -38t25.5 -42t15 -26.5q14 -4 21.5 -2t14.5 6t15.5 7t22.5 -1q-35 51 -54.5 82t-34.5 56.5t-32.5 54.5t-50.5 74q-16 4 -32.5 -0.5t-33.5 0.5q-37 -47 -59 -77t-42.5 -57.5 t-44.5 -58.5t-58 -78z" />
<glyph unicode="&#x2dc;" horiz-adv-x="587" d="M72 918q6 -6 15 -7.5t13 -7.5q2 18 12.5 40t22.5 39t26.5 28.5t24.5 11.5q10 -4 18.5 -8t18.5 -8q45 -23 90 -52.5t97 -50.5q23 -10 43 5.5t36.5 44t27.5 64t13 70.5q-6 2 -18 3.5t-16 1.5q-4 -14 -8.5 -35t-12.5 -31q-4 -8 -11 -19.5t-15.5 -20.5t-18.5 -14t-22 -1 q-14 4 -42 19.5t-59 33.5t-59.5 35.5t-44.5 25.5q-25 8 -45.5 -3t-37 -35.5t-28.5 -58.5t-20 -70z" />
<glyph unicode="&#x2000;" horiz-adv-x="740" />
<glyph unicode="&#x2001;" horiz-adv-x="1481" />
<glyph unicode="&#x2002;" horiz-adv-x="740" />
<glyph unicode="&#x2003;" horiz-adv-x="1481" />
<glyph unicode="&#x2004;" horiz-adv-x="493" />
<glyph unicode="&#x2005;" horiz-adv-x="370" />
<glyph unicode="&#x2006;" horiz-adv-x="246" />
<glyph unicode="&#x2007;" horiz-adv-x="246" />
<glyph unicode="&#x2008;" horiz-adv-x="185" />
<glyph unicode="&#x2009;" horiz-adv-x="296" />
<glyph unicode="&#x200a;" horiz-adv-x="82" />
<glyph unicode="&#x2010;" d="M72 397q74 4 150.5 7.5t150.5 7.5q68 2 156.5 3t156.5 3q4 10 6 19.5t6 19.5h-331l-283 -2q-4 -16 -6 -28.5t-6 -29.5z" />
<glyph unicode="&#x2011;" d="M72 397q74 4 150.5 7.5t150.5 7.5q68 2 156.5 3t156.5 3q4 10 6 19.5t6 19.5h-331l-283 -2q-4 -16 -6 -28.5t-6 -29.5z" />
<glyph unicode="&#x2012;" d="M72 397q74 4 150.5 7.5t150.5 7.5q68 2 156.5 3t156.5 3q4 10 6 19.5t6 19.5h-331l-283 -2q-4 -16 -6 -28.5t-6 -29.5z" />
<glyph unicode="&#x2013;" horiz-adv-x="940" d="M72 397q37 2 84 4t97 4.5t97 3.5t84 3q33 0 93.5 1t125 2t124 2t93.5 1q4 10 6.5 19.5t6.5 19.5h-455l-344 -2q-4 -16 -6 -28.5t-6 -29.5z" />
<glyph unicode="&#x2014;" horiz-adv-x="1144" d="M72 397q37 2 97 4t124.5 4.5t125 3.5t97.5 3q23 0 67 1t97 1q55 0 115.5 1t113.5 1q55 0 99.5 1t66.5 1q4 10 6 19.5t6 19.5h-577l-426 -2q-4 -16 -6 -28.5t-6 -29.5z" />
<glyph unicode="&#x2018;" horiz-adv-x="284" d="M72 994q-6 -50 18 -91q12 -4 30 -9l17 -5l15 10q14 10 24 16q-4 6 -9 12.5t-9 16.5q-16 37 -17.5 70t9 62.5t30.5 54.5t47 45h-2q-35 4 -68.5 -23t-56 -68t-28.5 -91z" />
<glyph unicode="&#x2019;" horiz-adv-x="284" d="M72 891h2q33 -4 67.5 22.5t57 67.5t29 91t-18.5 91q-12 4 -29 9l-18 6l-14 -10q-15 -11 -25 -17q4 -6 9 -12t9 -17q35 -74 9.5 -132t-78.5 -99z" />
<glyph unicode="&#x201a;" horiz-adv-x="284" d="M72 -176h2q33 -4 67.5 22.5t57 67.5t29 91t-18.5 91q-12 4 -29 10l-18 5l-14 -11q-15 -10 -25 -16q4 -6 9 -12t9 -17q16 -37 17.5 -70.5t-9 -62t-31 -53.5t-46.5 -45z" />
<glyph unicode="&#x201c;" horiz-adv-x="489" d="M72 994q-6 -50 18 -91q12 -4 30 -9l17 -5l15 10q14 10 24 16q-4 6 -9 12.5t-9 16.5q-16 37 -17.5 70t9 62.5t30.5 54.5t47 45h-2q-35 4 -68.5 -23t-56 -68t-28.5 -91zM276.5 994q-6.5 -50 18.5 -91q12 -4 29 -9l18 -5l14 10q15 10 25 16q-4 6 -9 12.5t-10 16.5 q-16 37 -17 70t9.5 62.5t30.5 54.5t47 45h-2q-35 4 -68.5 -23t-56 -68t-29 -91z" />
<glyph unicode="&#x201d;" horiz-adv-x="489" d="M72 891h2q33 -4 67.5 22.5t57 67.5t29 91t-18.5 91q-12 4 -29 9l-18 6l-14 -10q-15 -11 -25 -17q4 -6 9 -12t9 -17q35 -74 9.5 -132t-78.5 -99zM276 891h3q33 -4 67.5 22.5t57 67.5t29 91t-18.5 91q-12 4 -30 9l-17 6l-15 -10q-14 -11 -24 -17q4 -6 9 -12t9 -17 q35 -74 9.5 -132t-79.5 -99z" />
<glyph unicode="&#x201e;" horiz-adv-x="530" d="M72 -176h2q33 -4 67.5 22.5t57 67.5t29 91t-18.5 91q-12 4 -29 10l-18 5l-14 -11q-15 -10 -25 -16q4 -6 9 -12t9 -17q16 -37 17.5 -70.5t-9 -62t-31 -53.5t-46.5 -45zM317 -176h2q33 -4 68 22.5t57.5 67.5t29 91t-18.5 91q-12 4 -29 10l-18 5l-14 -11q-15 -10 -25 -16 q4 -6 9 -12t9 -17q16 -37 17.5 -70.5t-9 -62t-31 -53.5t-47.5 -45z" />
<glyph unicode="&#x2022;" horiz-adv-x="389" d="M72 502q-2 -29 2 -49.5t12 -40.5q27 -10 58.5 -13.5t64.5 -3.5q45 35 74.5 79t38.5 85q4 6 5 10.5t5 10.5q-29 23 -75 39t-101 16q-35 -23 -57.5 -57.5t-26.5 -75.5z" />
<glyph unicode="&#x2026;" horiz-adv-x="761" d="M66 28.5q6 -28.5 16 -51.5q14 -8 42 -7t44 10q10 29 10 53t-6 53q-18 8 -50 6t-50 -12q-12 -23 -6 -51.5zM332 28.5q6 -28.5 16 -51.5q14 -8 42 -7t44 10q10 29 10 53t-6 53q-18 8 -50 6t-50 -12q-12 -23 -6 -51.5zM598 28.5q6 -28.5 16 -51.5q14 -8 42 -7t44 10 q10 29 11 53q0 24 -6 53q-18 8 -50 6t-51 -12q-12 -23 -6 -51.5z" />
<glyph unicode="&#x202f;" horiz-adv-x="296" />
<glyph unicode="&#x2039;" horiz-adv-x="489" d="M72 332q23 -18 37 -27.5t43 -30.5q47 -31 98 -79t82 -95q8 -12 15 -24.5t18 -22.5q18 4 36.5 15.5t30.5 27.5q-41 78 -103.5 140.5t-133.5 111.5q61 45 113 101.5t98 117.5q-4 14 -14.5 18.5t-22.5 8.5q-16 -12 -28.5 -27.5t-25.5 -31.5q-16 -20 -36.5 -44t-44 -47.5 t-47 -43t-46.5 -31.5q-4 -4 -10 -5.5t-10 -5.5z" />
<glyph unicode="&#x203a;" horiz-adv-x="489" d="M72 96q43 78 104.5 140.5t132.5 111.5q-61 45 -112.5 101.5t-98.5 117.5q4 14 15.5 18.5t21.5 8.5q16 -12 28.5 -27.5t24.5 -31.5q16 -20 37 -44t44.5 -47.5t47 -43t45.5 -31.5q6 -4 11.5 -5.5t9.5 -5.5l49 -26q-23 -18 -36 -27.5t-44 -30.5q-47 -31 -97 -79t-83 -95 q-8 -12 -15 -24.5t-18 -22.5q-18 4 -36.5 15.5t-30.5 27.5z" />
<glyph unicode="&#x205f;" horiz-adv-x="370" />
<glyph unicode="&#x2122;" horiz-adv-x="1189" d="M72 948l34 4q-4 70 87 84q59 8 102 5t84 -9q0 -47 -30 -90t-65.5 -84t-65.5 -83t-30 -87q0 -88 48.5 -134t117 -58.5t144 3t131.5 50.5v-31q4 -8 18 -8t25 2q2 10 2 18t2 15q4 29 16.5 54.5t28.5 51.5q8 12 22.5 34t32 42.5t35.5 36.5t35 18q4 -20 2 -40.5t-2 -39.5v-47 t3 -53.5t10 -51t20 -40.5h53q-20 14 -28.5 39.5t-8.5 36.5q4 27 8 41t10 24q8 12 22.5 34t33 42.5t37 36.5t32.5 18q4 -20 3 -40.5t-1 -39.5q0 -20 1 -46.5t4.5 -54.5t10.5 -52.5t19 -38.5q14 0 29.5 3t28.5 13q0 10 1 21.5t-6 21.5q-4 0 -6 -1t-4 -1l-4 -4q-2 -2 -6 -2 q-10 8 -15.5 31.5t-6.5 52.5t-1 55q0 29 2 45q2 18 5.5 39t-2.5 41q-4 16 -28 13.5t-34 -9.5q-43 -23 -75.5 -63.5t-61.5 -83.5q0 23 1 38t1 25q2 20 5 40t-1 40q-4 16 -28.5 13.5t-34.5 -9.5q-49 -29 -87 -78t-67 -96q2 16 4 36t4 42q4 31 5 58.5t-5 37.5q-14 -4 -24.5 -6 t-24.5 -6q0 -59 -3 -115.5t-5 -111.5q-41 -29 -90 -45.5t-99 -20.5q-80 -4 -134 35t-68 109q-6 35 20 80q14 27 31.5 49t34.5 45q35 47 65.5 94t28.5 92q6 -2 11 -3t11 -1q37 -4 60 -4q25 0 45 -2q47 0 88 16.5t76 42.5q10 6 15 11.5t11 9.5q2 12 -6 12q-4 2 -8 2q-2 0 -6 4 q-37 -23 -78 -39t-72 -18q-37 -4 -75.5 -1t-67.5 7q-25 4 -48.5 8t-49.5 6q-27 4 -56 4t-63 -2q-39 -4 -63.5 -16t-45.5 -37q-27 -33 -26 -80z" />
<glyph unicode="&#x25fc;" horiz-adv-x="655" d="M0 0v655h655v-655h-655z" />
</font>
</defs>
</svg>
